<?xml version="1.0" encoding="UTF-8" standalone="no"?>
<!DOCTYPE svg PUBLIC "-//W3C//DTD SVG 1.1//EN" "http://www.w3.org/Graphics/SVG/1.1/DTD/svg11.dtd">
<svg width="100%" height="100%" viewBox="0 0 543 543" version="1.1" xmlns="http://www.w3.org/2000/svg" xmlns:xlink="http://www.w3.org/1999/xlink" xml:space="preserve" xmlns:serif="http://www.serif.com/" style="fill-rule:evenodd;clip-rule:evenodd;stroke-linejoin:round;stroke-miterlimit:1.41421;">
    <g transform="matrix(1,0,0,1,-559,-613.142)">
        <g id="quadrat" transform="matrix(1,0,0,1,441.358,595.897)">
            <rect x="117.642" y="17.245" width="542.567" height="542.567" style="fill:none;"/>
            <g transform="matrix(1.49099,0,0,1.36291,-320.336,-145.35)">
                <g transform="matrix(0.818574,0,0,0.895497,292.416,-687.289)">
                    <path d="M229.897,1301.18L249.283,1301.18L233.599,1289.79L239.589,1271.35L223.906,1282.74L208.223,1271.35L214.213,1289.79L198.529,1301.18L217.916,1301.18L223.906,1319.62L229.897,1301.18ZM149.849,1279.73L169.235,1279.73L153.552,1268.34L159.542,1249.9L143.859,1261.3L128.175,1249.9L134.166,1268.34L118.481,1279.73L137.868,1279.73L143.858,1298.17L149.849,1279.73ZM303.954,1298.17L309.944,1279.73L329.33,1279.73L313.646,1268.34L319.637,1249.9L303.953,1261.3L288.271,1249.9L294.261,1268.34L278.577,1279.73L297.963,1279.73L303.953,1298.17L303.954,1298.17ZM91.251,1221.13L110.636,1221.13L94.953,1209.74L100.943,1191.3L85.259,1202.7L69.577,1191.3L75.567,1209.74L59.883,1221.13L79.27,1221.13L85.261,1239.57L91.251,1221.13ZM368.543,1221.13L387.929,1221.13L372.245,1209.74L378.236,1191.3L362.552,1202.7L346.868,1191.3L352.859,1209.74L337.176,1221.13L356.562,1221.13L362.553,1239.57L368.543,1221.13ZM368.543,1040.04L387.928,1040.04L372.246,1028.64L378.236,1010.21L362.552,1021.6L346.869,1010.21L352.859,1028.64L337.176,1040.04L356.562,1040.04L362.553,1058.48L368.543,1040.04ZM80.718,1040.04L61.334,1040.04L77.016,1028.64L71.025,1010.21L86.709,1021.6L102.393,1010.21L96.403,1028.64L112.085,1040.04L92.7,1040.04L86.708,1058.48L80.718,1040.04ZM309.944,981.44L329.33,981.441L313.647,970.045L319.637,951.608L303.953,963.004L288.271,951.608L294.26,970.045L278.577,981.441L297.963,981.441L303.953,999.878L309.944,981.44ZM139.318,981.44L119.932,981.441L135.615,970.045L129.624,951.608L145.308,963.004L160.991,951.608L155.002,970.045L170.684,981.441L151.299,981.441L145.309,999.878L139.318,981.44ZM215.485,949.376L206.031,932.453L223.627,940.586L236.801,926.364L234.502,945.614L252.1,953.748L233.083,957.511L230.784,976.759L221.329,959.836L202.311,963.598L215.485,949.376Z" style="fill:rgb(238,204,36);"/>
                </g>
                <g transform="matrix(0.496376,0,0,0.496376,162.984,25.741)">
                    <g>
                        <g>
                            <g>
                                <g transform="matrix(4.43978,0,0,4.50528,-425.617,-611.398)">
                                    <path d="M236.295,254.626C235.813,254.626 235.573,254.885 235.573,255.403L235.573,279.941C235.573,280.238 235.619,280.45 235.712,280.579C235.804,280.709 236.017,280.774 236.35,280.774L239.404,280.774C239.736,280.774 239.949,280.709 240.042,280.579C240.134,280.45 240.181,280.238 240.181,279.941L240.181,255.403C240.181,254.885 239.939,254.626 239.459,254.626L236.295,254.626ZM248.342,282.106C248.342,282.883 248.249,283.614 248.064,284.298C247.878,284.984 247.564,285.585 247.12,286.103C246.677,286.622 246.084,287.038 245.344,287.352C244.603,287.667 243.678,287.824 242.568,287.824L233.241,287.824C232.131,287.824 231.205,287.667 230.466,287.352C229.725,287.038 229.133,286.622 228.69,286.103C228.578,285.972 226.676,283.947 226.58,283.806C226.296,283.387 227.883,284.811 227.745,284.298C227.56,283.614 227.468,282.883 227.468,282.106L227.468,252.793C227.468,251.203 227.902,249.935 228.772,248.99C229.641,248.047 231.021,247.575 232.908,247.575L242.901,247.575C244.368,247.575 243.759,245.953 244.611,246.523C244.855,246.686 246.843,248.78 247.037,248.99C247.906,249.935 248.342,251.203 248.342,252.793L248.342,282.106ZM211.368,254.626L211.368,268.505L215.31,268.505C215.828,268.505 216.088,268.226 216.088,267.671L216.088,255.458C216.088,254.903 215.828,254.626 215.31,254.626L211.368,254.626ZM224.026,271.447C224.026,272.335 223.721,273.15 223.11,273.89C222.499,274.63 221.601,275 220.417,275L224.637,287.824L216.309,287.824L214.225,285.565L212.423,275L211.368,275L211.368,287.824L203.319,287.824L201.237,285.449L203.319,247.575L218.586,247.575C219.917,247.575 219.284,245.832 220.109,246.301C220.454,246.497 222.464,248.712 222.721,248.99C223.591,249.935 224.026,251.203 224.026,252.793L224.026,271.447ZM185.443,287.824C183.111,287.824 181.482,287.343 180.557,286.38C180.095,285.9 178.276,284.156 178.045,283.36C177.813,282.564 179.169,282.716 179.169,281.606L179.169,247.575L185.443,245.276L187.386,247.575L187.386,279.885C187.386,280.182 187.432,280.403 187.524,280.551C187.617,280.7 187.83,280.774 188.163,280.774L190.995,280.774C191.328,280.774 191.54,280.7 191.633,280.551C191.725,280.403 191.772,280.182 191.772,279.885L191.772,247.575L197.834,245.276L199.988,247.575L199.988,281.606C199.988,283.826 199.525,285.419 198.6,286.38C197.674,287.343 196.046,287.824 193.715,287.824L185.443,287.824ZM159.35,247.575L172.96,245.276L175.006,247.575L176.394,255.069L167.623,255.069L167.623,264.619L172.221,262.324L174.284,264.619L174.284,271.558L167.623,271.558L167.623,280.33L174.284,278.074L176.06,280.33L174.673,287.824L159.35,287.824L157.326,285.449L159.35,247.575Z" style="fill:url(#_Linear1);fill-rule:nonzero;"/>
                                </g>
                                <g transform="matrix(4.43978,0,0,4.50528,-434.996,-621.659)">
                                    <path d="M236.295,254.626C235.813,254.626 235.573,254.885 235.573,255.403L235.573,279.941C235.573,280.238 235.619,280.45 235.712,280.579C235.804,280.709 236.017,280.774 236.35,280.774L239.404,280.774C239.736,280.774 239.949,280.709 240.042,280.579C240.134,280.45 240.181,280.238 240.181,279.941L240.181,255.403C240.181,254.885 239.939,254.626 239.459,254.626L236.295,254.626ZM248.342,282.106C248.342,282.883 248.249,283.614 248.064,284.298C247.878,284.984 247.564,285.585 247.12,286.103C246.677,286.622 246.084,287.038 245.344,287.352C244.603,287.667 243.678,287.824 242.568,287.824L233.241,287.824C232.131,287.824 231.205,287.667 230.466,287.352C229.725,287.038 229.133,286.622 228.69,286.103C228.245,285.585 227.93,284.984 227.745,284.298C227.56,283.614 227.468,282.883 227.468,282.106L227.468,252.793C227.468,251.203 227.902,249.935 228.772,248.99C229.641,248.047 231.021,247.575 232.908,247.575L242.901,247.575C244.789,247.575 246.167,248.047 247.037,248.99C247.906,249.935 248.342,251.203 248.342,252.793L248.342,282.106ZM211.368,254.626L211.368,268.505L215.31,268.505C215.828,268.505 216.088,268.226 216.088,267.671L216.088,255.458C216.088,254.903 215.828,254.626 215.31,254.626L211.368,254.626ZM224.026,271.447C224.026,272.335 223.721,273.15 223.11,273.89C222.499,274.63 221.601,275 220.417,275L224.637,287.824L216.309,287.824L212.423,275L211.368,275L211.368,287.824L203.319,287.824L203.319,247.575L218.586,247.575C220.473,247.575 221.851,248.047 222.721,248.99C223.591,249.935 224.026,251.203 224.026,252.793L224.026,271.447ZM185.443,287.824C183.111,287.824 181.482,287.343 180.557,286.38C179.632,285.419 179.169,283.826 179.169,281.606L179.169,247.575L187.386,247.575L187.386,279.885C187.386,280.182 187.432,280.403 187.524,280.551C187.617,280.7 187.83,280.774 188.163,280.774L190.995,280.774C191.328,280.774 191.54,280.7 191.633,280.551C191.725,280.403 191.772,280.182 191.772,279.885L191.772,247.575L199.988,247.575L199.988,281.606C199.988,283.826 199.525,285.419 198.6,286.38C197.674,287.343 196.046,287.824 193.715,287.824L185.443,287.824ZM159.35,247.575L175.006,247.575L176.394,255.069L167.623,255.069L167.623,264.619L174.284,264.619L174.284,271.558L167.623,271.558L167.623,280.33L176.06,280.33L174.673,287.824L159.35,287.824L159.35,247.575Z" style="fill:white;fill-rule:nonzero;"/>
                                </g>
                                <g transform="matrix(4.07165,0,0,4.07165,-436.034,-627.604)">
                                    <path d="M347.444,276.214L349.624,284.384L343.753,284.384L343.753,320.092L334.796,320.092L334.796,284.384L328.926,284.384L331.226,276.214L347.444,276.214ZM316.7,307.685L320.755,307.685L318.759,292.131L316.7,307.685ZM315.732,314.645L314.944,320.092L306.11,320.092L314.037,276.214L323.417,276.214L331.347,320.092L322.51,320.092L321.723,314.645L315.732,314.645ZM284.081,299.393L284.081,320.092L275.547,320.092L275.547,276.214L284.807,276.214L289.588,294.733L294.37,276.214L303.69,276.214L303.69,320.092L295.156,320.092L295.156,299.393L289.588,316.945L284.081,299.393Z" style="fill:rgb(33,20,82);fill-rule:nonzero;"/>
                                </g>
                            </g>
                        </g>
                    </g>
                </g>
            </g>
        </g>
    </g>
    <defs>
        <linearGradient id="_Linear1" x1="0" y1="0" x2="1" y2="0" gradientUnits="userSpaceOnUse" gradientTransform="matrix(81.8247,-0.302412,0.280513,88.2125,163.636,262.307)"><stop offset="0" style="stop-color:rgb(238,204,36);stop-opacity:1"/><stop offset="1" style="stop-color:rgb(238,154,36);stop-opacity:1"/></linearGradient>
    </defs>
</svg>
