<?xml version="1.0" encoding="UTF-8" standalone="no"?>
<!DOCTYPE svg PUBLIC "-//W3C//DTD SVG 1.1//EN" "http://www.w3.org/Graphics/SVG/1.1/DTD/svg11.dtd">
<svg width="100%" height="100%" viewBox="0 0 723 336" version="1.1" xmlns="http://www.w3.org/2000/svg" xmlns:xlink="http://www.w3.org/1999/xlink" xml:space="preserve" xmlns:serif="http://www.serif.com/" style="fill-rule:evenodd;clip-rule:evenodd;stroke-linejoin:round;stroke-miterlimit:1.41421;">
    <g transform="matrix(1,0,0,1,-1185.53,-806.681)">
        <g id="horizontal" transform="matrix(1.33236,0,0,0.618984,1028.79,796.007)">
            <rect x="117.642" y="17.245" width="542.567" height="542.567" style="fill:none;"/>
            <clipPath id="_clip1">
                <rect x="117.642" y="17.245" width="542.567" height="542.567"/>
            </clipPath>
            <g clip-path="url(#_clip1)">
                <g transform="matrix(1.2847,0,0,2.76532,439.065,223.679)">
                    <g transform="matrix(1,0,0,1,45.519,12.0545)">
                        <path d="M0,-9.267C-0.443,-9.267 -0.802,-9.151 -1.084,-8.916C-1.365,-8.682 -1.508,-8.345 -1.508,-7.905C-1.508,-7.465 -1.377,-7.113 -1.116,-6.843C-0.856,-6.575 -0.513,-6.368 -0.094,-6.223C0.326,-6.079 0.793,-5.943 1.309,-5.81C1.825,-5.679 2.336,-5.521 2.847,-5.338C3.356,-5.151 3.818,-4.92 4.239,-4.646C4.659,-4.371 5,-3.981 5.261,-3.479C5.522,-2.976 5.651,-2.375 5.651,-1.673C5.651,-0.449 5.152,0.6 4.156,1.472C3.159,2.347 1.847,2.785 0.216,2.785C-1.414,2.785 -2.729,2.39 -3.727,1.609C-4.724,0.825 -5.223,-0.292 -5.223,-1.736L-1.465,-1.736C-1.369,-0.581 -0.778,0 0.308,0C0.819,0 1.217,-0.137 1.505,-0.404C1.794,-0.673 1.938,-1.012 1.938,-1.428C1.938,-1.839 1.808,-2.174 1.546,-2.438C1.285,-2.698 0.944,-2.904 0.524,-3.056C0.105,-3.206 -0.363,-3.347 -0.878,-3.479C-1.395,-3.61 -1.905,-3.77 -2.417,-3.965C-2.925,-4.156 -3.39,-4.388 -3.809,-4.656C-4.228,-4.924 -4.567,-5.309 -4.831,-5.81C-5.09,-6.313 -5.223,-6.908 -5.223,-7.596C-5.223,-8.946 -4.72,-10.022 -3.715,-10.835C-2.711,-11.647 -1.43,-12.052 0.132,-12.052C1.694,-12.052 2.956,-11.698 3.919,-10.99C4.883,-10.282 5.386,-9.164 5.425,-7.635L1.587,-7.635C1.533,-8.16 1.363,-8.561 1.082,-8.844C0.799,-9.127 0.438,-9.267 0,-9.267" style="fill:white;fill-rule:nonzero;"/>
                    </g>
                    <g transform="matrix(1,0,0,1,63.5522,14.6944)">
                        <path d="M0,-14.528L0,-11.846L-5.242,-11.846L-5.242,-8.728L-0.62,-8.728L-0.62,-6.048L-5.242,-6.048L-5.242,-2.685L0,-2.685L0,0L-8.77,0L-8.77,-14.528L0,-14.528Z" style="fill:white;fill-rule:nonzero;"/>
                    </g>
                    <g transform="matrix(1,0,0,1,84.1377,10.5464)">
                        <path d="M0,-6.293L0,-4.887L-2.188,-4.887L-2.188,4.146L-3.938,4.146L-3.938,-4.887L-5.289,-4.887L-5.289,-6.293L-3.938,-6.293L-3.938,-7.167C-3.938,-8.31 -3.633,-9.138 -3.024,-9.659C-2.414,-10.178 -1.458,-10.439 -0.152,-10.439L-0.152,-9.031C-0.915,-9.031 -1.443,-8.889 -1.739,-8.602C-2.038,-8.317 -2.188,-7.839 -2.188,-7.167L-2.188,-6.293L0,-6.293Z" style="fill:white;fill-rule:nonzero;"/>
                    </g>
                    <g transform="matrix(1,0,0,1,95.7651,14.6944)">
                        <path d="M0,-14.528L0,-11.846L-5.24,-11.846L-5.24,-8.728L-0.618,-8.728L-0.618,-6.048L-5.24,-6.048L-5.24,-2.685L0,-2.685L0,0L-8.77,0L-8.77,-14.528L0,-14.528Z" style="fill:white;fill-rule:nonzero;"/>
                    </g>
                    <g transform="matrix(1,0,0,1,99.564,6.1909)">
                        <path d="M0,2.663L0,-5.983L3.526,-5.983L3.526,2.663C3.526,3.529 3.738,4.198 4.166,4.664C4.592,5.132 5.22,5.366 6.043,5.366C6.87,5.366 7.504,5.132 7.941,4.664C8.383,4.198 8.602,3.529 8.602,2.663L8.602,-5.983L12.132,-5.983L12.132,2.663C12.132,3.942 11.833,5.046 11.232,5.975C10.636,6.904 9.879,7.581 8.965,8.009C8.05,8.434 7.055,8.646 5.983,8.646C4.304,8.646 2.888,8.123 1.733,7.08C0.577,6.035 0,4.562 0,2.663" style="fill:white;fill-rule:nonzero;"/>
                    </g>
                    <g transform="matrix(1,0,0,1,119.062,12.0131)">
                        <path d="M0,-9.122L0,-5.636L2.188,-5.636C2.723,-5.636 3.147,-5.794 3.458,-6.109C3.766,-6.428 3.924,-6.843 3.924,-7.357C3.924,-7.874 3.762,-8.298 3.446,-8.627C3.13,-8.959 2.711,-9.122 2.188,-9.122L0,-9.122ZM0,-2.954L0,2.682L-3.528,2.682L-3.528,-11.804L2.188,-11.804C3.867,-11.804 5.172,-11.371 6.108,-10.505C7.044,-9.64 7.51,-8.592 7.51,-7.367C7.51,-6.528 7.257,-5.71 6.746,-4.914C6.239,-4.116 5.406,-3.551 4.25,-3.222L7.799,2.682L3.674,2.682L0.414,-2.954L0,-2.954Z" style="fill:white;fill-rule:nonzero;"/>
                    </g>
                    <g transform="matrix(1,0,0,1,139.499,4.3978)">
                        <path d="M0,6.045C0.696,5.288 1.043,4.278 1.043,3.011C1.043,1.745 0.696,0.736 0,-0.02C-0.694,-0.778 -1.623,-1.157 -2.783,-1.157C-3.945,-1.157 -4.874,-0.778 -5.567,-0.02C-6.264,0.736 -6.611,1.745 -6.611,3.011C-6.611,4.278 -6.264,5.288 -5.567,6.045C-4.874,6.804 -3.945,7.18 -2.783,7.18C-1.623,7.18 -0.694,6.804 0,6.045M-8.044,8.336C-9.485,6.932 -10.201,5.157 -10.201,3.011C-10.201,0.865 -9.485,-0.905 -8.044,-2.302C-6.611,-3.698 -4.848,-4.396 -2.763,-4.396C-0.681,-4.396 1.075,-3.698 2.498,-2.302C3.924,-0.905 4.634,0.865 4.634,3.011C4.634,5.157 3.918,6.932 2.488,8.336C1.059,9.738 -0.696,10.441 -2.773,10.441C-4.85,10.441 -6.611,9.738 -8.044,8.336" style="fill:white;fill-rule:nonzero;"/>
                    </g>
                    <g transform="matrix(1,0,0,1,150.756,8.5264)">
                        <path d="M0,-2.149L2.188,-2.149C2.723,-2.149 3.146,-2.307 3.456,-2.625C3.766,-2.941 3.92,-3.356 3.92,-3.871C3.92,-4.387 3.762,-4.811 3.446,-5.14C3.128,-5.47 2.709,-5.636 2.188,-5.636L0,-5.636L0,-2.149ZM7.51,-3.88C7.51,-2.904 7.159,-1.963 6.457,-1.055C6.086,-0.587 5.533,-0.207 4.799,0.09C4.06,0.386 3.19,0.533 2.188,0.533L0,0.533L0,6.168L-3.53,6.168L-3.53,-8.317L2.188,-8.317C3.865,-8.317 5.172,-7.884 6.108,-7.018C7.04,-6.153 7.51,-5.105 7.51,-3.88" style="fill:white;fill-rule:nonzero;"/>
                    </g>
                    <g transform="matrix(1,0,0,1,169.985,14.6944)">
                        <path d="M0,-14.528L0,-11.846L-5.24,-11.846L-5.24,-8.728L-0.616,-8.728L-0.616,-6.048L-5.24,-6.048L-5.24,-2.685L0,-2.685L0,0L-8.77,0L-8.77,-14.528L0,-14.528Z" style="fill:white;fill-rule:nonzero;"/>
                    </g>
                    <g transform="matrix(1,0,0,1,71.8613,13.4567)">
                        <path d="M0,-8.178C-2.254,-8.178 -4.089,-6.343 -4.089,-4.091C-4.089,-1.836 -2.254,-0.001 0,-0.001C2.254,-0.001 4.087,-1.836 4.087,-4.091C4.087,-6.343 2.254,-8.178 0,-8.178M0,1.426C-3.04,1.426 -5.515,-1.048 -5.515,-4.091C-5.515,-7.129 -3.04,-9.604 0,-9.604C3.041,-9.604 5.515,-7.129 5.515,-4.091C5.515,-1.048 3.041,1.426 0,1.426" style="fill:white;fill-rule:nonzero;"/>
                    </g>
                    <g transform="matrix(1,0,0,1,13.9268,6.1909)">
                        <path d="M0,2.663L0,-5.983L3.528,-5.983L3.528,2.663C3.528,3.529 3.743,4.198 4.167,4.664C4.595,5.132 5.223,5.366 6.045,5.366C6.873,5.366 7.504,5.132 7.945,4.664C8.384,4.198 8.602,3.529 8.602,2.663L8.602,-5.983L12.132,-5.983L12.132,2.663C12.132,3.942 11.833,5.046 11.235,5.975C10.636,6.904 9.879,7.581 8.967,8.009C8.052,8.434 7.058,8.646 5.983,8.646C4.306,8.646 2.89,8.123 1.734,7.08C0.578,6.035 0,4.562 0,2.663" style="fill:white;fill-rule:nonzero;"/>
                    </g>
                    <g transform="matrix(1,0,0,1,29.8979,14.6935)">
                        <path d="M0,-14.486L3.528,-14.486L3.528,-2.683L7.923,-2.683L7.923,0L0,0L0,-14.486Z" style="fill:white;fill-rule:nonzero;"/>
                    </g>
                    <g transform="matrix(1,0,0,1,3.5278,8.5264)">
                        <path d="M0,-2.149L2.188,-2.149C2.724,-2.149 3.147,-2.307 3.458,-2.625C3.766,-2.941 3.92,-3.356 3.92,-3.871C3.92,-4.387 3.764,-4.811 3.446,-5.14C3.13,-5.47 2.708,-5.636 2.188,-5.636L0,-5.636L0,-2.149ZM7.512,-3.88C7.512,-2.904 7.161,-1.963 6.459,-1.055C6.088,-0.587 5.533,-0.207 4.799,0.09C4.062,0.386 3.192,0.533 2.188,0.533L0,0.533L0,6.168L-3.528,6.168L-3.528,-8.317L2.188,-8.317C3.867,-8.317 5.172,-7.884 6.108,-7.018C7.042,-6.153 7.512,-5.105 7.512,-3.88" style="fill:white;fill-rule:nonzero;"/>
                    </g>
                </g>
                <g transform="matrix(1.21808,0,0,2.62192,456.196,322.87)">
                    <path d="M0,3.618L0,17.775C0,17.989 0.17,18.159 0.384,18.159L3.028,18.159C3.241,18.159 3.412,17.989 3.412,17.775L3.412,3.618C3.412,3.404 3.241,3.233 3.028,3.233L0.384,3.233C0.17,3.233 0,3.404 0,3.618M-6.113,-9.621C-6.113,-9.068 -6.454,-7.873 -7.925,-7.83L-10.419,-7.83L-10.419,-11.391L-7.989,-11.391C-6.454,-11.391 -6.113,-10.24 -6.113,-9.621M-2.701,-9.621C-2.701,-11.648 -3.958,-14.547 -8.095,-14.547L-13.468,-14.547C-13.682,-14.547 -13.852,-14.376 -13.852,-14.163L-13.852,-0.005C-13.852,0.208 -13.682,0.379 -13.468,0.379L-10.803,0.379C-10.59,0.379 -10.419,0.208 -10.419,-0.005L-10.419,-4.632L-7.839,-4.632C-5.324,-4.632 -2.701,-6.637 -2.701,-9.621M11.042,-7.078C11.042,-4.787 9.178,-2.924 6.887,-2.924C4.597,-2.924 2.733,-4.787 2.733,-7.078C2.733,-9.368 4.597,-11.233 6.887,-11.233C9.178,-11.233 11.042,-9.368 11.042,-7.078M14.595,-7.078C14.595,-11.328 11.138,-14.786 6.887,-14.786C2.637,-14.786 -0.82,-11.328 -0.82,-7.078C-0.82,-2.828 2.637,0.63 6.887,0.63C11.138,0.63 14.595,-2.828 14.595,-7.078M13.154,13.811C13.154,14.797 12.302,15.38 11.406,15.38C10.51,15.38 9.636,14.864 9.636,13.811C9.636,12.758 10.51,12.221 11.406,12.221C12.302,12.221 13.154,12.758 13.154,13.811M13.154,7.537C13.154,8.591 12.302,9.128 11.406,9.128C10.51,9.128 9.636,8.591 9.636,7.537C9.636,6.507 10.51,6.014 11.406,6.014C12.302,6.014 13.154,6.507 13.154,7.537M14.722,10.674C16.066,9.845 16.448,8.321 16.47,7.537C16.537,5.924 15.551,2.988 11.406,2.988C7.261,2.988 6.297,5.879 6.297,7.537C6.297,8.927 6.925,10.114 8,10.651C6.992,11.189 6.342,12.78 6.342,13.811C6.342,15.447 7.261,18.404 11.406,18.404C15.551,18.404 16.47,15.425 16.47,13.789C16.47,12.803 16.044,11.414 14.722,10.674M25.646,-0.005L25.646,-2.414C25.646,-2.628 25.476,-2.798 25.262,-2.798L21.013,-2.798L21.013,-14.163C21.013,-14.376 20.842,-14.547 20.629,-14.547L17.964,-14.547C17.751,-14.547 17.58,-14.376 17.58,-14.163L17.58,-0.005C17.58,0.208 17.751,0.379 17.964,0.379L25.262,0.379C25.476,0.379 25.646,0.208 25.646,-0.005M31.961,-0.005L31.961,-14.163C31.961,-14.376 31.791,-14.547 31.577,-14.547L28.934,-14.547C28.72,-14.547 28.55,-14.376 28.55,-14.163L28.55,-0.005C28.55,0.208 28.72,0.379 28.934,0.379L31.577,0.379C31.791,0.379 31.961,0.208 31.961,-0.005M30.673,10.696C30.673,12.987 28.81,14.85 26.519,14.85C24.229,14.85 22.365,12.987 22.365,10.696C22.365,8.406 24.229,6.542 26.519,6.542C28.81,6.542 30.673,8.406 30.673,10.696M34.227,10.696C34.227,6.446 30.769,2.988 26.519,2.988C22.269,2.988 18.811,6.446 18.811,10.696C18.811,14.946 22.269,18.404 26.519,18.404C30.769,18.404 34.227,14.946 34.227,10.696M46.036,-12.969C46.121,-13.183 46.036,-13.396 45.844,-13.502C43.349,-14.653 41.387,-14.781 40.449,-14.781C37.592,-14.781 35.524,-13.118 35.524,-10.325C35.524,-7.255 38.231,-6.423 40.385,-5.72C41.792,-5.272 42.944,-4.866 42.944,-3.929C42.944,-3.182 42.005,-2.65 40.897,-2.65C39.66,-2.65 38.338,-3.14 36.974,-3.758C36.782,-3.843 36.547,-3.779 36.462,-3.587L35.289,-1.412C35.204,-1.221 35.268,-0.986 35.46,-0.901C37.272,0.037 38.957,0.549 41.025,0.549C44.287,0.549 46.547,-1.477 46.547,-4.078C46.547,-6.807 44.266,-7.83 42.197,-8.556C40.535,-9.153 39.042,-9.558 38.957,-10.475C38.935,-11.284 39.767,-11.562 40.663,-11.562C41.856,-11.562 43.626,-10.922 44.564,-10.581C44.777,-10.495 44.991,-10.581 45.076,-10.773L46.036,-12.969Z" style="fill:white;fill-rule:nonzero;"/>
                </g>
                <g transform="matrix(0.780073,0,0,1.53487,-113.746,-201.874)">
                    <g transform="matrix(0.818574,0,0,0.895497,291.822,-687.289)">
                        <path d="M229.897,1301.18L249.283,1301.18L233.599,1289.79L239.589,1271.35L223.906,1282.74L208.223,1271.35L214.213,1289.79L198.529,1301.18L217.916,1301.18L223.906,1319.62L229.897,1301.18ZM149.849,1279.73L169.235,1279.73L153.552,1268.34L159.542,1249.9L143.859,1261.3L128.175,1249.9L134.166,1268.34L118.481,1279.73L137.868,1279.73L143.858,1298.17L149.849,1279.73ZM303.954,1298.17L309.944,1279.73L329.33,1279.73L313.646,1268.34L319.637,1249.9L303.953,1261.3L288.271,1249.9L294.261,1268.34L278.577,1279.73L297.963,1279.73L303.953,1298.17L303.954,1298.17ZM91.251,1221.13L110.636,1221.13L94.953,1209.74L100.943,1191.3L85.259,1202.7L69.577,1191.3L75.567,1209.74L59.883,1221.13L79.27,1221.13L85.261,1239.57L91.251,1221.13ZM368.543,1221.13L387.929,1221.13L372.245,1209.74L378.236,1191.3L362.552,1202.7L346.868,1191.3L352.859,1209.74L337.176,1221.13L356.562,1221.13L362.553,1239.57L368.543,1221.13ZM368.543,1040.04L387.928,1040.04L372.246,1028.64L378.236,1010.21L362.552,1021.6L346.869,1010.21L352.859,1028.64L337.176,1040.04L356.562,1040.04L362.553,1058.48L368.543,1040.04ZM80.718,1040.04L61.334,1040.04L77.016,1028.64L71.025,1010.21L86.709,1021.6L102.393,1010.21L96.403,1028.64L112.085,1040.04L92.7,1040.04L86.708,1058.48L80.718,1040.04ZM309.944,981.44L329.33,981.441L313.647,970.045L319.637,951.608L303.953,963.004L288.271,951.608L294.26,970.045L278.577,981.441L297.963,981.441L303.953,999.878L309.944,981.44ZM139.318,981.44L119.932,981.441L135.615,970.045L129.624,951.608L145.308,963.004L160.991,951.608L155.002,970.045L170.684,981.441L151.299,981.441L145.309,999.878L139.318,981.44ZM215.485,949.376L206.031,932.453L223.627,940.586L236.801,926.364L234.502,945.614L252.1,953.748L233.083,957.511L230.784,976.759L221.329,959.836L202.311,963.598L215.485,949.376Z" style="fill:rgb(238,204,36);"/>
                    </g>
                    <g>
                        <g transform="matrix(2.2038,0,0,2.23631,-48.2819,-271.902)">
                            <path d="M236.295,254.626C235.813,254.626 235.573,254.885 235.573,255.403L235.573,279.941C235.573,280.238 235.619,280.45 235.712,280.579C235.804,280.709 236.017,280.774 236.35,280.774L239.404,280.774C239.736,280.774 239.949,280.709 240.042,280.579C240.134,280.45 240.181,280.238 240.181,279.941L240.181,255.403C240.181,254.885 239.939,254.626 239.459,254.626L236.295,254.626ZM248.342,282.106C248.342,282.883 248.249,283.614 248.064,284.298C247.878,284.984 247.564,285.585 247.12,286.103C246.677,286.622 246.084,287.038 245.344,287.352C244.603,287.667 243.678,287.824 242.568,287.824L233.241,287.824C232.131,287.824 231.205,287.667 230.466,287.352C229.725,287.038 229.133,286.622 228.69,286.103C228.578,285.972 226.676,283.947 226.58,283.806C226.296,283.387 227.883,284.811 227.745,284.298C227.56,283.614 227.468,282.883 227.468,282.106L227.468,252.793C227.468,251.203 227.902,249.935 228.772,248.99C229.641,248.047 231.021,247.575 232.908,247.575L242.901,247.575C244.368,247.575 243.759,245.953 244.611,246.523C244.855,246.686 246.843,248.78 247.037,248.99C247.906,249.935 248.342,251.203 248.342,252.793L248.342,282.106ZM211.368,254.626L211.368,268.505L215.31,268.505C215.828,268.505 216.088,268.226 216.088,267.671L216.088,255.458C216.088,254.903 215.828,254.626 215.31,254.626L211.368,254.626ZM224.026,271.447C224.026,272.335 223.721,273.15 223.11,273.89C222.499,274.63 221.601,275 220.417,275L224.637,287.824L216.309,287.824L214.225,285.565L212.423,275L211.368,275L211.368,287.824L203.319,287.824L201.237,285.449L203.319,247.575L218.586,247.575C219.917,247.575 219.284,245.832 220.109,246.301C220.454,246.497 222.464,248.712 222.721,248.99C223.591,249.935 224.026,251.203 224.026,252.793L224.026,271.447ZM185.443,287.824C183.111,287.824 181.482,287.343 180.557,286.38C180.095,285.9 178.276,284.156 178.045,283.36C177.813,282.564 179.169,282.716 179.169,281.606L179.169,247.575L185.443,245.276L187.386,247.575L187.386,279.885C187.386,280.182 187.432,280.403 187.524,280.551C187.617,280.7 187.83,280.774 188.163,280.774L190.995,280.774C191.328,280.774 191.54,280.7 191.633,280.551C191.725,280.403 191.772,280.182 191.772,279.885L191.772,247.575L197.834,245.276L199.988,247.575L199.988,281.606C199.988,283.826 199.525,285.419 198.6,286.38C197.674,287.343 196.046,287.824 193.715,287.824L185.443,287.824ZM159.35,247.575L172.96,245.276L175.006,247.575L176.394,255.069L167.623,255.069L167.623,264.619L172.221,262.324L174.284,264.619L174.284,271.558L167.623,271.558L167.623,280.33L174.284,278.074L176.06,280.33L174.673,287.824L159.35,287.824L157.326,285.449L159.35,247.575Z" style="fill:url(#_Linear2);fill-rule:nonzero;"/>
                        </g>
                        <g transform="matrix(2.2038,0,0,2.23631,-52.9375,-276.996)">
                            <path d="M236.295,254.626C235.813,254.626 235.573,254.885 235.573,255.403L235.573,279.941C235.573,280.238 235.619,280.45 235.712,280.579C235.804,280.709 236.017,280.774 236.35,280.774L239.404,280.774C239.736,280.774 239.949,280.709 240.042,280.579C240.134,280.45 240.181,280.238 240.181,279.941L240.181,255.403C240.181,254.885 239.939,254.626 239.459,254.626L236.295,254.626ZM248.342,282.106C248.342,282.883 248.249,283.614 248.064,284.298C247.878,284.984 247.564,285.585 247.12,286.103C246.677,286.622 246.084,287.038 245.344,287.352C244.603,287.667 243.678,287.824 242.568,287.824L233.241,287.824C232.131,287.824 231.205,287.667 230.466,287.352C229.725,287.038 229.133,286.622 228.69,286.103C228.245,285.585 227.93,284.984 227.745,284.298C227.56,283.614 227.468,282.883 227.468,282.106L227.468,252.793C227.468,251.203 227.902,249.935 228.772,248.99C229.641,248.047 231.021,247.575 232.908,247.575L242.901,247.575C244.789,247.575 246.167,248.047 247.037,248.99C247.906,249.935 248.342,251.203 248.342,252.793L248.342,282.106ZM211.368,254.626L211.368,268.505L215.31,268.505C215.828,268.505 216.088,268.226 216.088,267.671L216.088,255.458C216.088,254.903 215.828,254.626 215.31,254.626L211.368,254.626ZM224.026,271.447C224.026,272.335 223.721,273.15 223.11,273.89C222.499,274.63 221.601,275 220.417,275L224.637,287.824L216.309,287.824L212.423,275L211.368,275L211.368,287.824L203.319,287.824L203.319,247.575L218.586,247.575C220.473,247.575 221.851,248.047 222.721,248.99C223.591,249.935 224.026,251.203 224.026,252.793L224.026,271.447ZM185.443,287.824C183.111,287.824 181.482,287.343 180.557,286.38C179.632,285.419 179.169,283.826 179.169,281.606L179.169,247.575L187.386,247.575L187.386,279.885C187.386,280.182 187.432,280.403 187.524,280.551C187.617,280.7 187.83,280.774 188.163,280.774L190.995,280.774C191.328,280.774 191.54,280.7 191.633,280.551C191.725,280.403 191.772,280.182 191.772,279.885L191.772,247.575L199.988,247.575L199.988,281.606C199.988,283.826 199.525,285.419 198.6,286.38C197.674,287.343 196.046,287.824 193.715,287.824L185.443,287.824ZM159.35,247.575L175.006,247.575L176.394,255.069L167.623,255.069L167.623,264.619L174.284,264.619L174.284,271.558L167.623,271.558L167.623,280.33L176.06,280.33L174.673,287.824L159.35,287.824L159.35,247.575Z" style="fill:white;fill-rule:nonzero;"/>
                        </g>
                        <g transform="matrix(2.13418,0,0,2.13418,-84.6198,-311.189)">
                            <path d="M347.444,276.214L349.624,284.384L343.753,284.384L343.753,320.092L334.796,320.092L334.796,284.384L328.926,284.384L331.226,276.214L347.444,276.214ZM316.7,307.685L320.755,307.685L318.759,292.131L316.7,307.685ZM315.732,314.645L314.944,320.092L306.11,320.092L314.037,276.214L323.417,276.214L331.347,320.092L322.51,320.092L321.723,314.645L315.732,314.645ZM284.081,299.393L284.081,320.092L275.547,320.092L275.547,276.214L284.807,276.214L289.588,294.733L294.37,276.214L303.69,276.214L303.69,320.092L295.156,320.092L295.156,299.393L289.588,316.945L284.081,299.393Z" style="fill:rgb(33,20,82);fill-rule:nonzero;"/>
                        </g>
                    </g>
                </g>
            </g>
        </g>
    </g>
    <defs>
        <linearGradient id="_Linear2" x1="0" y1="0" x2="1" y2="0" gradientUnits="userSpaceOnUse" gradientTransform="matrix(81.8247,-0.302412,0.280513,88.2125,163.636,262.307)"><stop offset="0" style="stop-color:rgb(238,204,36);stop-opacity:1"/><stop offset="1" style="stop-color:rgb(238,154,36);stop-opacity:1"/></linearGradient>
    </defs>
</svg>
