<?xml version="1.0" encoding="UTF-8"?>
<svg width="130px" height="118px" viewBox="0 0 130 118" version="1.1" xmlns="http://www.w3.org/2000/svg" xmlns:xlink="http://www.w3.org/1999/xlink">
    <!-- Generator: Sketch 53.2 (72643) - https://sketchapp.com -->
    <title>Group 3</title>
    <desc>Created with Sketch.</desc>
    <defs>
        <linearGradient x1="6.93284697%" y1="48.124685%" x2="96.8342929%" y2="47.9910254%" id="linearGradient-1">
            <stop stop-color="#EECC24" offset="0%"></stop>
            <stop stop-color="#EE9A24" offset="100%"></stop>
        </linearGradient>
    </defs>
    <g id="Page-1" stroke="none" stroke-width="1" fill="none" fill-rule="evenodd">
        <g id="Group-3" transform="translate(-1.000000, -7.000000)">
            <g id="190418_euromat_logo_final">
                <rect id="Rectangle" x="0" y="0" width="131.843478" height="131.843478"></rect>
                <g id="Group" transform="translate(1.530691, 7.551407)">
                    <g transform="translate(15.714327, 0.015207)" fill="#EECC24" id="Shape">
                        <path d="M50.4331717,111.186522 L56.1810503,111.186522 L51.5308013,107.809237 L53.3068145,102.341534 L48.656862,105.718819 L44.0069095,102.341534 L45.7829227,107.809237 L41.1326737,111.186522 L46.8808487,111.186522 L48.656862,116.654225 L50.4331717,111.186522 Z M26.6992306,104.826315 L32.4471091,104.826315 L27.7971566,101.44903 L29.5731699,95.9813267 L24.9232174,99.3615769 L20.2729684,95.9813267 L22.0492781,101.44903 L17.3987326,104.826315 L23.1469076,104.826315 L24.9229209,110.294017 L26.6992306,104.826315 Z M72.3908031,110.294017 L74.1668163,104.826315 L79.9146949,104.826315 L75.2644459,101.44903 L77.0407556,95.9813267 L72.3905066,99.3615769 L67.7408506,95.9813267 L69.5168638,101.44903 L64.8666148,104.826315 L70.6144934,104.826315 L72.3905066,110.294017 L72.3908031,110.294017 Z M9.32513654,87.4506428 L15.0727186,87.4506428 L10.4227661,84.0733578 L12.1987793,78.6056549 L7.54853031,81.9859051 L2.8988743,78.6056549 L4.67488753,84.0733578 L0.0246385248,87.4506428 L5.77281357,87.4506428 L7.5491233,92.9183457 L9.32513654,87.4506428 Z M91.5412069,87.4506428 L97.2890854,87.4506428 L92.6388364,84.0733578 L94.4151461,78.6056549 L89.7648971,81.9859051 L85.1146481,78.6056549 L86.8909579,84.0733578 L82.2410054,87.4506428 L87.9888839,87.4506428 L89.7651936,92.9183457 L91.5412069,87.4506428 Z M91.5412069,33.7550727 L97.2887889,33.7550727 L92.6391329,30.3748225 L94.4151461,24.9100848 L89.7648971,28.2873698 L85.1149446,24.9100848 L86.8909579,30.3748225 L82.2410054,33.7550727 L87.9888839,33.7550727 L89.7651936,39.2227756 L91.5412069,33.7550727 Z M6.20214031,33.7550727 L0.454854752,33.7550727 L5.10451076,30.3748225 L3.32820104,24.9100848 L7.97845004,28.2873698 L12.628699,24.9100848 L10.8526858,30.3748225 L15.5023418,33.7550727 L9.75475977,33.7550727 L7.97815354,39.2227756 L6.20214031,33.7550727 Z M74.1668163,16.3794009 L79.9146949,16.3796974 L75.2647424,13.0006333 L77.0407556,7.53381996 L72.3905066,10.9128841 L67.7408506,7.53381996 L69.5165673,13.0006333 L64.8666148,16.3796974 L70.6144934,16.3796974 L72.3905066,21.8465107 L74.1668163,16.3794009 Z M23.5768274,16.3794009 L17.8289488,16.3796974 L22.4789013,13.0006333 L20.7025916,7.53381996 L25.3528406,10.9128841 L30.0027931,7.53381996 L28.2270764,13.0006333 L32.8767324,16.3796974 L27.1291503,16.3796974 L25.3531371,21.8465107 L23.5768274,16.3794009 Z M46.1600661,6.87200257 L43.3569894,1.85411017 L48.5741395,4.26565179 L52.4801826,0.0486414773 L51.7985375,5.75652002 L57.0162805,8.16835815 L51.3778091,9.28413721 L50.696164,14.9914227 L47.8927908,9.97353033 L42.254023,11.0890129 L46.1600661,6.87200257 Z"></path>
                    </g>
                    <g transform="translate(0.001999, 42.535666)" fill-rule="nonzero" id="Shape">
                        <g>
                            <g>
                                <g transform="translate(0.138243, 0.051510)" fill="url(#linearGradient-1)">
                                    <path d="M63.0592975,6.94997748 C62.6745456,6.94997748 62.482968,7.1417614 62.482968,7.52532923 L62.482968,25.6951891 C62.482968,25.9151112 62.519687,26.0720926 62.5939234,26.1676144 C62.6673615,26.2638766 62.8373867,26.3120076 63.1032007,26.3120076 L65.5410266,26.3120076 C65.8060424,26.3120076 65.9760675,26.2638766 66.0503039,26.1676144 C66.123742,26.0720926 66.1612593,25.9151112 66.1612593,25.6951891 L66.1612593,7.52532923 C66.1612593,7.1417614 65.9680851,6.94997748 65.5849298,6.94997748 L63.0592975,6.94997748 Z M72.6756984,27.2983249 C72.6756984,27.8736767 72.6014621,28.4149664 72.4537876,28.9214537 C72.3053149,29.4294219 72.0546675,29.8744494 71.7002488,30.2580172 C71.3466283,30.6423255 70.8732718,30.9503646 70.282574,31.1828748 C69.6910779,31.4161255 68.9527056,31.5323806 68.0666589,31.5323806 L60.6214716,31.5323806 C59.7354248,31.5323806 58.9962543,31.4161255 58.4063547,31.1828748 C57.8148586,30.9503646 57.3423004,30.6423255 56.9886799,30.2580172 C56.899277,30.1610146 55.3810239,28.6615457 55.3043929,28.5571383 C55.0776926,28.2468778 56.3445,29.3013191 56.2343428,28.9214537 C56.0866684,28.4149664 56.0132303,27.8736767 56.0132303,27.2983249 L56.0132303,5.59268051 C56.0132303,4.41531979 56.3596666,3.47639314 57.0541356,2.77664101 C57.7478064,2.07836985 58.8493781,1.72886402 60.3556575,1.72886402 L68.3324729,1.72886402 C69.5034915,1.72886402 69.0173631,0.527808 69.6974639,0.949880709 C69.8922345,1.07057869 71.4791362,2.62114054 71.6339948,2.77664101 C72.3276657,3.47639314 72.6756984,4.41531979 72.6756984,5.59268051 L72.6756984,27.2983249 Z M43.1615613,6.94997748 L43.1615613,17.2270777 L46.3082246,17.2270777 C46.7217131,17.2270777 46.9292556,17.0204842 46.9292556,16.6095187 L46.9292556,7.56605554 C46.9292556,7.15509001 46.7217131,6.94997748 46.3082246,6.94997748 L43.1615613,6.94997748 Z M53.2656871,19.4055653 C53.2656871,20.0631101 53.0222238,20.6666 52.534499,21.2145541 C52.0467742,21.7625081 51.3299544,22.0364852 50.3848378,22.0364852 L53.7534119,31.5323806 L47.1056667,31.5323806 L45.4421339,29.8596398 L44.0037048,22.0364852 L43.1615613,22.0364852 L43.1615613,31.5323806 L36.7365251,31.5323806 L35.0745887,29.7737443 L36.7365251,1.72886402 L48.9232598,1.72886402 C49.9857177,1.72886402 49.4804316,0.438210109 50.1389798,0.785494496 C50.4143727,0.930628269 52.0188358,2.57078801 52.2239835,2.77664101 C52.9184526,3.47639314 53.2656871,4.41531979 53.2656871,5.59268051 L53.2656871,19.4055653 Z M22.4671813,31.5323806 C20.6056849,31.5323806 19.3053515,31.1762105 18.5669792,30.4631298 C18.1981921,30.1077001 16.746193,28.8163057 16.5617995,28.2268849 C16.3766078,27.6374641 17.4590216,27.7500168 17.4590216,26.9280857 L17.4590216,1.72886402 L22.4671813,0.0265040979 L24.0181622,1.72886402 L24.0181622,25.6537223 C24.0181622,25.8736444 24.0548813,26.0372901 24.1283194,26.146881 C24.2025557,26.2572122 24.3725809,26.3120076 24.638395,26.3120076 L26.8990115,26.3120076 C27.1648255,26.3120076 27.3340525,26.2572122 27.4082888,26.146881 C27.4817269,26.0372901 27.5192442,25.8736444 27.5192442,25.6537223 L27.5192442,1.72886402 L32.358177,0.0265040979 L34.0775866,1.72886402 L34.0775866,26.9280857 C34.0775866,28.5719478 33.7080013,29.75153 32.969629,30.4631298 C32.2304585,31.1762105 30.9309233,31.5323806 29.0702251,31.5323806 L22.4671813,31.5323806 Z M1.63869696,1.72886402 L12.5027475,0.0265040979 L14.1359472,1.72886402 L15.2439048,7.27800943 L8.24253903,7.27800943 L8.24253903,14.3495785 L11.912848,12.6501805 L13.5596177,14.3495785 L13.5596177,19.4877584 L8.24253903,19.4877584 L8.24253903,25.9832352 L13.5596177,24.3127159 L14.9772925,25.9832352 L13.8701332,31.5323806 L1.63869696,31.5323806 L0.0230585739,29.7737443 L1.63869696,1.72886402 Z"></path>
                                </g>
                                <g transform="translate(0.048447, 0.083148)" fill="#FFFFFF">
                                    <path d="M61.4628168,5.23186334 C61.078065,5.23186334 60.8864873,5.42364726 60.8864873,5.80721509 L60.8864873,23.977075 C60.8864873,24.1969971 60.9232064,24.3539785 60.9974427,24.4495002 C61.0708808,24.5457624 61.240906,24.5938935 61.5067201,24.5938935 L63.944546,24.5938935 C64.2095617,24.5938935 64.3795869,24.5457624 64.4538233,24.4495002 C64.5272614,24.3539785 64.5647787,24.1969971 64.5647787,23.977075 L64.5647787,5.80721509 C64.5647787,5.42364726 64.3716045,5.23186334 63.9884492,5.23186334 L61.4628168,5.23186334 Z M71.0792178,25.5802108 C71.0792178,26.1555625 71.0049815,26.6968523 70.857307,27.2033395 C70.7088343,27.7113077 70.4581869,28.1563353 70.1037682,28.5399031 C69.7501477,28.9242114 69.2767912,29.2322504 68.6860934,29.4647607 C68.0945973,29.6980114 67.356225,29.8142665 66.4701783,29.8142665 L59.0249909,29.8142665 C58.1389442,29.8142665 57.3997737,29.6980114 56.8098741,29.4647607 C56.218378,29.2322504 55.7458198,28.9242114 55.3921993,28.5399031 C55.0369824,28.1563353 54.7855367,27.7113077 54.6378622,27.2033395 C54.4901877,26.6968523 54.4167496,26.1555625 54.4167496,25.5802108 L54.4167496,3.87456637 C54.4167496,2.69720565 54.7631859,1.75827899 55.457655,1.05852687 C56.1513258,0.360255705 57.2528975,0.010749883 58.7591769,0.010749883 L66.7359923,0.010749883 C68.24307,0.010749883 69.3430452,0.360255705 70.0375142,1.05852687 C70.7311851,1.75827899 71.0792178,2.69720565 71.0792178,3.87456637 L71.0792178,25.5802108 Z M41.5650807,5.23186334 L41.5650807,15.5089636 L44.711744,15.5089636 C45.1252325,15.5089636 45.3327749,15.3023701 45.3327749,14.8914046 L45.3327749,5.8479414 C45.3327749,5.43697587 45.1252325,5.23186334 44.711744,5.23186334 L41.5650807,5.23186334 Z M51.6692065,17.6874511 C51.6692065,18.344996 51.4257432,18.9484859 50.9380184,19.4964399 C50.4502936,20.044394 49.7334738,20.318371 48.7883572,20.318371 L52.1569313,29.8142665 L45.509186,29.8142665 L42.4072242,20.318371 L41.5650807,20.318371 L41.5650807,29.8142665 L35.1400444,29.8142665 L35.1400444,0.010749883 L47.3267792,0.010749883 C48.8330587,0.010749883 49.9330338,0.360255705 50.6275029,1.05852687 C51.321972,1.75827899 51.6692065,2.69720565 51.6692065,3.87456637 L51.6692065,17.6874511 Z M20.8707007,29.8142665 C19.0092043,29.8142665 17.7088708,29.4580964 16.9704986,28.7450156 C16.2321263,28.0334158 15.862541,26.8538337 15.862541,25.2099716 L15.862541,0.010749883 L22.4216816,0.010749883 L22.4216816,23.9356082 C22.4216816,24.1555303 22.4584007,24.319176 22.5318388,24.4287668 C22.6060751,24.5390981 22.7761003,24.5938935 23.0419143,24.5938935 L25.3025309,24.5938935 C25.5683449,24.5938935 25.7375719,24.5390981 25.8118082,24.4287668 C25.8852463,24.319176 25.9227636,24.1555303 25.9227636,23.9356082 L25.9227636,0.010749883 L32.481106,0.010749883 L32.481106,25.2099716 C32.481106,26.8538337 32.1115207,28.0334158 31.3731484,28.7450156 C30.6339779,29.4580964 29.3344427,29.8142665 27.4737445,29.8142665 L20.8707007,29.8142665 Z M0.0422163413,0.010749883 L12.5394666,0.010749883 L13.6474242,5.55989529 L6.64605841,5.55989529 L6.64605841,12.6314644 L11.9631371,12.6314644 L11.9631371,17.7696442 L6.64605841,17.7696442 L6.64605841,24.2651211 L13.3808119,24.2651211 L12.2736526,29.8142665 L0.0422163413,29.8142665 L0.0422163413,0.010749883 Z"></path>
                                </g>
                                <g transform="translate(74.374827, 0.612803)" fill="#211452">
                                    <path d="M52.6771103,0.0246318597 L54.2729862,5.49206051 L49.9751019,5.49206051 L49.9751019,29.3881367 L43.4181014,29.3881367 L43.4181014,5.49206051 L39.1209491,5.49206051 L40.8046715,0.0246318597 L52.6771103,0.0246318597 Z M30.1708667,21.0852741 L33.1393425,21.0852741 L31.6781643,10.6764142 L30.1708667,21.0852741 Z M29.4622392,25.7429612 L28.8853813,29.3881367 L22.4184234,29.3881367 L28.2214091,0.0246318597 L35.0880681,0.0246318597 L40.8932499,29.3881367 L34.4240958,29.3881367 L33.8479699,25.7429612 L29.4622392,25.7429612 Z M6.29202345,15.5362021 L6.29202345,29.3881367 L0.0446814499,29.3881367 L0.0446814499,0.0246318597 L6.82349407,0.0246318597 L10.3234404,12.4176932 L13.8241188,0.0246318597 L20.6468546,0.0246318597 L20.6468546,29.3881367 L14.3995126,29.3881367 L14.3995126,15.5362021 L10.3234404,27.2821394 L6.29202345,15.5362021 Z"></path>
                                </g>
                            </g>
                        </g>
                    </g>
                </g>
            </g>
        </g>
    </g>
</svg>