<svg xmlns="http://www.w3.org/2000/svg" viewBox="0 0 439 492">
  <path fill="#FFF" fill-rule="evenodd" d="M84.62 423.845l20.906 16.591 22.156-14.889-9.235 25.143 20.907 16.592-26.614-1.052-9.235 25.142-7.213-25.793-26.613-1.053 22.154-14.888-7.213-25.793zM-74.668-226.921L121.289-71.407l207.67-139.557L242.394 24.7l195.964 155.522-249.456-9.864-86.558 235.664-67.613-241.765-249.44-9.864L-7.055 14.844-74.668-226.92zm93.533 514.31l13.105 10.4 13.889-9.333-5.79 15.761 13.106 10.401-16.683-.66-5.79 15.761-4.521-16.169-16.682-.66 13.887-9.332-4.521-16.17zm-72.642-111.431l39.94 31.697 42.328-28.445-17.644 48.033 39.942 31.7-50.845-2.011-17.642 48.033-13.78-49.277-50.842-2.01 42.324-28.443-13.78-49.277zm430.642-127.57L389.97 58.79l13.889-9.333-5.79 15.761 13.106 10.401-16.683-.66-5.79 15.761-4.521-16.169-16.682-.66 13.887-9.332-4.521-16.17zm-91.011-71.233l26.21 20.801 27.778-18.667-11.579 31.522 26.212 20.803-33.367-1.32-11.578 31.522-9.043-32.338-33.365-1.32 27.775-18.665-9.043-32.338z"/>
</svg>
