<?xml version="1.0" encoding="utf-8"?>
<!-- Generator: Adobe Illustrator 20.1.0, SVG Export Plug-In . SVG Version: 6.00 Build 0)  -->
<svg version="1.1" id="Calque_1" xmlns="http://www.w3.org/2000/svg" xmlns:xlink="http://www.w3.org/1999/xlink" x="0px" y="0px"
	 viewBox="0 0 353.9 139.3" style="enable-background:new 0 0 353.9 139.3;" xml:space="preserve">
<style type="text/css">
	.st0{fill:#324093;}
	.st1{fill:#E6007E;}
	.st2{fill:#3F2683;}
	.st3{fill:#702283;}
	.st4{fill:#37AAE1;}
	.st5{fill:#283B90;}
	.st6{fill:#36A9E1;}
	.st7{fill:url(#SVGID_5_);}
</style>
<g>
	<g>
		<path class="st0" d="M75.4,123.7l-0.5-1.5h-3l-0.5,1.5h-1.7l3.1-8.5H74l3.1,8.5H75.4z M73.4,117.7l-1.1,3.1h2.1L73.4,117.7z"/>
		<path class="st0" d="M80.4,123.7v-8.5h1.7v7.1h3.9v1.5H80.4z"/>
		<path class="st0" d="M89.5,123.7v-8.5h1.7v7.1H95v1.5H89.5z"/>
		<path class="st0" d="M98.6,123.7v-8.5h1.7v8.5H98.6z"/>
		<path class="st0" d="M109.3,123.7l-0.5-1.5h-3l-0.5,1.5h-1.7l3.1-8.5h1.3l3.1,8.5H109.3z M107.3,117.7l-1.1,3.1h2.1L107.3,117.7z"
			/>
		<path class="st0" d="M119.4,123.7l-3.4-5.2v5.2h-1.7v-8.5h1.5l3.4,5.2v-5.2h1.7v8.5H119.4z"/>
		<path class="st0" d="M127.9,123.8c-0.9,0-1.7-0.3-2.3-0.9c-0.9-0.9-0.8-1.9-0.8-3.4c0-1.5,0-2.5,0.8-3.4c0.6-0.6,1.4-0.9,2.3-0.9
			c1.6,0,2.8,0.9,3.1,2.7h-1.7c-0.2-0.7-0.6-1.2-1.4-1.2c-0.5,0-0.8,0.2-1.1,0.4c-0.3,0.4-0.4,0.8-0.4,2.4c0,1.6,0.1,2.1,0.4,2.4
			c0.2,0.3,0.6,0.4,1.1,0.4c0.8,0,1.3-0.5,1.4-1.2h1.7C130.8,122.9,129.5,123.8,127.9,123.8z"/>
		<path class="st0" d="M134.7,123.7v-8.5h5.6v1.5h-4v2h3.4v1.5h-3.4v2.1h4v1.5H134.7z"/>
		<path class="st0" d="M154.4,122.8c-0.6,0.6-1.3,0.9-2.3,0.9c-1,0-1.7-0.3-2.3-0.9c-0.9-0.9-0.8-1.9-0.8-3.4c0-1.5,0-2.5,0.8-3.4
			c0.6-0.6,1.3-0.9,2.3-0.9c1,0,1.7,0.3,2.3,0.9c0.9,0.9,0.9,1.9,0.9,3.4C155.2,120.9,155.2,122,154.4,122.8z M153.1,117
			c-0.2-0.3-0.6-0.5-1.1-0.5s-0.8,0.2-1.1,0.5c-0.3,0.4-0.4,0.8-0.4,2.4c0,1.6,0.1,2,0.4,2.4c0.2,0.3,0.6,0.5,1.1,0.5
			s0.8-0.2,1.1-0.5c0.3-0.4,0.4-0.8,0.4-2.4C153.5,117.8,153.4,117.4,153.1,117z"/>
		<path class="st0" d="M160.8,116.7v2.1h3.4v1.5h-3.4v3.5h-1.7v-8.5h5.6v1.5H160.8z"/>
		<path class="st0" d="M173.4,123.7v-8.5h1.7v7.1h3.9v1.5H173.4z"/>
		<path class="st0" d="M182.5,123.7v-8.5h1.7v8.5H182.5z"/>
		<path class="st0" d="M191.9,123.7h-3.6v-8.5h3.4c1.7,0,2.6,0.9,2.6,2.4c0,0.9-0.6,1.6-1.1,1.8c0.5,0.2,1.2,0.8,1.2,1.9
			C194.6,122.8,193.5,123.7,191.9,123.7z M191.7,116.7H190v2h1.6c0.7,0,1.1-0.4,1.1-1C192.8,117.1,192.4,116.7,191.7,116.7z
			 M191.8,120.1H190v2.1h1.7c0.8,0,1.1-0.5,1.1-1.1C192.9,120.6,192.5,120.1,191.8,120.1z"/>
		<path class="st0" d="M198.5,123.7v-8.5h5.6v1.5h-4v2h3.4v1.5h-3.4v2.1h4v1.5H198.5z"/>
		<path class="st0" d="M212.5,123.7l-1.7-3.4h-1.2v3.4h-1.7v-8.5h3.3c1.7,0,2.8,1.2,2.8,2.6c0,1.2-0.7,1.9-1.6,2.2l1.9,3.7H212.5z
			 M211.2,116.7h-1.6v2.3h1.6c0.7,0,1.2-0.5,1.2-1.1C212.4,117.1,211.9,116.7,211.2,116.7z"/>
		<path class="st0" d="M222.9,123.7l-0.5-1.5h-3l-0.5,1.5h-1.7l3.1-8.5h1.3l3.1,8.5H222.9z M220.9,117.7l-1.1,3.1h2.1L220.9,117.7z"
			/>
		<path class="st0" d="M227.9,123.7v-8.5h1.7v7.1h3.9v1.5H227.9z"/>
		<path class="st0" d="M239.3,123.8c-1.3,0-2.3-0.3-3.1-1.1l1.1-1.1c0.5,0.5,1.3,0.7,2.1,0.7c1,0,1.5-0.4,1.5-1.1
			c0-0.3-0.1-0.6-0.3-0.7c-0.2-0.2-0.4-0.2-0.8-0.3l-1-0.1c-0.7-0.1-1.3-0.3-1.7-0.7c-0.4-0.4-0.6-1-0.6-1.7c0-1.5,1.1-2.6,3-2.6
			c1.2,0,2,0.3,2.8,1l-1.1,1c-0.5-0.5-1.2-0.6-1.8-0.6c-0.9,0-1.3,0.5-1.3,1.1c0,0.2,0.1,0.4,0.3,0.6c0.2,0.2,0.4,0.3,0.8,0.3l1,0.1
			c0.8,0.1,1.3,0.3,1.6,0.7c0.5,0.4,0.7,1.1,0.7,1.8C242.5,122.8,241.1,123.8,239.3,123.8z"/>
		<path class="st0" d="M256.1,123.7l-0.5-1.5h-3l-0.5,1.5h-1.7l3.1-8.5h1.3l3.1,8.5H256.1z M254.1,117.7l-1.1,3.1h2.1L254.1,117.7z"
			/>
		<path class="st0" d="M266.2,123.7l-3.4-5.2v5.2h-1.7v-8.5h1.5l3.4,5.2v-5.2h1.7v8.5H266.2z"/>
		<path class="st0" d="M277.2,122.9c-0.6,0.6-1.4,0.8-2.3,0.8h-3.1v-8.5h3.1c0.9,0,1.7,0.3,2.3,0.8c1,1,0.9,2.1,0.9,3.4
			S278.2,121.9,277.2,122.9z M276,117.2c-0.3-0.3-0.7-0.5-1.2-0.5h-1.3v5.6h1.3c0.6,0,1-0.2,1.2-0.5c0.3-0.4,0.4-1,0.4-2.3
			S276.4,117.6,276,117.2z"/>
		<path class="st0" d="M75.9,136.4c-0.6,0.6-1.4,0.8-2.3,0.8h-3.1v-8.5h3.1c0.9,0,1.7,0.3,2.3,0.8c1,1,0.9,2.1,0.9,3.4
			S76.8,135.4,75.9,136.4z M74.7,130.7c-0.3-0.3-0.7-0.5-1.2-0.5h-1.3v5.6h1.3c0.6,0,1-0.2,1.2-0.5c0.3-0.4,0.4-1,0.4-2.3
			S75,131.1,74.7,130.7z"/>
		<path class="st0" d="M80.6,137.2v-8.5h5.6v1.5h-4v2h3.4v1.5h-3.4v2.1h4v1.5H80.6z"/>
		<path class="st0" d="M96.2,137.2v-5l-1.6,3.2h-1.1l-1.6-3.2v5h-1.7v-8.5h1.6l2.2,4.6l2.2-4.6h1.6v8.5H96.2z"/>
		<path class="st0" d="M107.2,136.3c-0.6,0.6-1.3,0.9-2.3,0.9c-1,0-1.7-0.3-2.3-0.9c-0.9-0.9-0.8-1.9-0.8-3.4c0-1.5,0-2.5,0.8-3.4
			c0.6-0.6,1.3-0.9,2.3-0.9c1,0,1.7,0.3,2.3,0.9c0.9,0.9,0.9,1.9,0.9,3.4C108.1,134.4,108.1,135.5,107.2,136.3z M106,130.5
			c-0.2-0.3-0.6-0.5-1.1-0.5c-0.5,0-0.8,0.2-1.1,0.5c-0.3,0.4-0.4,0.8-0.4,2.4c0,1.6,0.1,2,0.4,2.4c0.2,0.3,0.6,0.5,1.1,0.5
			c0.5,0,0.8-0.2,1.1-0.5c0.3-0.4,0.4-0.8,0.4-2.4C106.4,131.3,106.3,130.9,106,130.5z"/>
		<path class="st0" d="M114.8,137.3c-0.9,0-1.7-0.3-2.3-0.9c-0.9-0.9-0.8-1.9-0.8-3.4c0-1.5,0-2.5,0.8-3.4c0.6-0.6,1.4-0.9,2.3-0.9
			c1.6,0,2.8,0.9,3.1,2.7h-1.7c-0.2-0.7-0.6-1.2-1.4-1.2c-0.5,0-0.8,0.2-1.1,0.4c-0.3,0.4-0.4,0.8-0.4,2.4c0,1.6,0.1,2.1,0.4,2.4
			c0.2,0.3,0.6,0.4,1.1,0.4c0.8,0,1.3-0.5,1.4-1.2h1.7C117.7,136.4,116.4,137.3,114.8,137.3z"/>
		<path class="st0" d="M126.2,137.2l-1.7-3.4h-1.2v3.4h-1.7v-8.5h3.3c1.7,0,2.8,1.2,2.8,2.6c0,1.2-0.7,1.9-1.6,2.2l1.9,3.7H126.2z
			 M124.9,130.2h-1.6v2.3h1.6c0.7,0,1.2-0.5,1.2-1.1C126.1,130.6,125.6,130.2,124.9,130.2z"/>
		<path class="st0" d="M136.5,137.2l-0.5-1.5h-3l-0.5,1.5h-1.7l3.1-8.5h1.3l3.1,8.5H136.5z M134.6,131.2l-1.1,3.1h2.1L134.6,131.2z"
			/>
		<path class="st0" d="M144.1,130.2v7.1h-1.7v-7.1h-2.2v-1.5h6.1v1.5H144.1z"/>
		<path class="st0" d="M152.2,137.3c-1.3,0-2.3-0.3-3.1-1.1l1.1-1.1c0.5,0.5,1.3,0.7,2.1,0.7c1,0,1.5-0.4,1.5-1.1
			c0-0.3-0.1-0.6-0.3-0.7c-0.2-0.2-0.4-0.2-0.8-0.3l-1-0.1c-0.7-0.1-1.3-0.3-1.7-0.7c-0.4-0.4-0.6-1-0.6-1.7c0-1.5,1.1-2.6,3-2.6
			c1.2,0,2,0.3,2.8,1l-1.1,1c-0.5-0.5-1.2-0.6-1.8-0.6c-0.9,0-1.3,0.5-1.3,1.1c0,0.2,0.1,0.4,0.3,0.6c0.2,0.2,0.4,0.3,0.8,0.3l1,0.1
			c0.8,0.1,1.3,0.3,1.6,0.7c0.5,0.4,0.7,1.1,0.7,1.8C155.4,136.3,154,137.3,152.2,137.3z"/>
		<path class="st0" d="M165.8,130.2v2.1h3.4v1.5h-3.4v3.5h-1.7v-8.5h5.6v1.5H165.8z"/>
		<path class="st0" d="M178.4,136.3c-0.6,0.6-1.3,0.9-2.3,0.9c-1,0-1.7-0.3-2.3-0.9c-0.9-0.9-0.8-1.9-0.8-3.4c0-1.5,0-2.5,0.8-3.4
			c0.6-0.6,1.3-0.9,2.3-0.9c1,0,1.7,0.3,2.3,0.9c0.9,0.9,0.9,1.9,0.9,3.4C179.2,134.4,179.3,135.5,178.4,136.3z M177.2,130.5
			c-0.2-0.3-0.6-0.5-1.1-0.5s-0.8,0.2-1.1,0.5c-0.3,0.4-0.4,0.8-0.4,2.4c0,1.6,0.1,2,0.4,2.4c0.2,0.3,0.6,0.5,1.1,0.5
			s0.8-0.2,1.1-0.5c0.3-0.4,0.4-0.8,0.4-2.4C177.6,131.3,177.5,130.9,177.2,130.5z"/>
		<path class="st0" d="M187.7,137.2l-1.7-3.4h-1.2v3.4h-1.7v-8.5h3.3c1.7,0,2.8,1.2,2.8,2.6c0,1.2-0.7,1.9-1.6,2.2l1.9,3.7H187.7z
			 M186.4,130.2h-1.6v2.3h1.6c0.7,0,1.2-0.5,1.2-1.1C187.6,130.6,187.1,130.2,186.4,130.2z"/>
		<path class="st0" d="M198.2,137.2v-8.5h5.6v1.5h-4v2h3.4v1.5h-3.4v2.1h4v1.5H198.2z"/>
		<path class="st0" d="M210.7,137.3c-1.8,0-3.1-1.2-3.1-3v-5.6h1.7v5.6c0,1,0.6,1.6,1.5,1.6s1.5-0.6,1.5-1.6v-5.6h1.7v5.6
			C213.8,136.1,212.4,137.3,210.7,137.3z"/>
		<path class="st0" d="M222.4,137.2l-1.7-3.4h-1.2v3.4h-1.7v-8.5h3.3c1.7,0,2.8,1.2,2.8,2.6c0,1.2-0.7,1.9-1.6,2.2l1.9,3.7H222.4z
			 M221.1,130.2h-1.6v2.3h1.6c0.7,0,1.2-0.5,1.2-1.1C222.4,130.6,221.9,130.2,221.1,130.2z"/>
		<path class="st0" d="M233.1,136.3c-0.6,0.6-1.3,0.9-2.3,0.9c-1,0-1.7-0.3-2.3-0.9c-0.9-0.9-0.8-1.9-0.8-3.4c0-1.5,0-2.5,0.8-3.4
			c0.6-0.6,1.3-0.9,2.3-0.9c1,0,1.7,0.3,2.3,0.9c0.9,0.9,0.9,1.9,0.9,3.4C234,134.4,234,135.5,233.1,136.3z M231.9,130.5
			c-0.2-0.3-0.6-0.5-1.1-0.5c-0.5,0-0.8,0.2-1.1,0.5c-0.3,0.4-0.4,0.8-0.4,2.4c0,1.6,0.1,2,0.4,2.4c0.2,0.3,0.6,0.5,1.1,0.5
			c0.5,0,0.8-0.2,1.1-0.5c0.3-0.4,0.4-0.8,0.4-2.4C232.3,131.3,232.2,130.9,231.9,130.5z"/>
		<path class="st0" d="M241.2,134h-1.6v3.2h-1.7v-8.5h3.3c1.8,0,2.8,1.2,2.8,2.7S243,134,241.2,134z M241.1,130.2h-1.6v2.3h1.6
			c0.8,0,1.2-0.5,1.2-1.2C242.4,130.6,241.9,130.2,241.1,130.2z"/>
		<path class="st0" d="M247.6,137.2v-8.5h5.6v1.5h-4v2h3.4v1.5h-3.4v2.1h4v1.5H247.6z"/>
	</g>
	<g>
		<g>
			<defs>
				<path id="SVGID_1_" d="M298.8,125.1c-0.1-0.4-0.4-0.7-0.6-1c0,0-0.1-0.1-0.1-0.1l-8.1-8.1c-1.1-1.1-3-1.1-4.1,0
					c-1.1,1.1-1.1,3,0,4.1l6.2,6.2l-6.2,6.2c-1.1,1.1-1.1,3,0,4.1c1.1,1.1,3,1.1,4.1,0l8-8c0.1-0.1,0.2-0.1,0.3-0.2
					C299,127.4,299.2,126.2,298.8,125.1z"/>
			</defs>
			<use xlink:href="#SVGID_1_"  style="overflow:visible;fill:#324093;"/>
			<clipPath id="SVGID_2_">
				<use xlink:href="#SVGID_1_"  style="overflow:visible;"/>
			</clipPath>
		</g>
		<g>
			<defs>
				<path id="SVGID_3_" d="M310.8,125.1c-0.1-0.4-0.4-0.7-0.6-1c0,0-0.1-0.1-0.1-0.1l-8.1-8.1c-1.1-1.1-3-1.1-4.1,0
					c-1.1,1.1-1.1,3,0,4.1l6.2,6.2l-6.2,6.2c-1.1,1.1-1.1,3,0,4.1c1.1,1.1,3,1.1,4.1,0l8-8c0.1-0.1,0.2-0.1,0.3-0.2
					C311,127.4,311.2,126.2,310.8,125.1z"/>
			</defs>
			<use xlink:href="#SVGID_3_"  style="overflow:visible;fill:#E6007E;"/>
			<clipPath id="SVGID_4_">
				<use xlink:href="#SVGID_3_"  style="overflow:visible;"/>
			</clipPath>
		</g>
	</g>
</g>
<g>
	<polyline class="st1" points="130.2,101.5 155.4,101.5 155.4,5.3 130.2,5.3 130.2,101.5 	"/>
	<polyline class="st0" points="130.2,44 130.2,101.5 130.2,44 130.2,44 	"/>
	<path class="st2" d="M130.2,44v57.6h8.9c-0.2-2.8-0.3-5.6-0.3-8.3V66C138.8,55.9,135.6,48.8,130.2,44"/>
	<path class="st0" d="M251.6,35.7c-22.7,0-39.1,14-39.1,38.1c0,11.8,4.4,21.1,11.7,27.7h57.6V89.7c-7.6,4.1-15.4,5.6-22.3,5.6
		c-12.3,0-20-3.9-21.4-14h50.4v-4.6C288.4,54.9,278.6,35.7,251.6,35.7 M237.7,67c0.6-8.4,4.9-15.3,14-15.3c10.1,0,14,6.9,14,15.3
		H237.7"/>
	<path class="st3" d="M155.4,46.5c-5.8,7.1-8.8,16.7-8.8,26.1c0,11,3,21,8.8,28.2V46.5"/>
	<path class="st4" d="M212.5,75.1c0.3,11.2,4.6,20.1,11.6,26.4C217.1,95.2,212.8,86.3,212.5,75.1 M212.5,73.8
		C212.5,73.8,212.5,73.8,212.5,73.8L212.5,73.8C212.5,73.8,212.5,73.8,212.5,73.8 M212.5,73.7C212.5,73.7,212.5,73.8,212.5,73.7
		C212.5,73.8,212.5,73.7,212.5,73.7 M212.5,73.7C212.5,73.7,212.5,73.7,212.5,73.7C212.5,73.7,212.5,73.7,212.5,73.7 M212.5,73.6
		C212.5,73.6,212.5,73.6,212.5,73.6C212.5,73.6,212.5,73.6,212.5,73.6 M212.5,73.5C212.5,73.5,212.5,73.6,212.5,73.5
		C212.5,73.6,212.5,73.5,212.5,73.5 M212.5,73.5C212.5,73.5,212.5,73.5,212.5,73.5C212.5,73.5,212.5,73.5,212.5,73.5 M212.5,73.4
		C212.5,73.4,212.5,73.4,212.5,73.4C212.5,73.4,212.5,73.4,212.5,73.4 M212.5,73.3C212.5,73.3,212.5,73.3,212.5,73.3
		C212.5,73.3,212.5,73.3,212.5,73.3 M212.5,73.2C212.5,73.3,212.5,73.3,212.5,73.2C212.5,73.3,212.5,73.3,212.5,73.2 M212.5,73.2
		C212.5,73.2,212.5,73.2,212.5,73.2C212.5,73.2,212.5,73.2,212.5,73.2 M212.5,73.1C212.5,73.1,212.5,73.1,212.5,73.1
		C212.5,73.1,212.5,73.1,212.5,73.1 M212.5,73C212.5,73,212.5,73.1,212.5,73C212.5,73.1,212.5,73,212.5,73 M212.5,72.9
		C212.5,72.9,212.5,72.9,212.5,72.9C212.5,72.9,212.5,72.9,212.5,72.9"/>
	<path class="st5" d="M228.6,41.8c-9.8,6.2-15.9,16.8-16.1,31.1c0,0,0,0,0,0c0,0,0,0.1,0,0.1c0,0,0,0,0,0c0,0,0,0,0,0.1c0,0,0,0,0,0
		c0,0,0,0,0,0c0,0,0,0,0,0c0,0,0,0,0,0c0,0,0,0,0,0c0,0,0,0,0,0c0,0,0,0,0,0c0,0,0,0,0,0c0,0,0,0,0,0.1c0,0,0,0,0,0c0,0,0,0,0,0
		c0,0,0,0,0,0c0,0,0,0,0,0.1c0,0,0,0,0,0c0,0,0,0,0,0.1c0,0,0,0,0,0c0,0,0,0,0,0.1c0,0,0,0,0,0c0,0,0,0,0,0.1c0,0,0,0,0,0
		c0,0,0,0,0,0.1c0,0.4,0,0.8,0,1.2c0.3,11.2,4.6,20.1,11.6,26.4l0,0h4.5V41.8"/>
	<path class="st6" d="M203.2,5.3v41.5H203c-6.4-8.4-15-11.1-25.1-11.1c-9.6,0-17.2,4.3-22.4,10.7v54.3c0.2,0.2,0.4,0.5,0.6,0.7h68.1
		c-7.3-6.5-11.7-15.9-11.7-27.7c0-14.8,6.2-25.7,16.1-32V5.3H203.2z M188,92.8c-9.5,0-15.3-8-15.3-19.6c0-9.7,5.5-18.1,15.3-18.1
		c9.2,0,15.4,8,15.4,19.1C203.4,84.8,196.4,92.8,188,92.8z"/>
	<path class="st0" d="M130.2,44c-6.5-5.8-15.9-8.2-26.1-8.2c-10.8,0-20.2,1.5-29.1,5.2L75.4,58c7-3.9,15.1-5.5,23.3-5.5
		c9.1,0,16.5,2.7,16.7,12.6c-3.2-0.6-7.7-1-11.8-1c-13.5,0-37.7,2.7-37.7,24.9c0,5,1.3,9.1,3.5,12.4h60.9V44z M99.8,95.3
		c-5.9,0-10.4-2.9-10.4-8c0-7,6.7-9.7,15.3-9.7c3.8,0,7.4,0.3,10.7,0.4C115.3,86.6,109.3,95.3,99.8,95.3z"/>
</g>
<linearGradient id="SVGID_5_" gradientUnits="userSpaceOnUse" x1="-4.3655" y1="101.5441" x2="358.2556" y2="101.5441">
	<stop  offset="0" style="stop-color:#FFFFFF;stop-opacity:0"/>
	<stop  offset="0.1534" style="stop-color:#324093"/>
	<stop  offset="0.8405" style="stop-color:#324093"/>
	<stop  offset="0.9877" style="stop-color:#FFFFFF;stop-opacity:0"/>
</linearGradient>
<rect x="-4.4" y="100.7" class="st7" width="362.6" height="1.8"/>
</svg>
