<!-- Created with Inkscape (http://www.inkscape.org/) -->
<svg xmlns:rdf="http://www.w3.org/1999/02/22-rdf-syntax-ns#" xmlns="http://www.w3.org/2000/svg" height="152.11" width="361" version="1.1" xmlns:cc="http://creativecommons.org/ns#" xmlns:dc="http://purl.org/dc/elements/1.1/">
	<metadata>
		<rdf:RDF>
			<cc:Work rdf:about="">
				<dc:format>image/svg+xml</dc:format>
				<dc:type rdf:resource="http://purl.org/dc/dcmitype/StillImage"/>
				<dc:title/>
			</cc:Work>
		</rdf:RDF>
	</metadata>
	<g fill-rule="nonzero" transform="translate(-41.9,-239.66)">
		<path d="m282,299.91,0-0.31c0-30.89,24.9-55.94,58.1-55.94s57.8,24.75,57.8,55.64v0.3c0,30.89-24.9,55.93-58.1,55.93-10.2,0-19.6-2.32-27.7-6.47-10.5-5.39-16.6,0.59-26.6,4.32,6.9-6.9,12.1-12.52,5.4-23.23-5.5-8.81-8.9-19.06-8.9-30.24m-108.2-53.83,27.8,0,44.3,56.86,0-56.86,29.5,0,0,107.55-26.2,0-45.9-58.99,0,58.99-29.5,0,0-107.55zm-80.2-1.04,28.8,0,45.8,108.33-32,0-7.8-19.21-41.5,0-7.7,19.21-31.3,0,45.7-108.33zm26.2,65.92-12-30.57-12.2,30.57,24.2,0z" fill="#282661"/>
		<path d="m397.6,363-3.4,2.58-1.6,0,2.3-2.58,2.7,0zm-2.5,22.81-1.6,0,0-17.69,1.6,0,0,17.69zm-21.8-16.14,0,16.14-1.6,0,0-16.14-4.3,0,0-1.54,10.2,0,0,1.54-4.3,0zm-21.1-1.54,1.6,0,0,12.59c-0.2,1.39-0.8,2.56-1.8,3.53-1.1,1.15-2.5,1.72-4.1,1.72s-3-0.57-4.2-1.72c-1.1-1.15-1.7-2.53-1.7-4.15v-11.97h1.6v11.97c0,1.18,0.4,2.2,1.2,3.05,0.9,0.85,1.9,1.27,3.1,1.27s2.2-0.42,3-1.27c0.9-0.85,1.3-1.87,1.3-3.05v-11.97zm-27.4,13.79,0-13.79,1.5,0,0,18.64-10.4-14.69,0,13.73-1.6,0,0-18.56,10.5,14.67zm-35.7-4.17,0,8.06-1.5,0,0-17.68,1.5,0,0,8.07,8.2,0,0-8.07,1.5,0,0,17.68-1.5,0,0-8.06-8.2,0zm-39.6-9.62,0,1.54-7.6,0,0,6.53,7.6,0,0,1.55-7.6,0,0,6.52,7.6,0,0,1.55-9.1,0,0-17.69,9.1,0zm-1.2-5.12-3.4,2.57-1.6,0,2.2-2.57,2.8,0zm-24,5.12-4.7,6.72,7.7,10.97-1.9,0-6.7-9.67-1.6,2.22,0,7.45-1.5,0,0-17.69,1.5,0,0,7.55,5.3-7.55,1.9,0zm-22.8,14.28,1.1,1.05c-1.8,1.7-3.9,2.55-6.3,2.55-2.5,0-4.6-0.88-6.4-2.64s-2.6-3.9-2.6-6.4c0-2.49,0.8-4.62,2.6-6.4,1.8-1.77,3.9-2.66,6.4-2.66,2.4,0,4.5,0.87,6.3,2.59l-1.1,1.03c-1.6-1.36-3.3-2.03-5.2-2.03-2.1,0-3.8,0.72-5.3,2.17-1.4,1.46-2.2,3.23-2.2,5.3,0,2.06,0.8,3.84,2.2,5.3,1.5,1.46,3.2,2.19,5.3,2.19,1.9,0,3.6-0.68,5.2-2.05m-31.2,3.4,1.6,0,0-17.68-1.6,0,0,17.68zm-21.3-16.14,0,16.14-1.5,0,0-16.14-4.4,0,0-1.54,10.2,0,0,1.54-4.3,0zm-24.4,16.14,1.5,0,0-17.68-1.5,0,0,17.68zm-24.3,0,0-17.68,1.6,0,0,16.13,6.5,0,0,1.55-8.1,0zm-16.7-15.33c1.8,1.78,2.6,3.92,2.6,6.4,0,2.52-0.8,4.65-2.6,6.43-1.8,1.76-3.9,2.65-6.4,2.65s-4.7-0.89-6.4-2.65c-1.8-1.78-2.7-3.91-2.7-6.43,0-2.48,0.9-4.62,2.7-6.4,1.7-1.77,3.9-2.66,6.4-2.66s4.6,0.89,6.4,2.66m-6.4-1.1c-2.1,0-3.9,0.74-5.3,2.22-1.5,1.46-2.2,3.23-2.2,5.28,0,2.08,0.7,3.85,2.2,5.33,1.4,1.46,3.2,2.2,5.3,2.2,2,0,3.8-0.74,5.3-2.2,1.4-1.48,2.2-3.25,2.2-5.33,0-2.05-0.8-3.82-2.2-5.28-1.5-1.48-3.3-2.22-5.3-2.22m-27.7,10.5,0,5.93-1.5,0,0-17.69,4.8,0c1.3,0.19,2.5,0.76,3.5,1.73,1.1,1.15,1.7,2.52,1.7,4.15,0,1.62-0.6,3.01-1.7,4.16-1.2,1.15-2.6,1.72-4.2,1.72h-2.6zm0-10.2,0,8.64,2.6,0c1.2,0,2.2-0.42,3.1-1.26,0.8-0.85,1.2-1.86,1.2-3.06s-0.4-2.22-1.2-3.07c-0.9-0.83-1.9-1.25-3.1-1.25h-2.6z" fill="#db1f2d"/>
		<path fill="#FFF" d="m349.7,302.19,14.9,0c2.7,0,4.9,0.27,6.6,0.81,1.6,0.54,2.9,1.26,3.8,2.16,1,0.92,1.6,1.97,1.9,3.15s0.5,2.44,0.5,3.77c0,1.53-0.3,2.87-1,4.01-0.6,1.14-1.5,2.09-2.6,2.84-1.1,0.76-2.4,1.32-3.9,1.71-1.4,0.39-3,0.57-4.7,0.57h-3.5v7.17h2.8v6.1h-14.8v-6.1h2.6v-20.14h-2.6v-6.05zm12,6,0,8.04,2.1,0c1.4,0,2.5-0.33,3.3-0.99s1.2-1.61,1.2-2.84c0-1.39-0.3-2.44-1.1-3.15-0.8-0.7-1.8-1.06-3.2-1.06h-2.3zm-31.5-6,15.3,0,0,6.1-2.8,0,0,20.04,2.8,0,0,6.15-15.3,0,0-6.15,2.9,0,0-20.04-2.9,0,0-6.1zm16.1-9.29-7,6.56-5.7,0,3.6-6.56,9.1,0zm-44.3,9.29,14.6,0,0,6.1-2.4,0,0,20.04,5.9,0,0-5.87,7.8,0,0,12.02-25.9,0,0-6.15,2.5,0,0-20.04-2.5,0,0-6.1zm59-33.69,16.5,0,0,6.05-4.7,0,0-2.44-4.4,0,0,3.79,5.2,0,0,3.64-5.2,0,0,4.46,4.4,0,0-2.54,4.7,0,0,6.18-16.5,0,0-3.64,1.8,0,0-11.89-1.8,0,0-3.61zm-19.7,19.14,0-3.64,1.7,0,0-11.89-1.7,0,0-3.61,8.4,0c1.6,0,3.1,0.24,4.4,0.73,1.3,0.47,2.4,1.13,3.3,1.96,0.8,0.84,1.5,1.81,2,2.95,0.4,1.14,0.7,2.35,0.7,3.67,0,3.14-0.9,5.57-2.7,7.27-1.8,1.71-4.4,2.56-7.8,2.56h-8.3zm12.5-9.83c0-0.73-0.1-1.43-0.3-2.12-0.1-0.69-0.4-1.29-0.7-1.83-0.3-0.52-0.7-0.95-1.3-1.27-0.5-0.31-1.1-0.48-1.8-0.48h-1.1v11.89h1.1c0.7,0,1.3-0.16,1.8-0.5,0.6-0.32,1-0.76,1.3-1.32,0.3-0.55,0.6-1.22,0.7-1.97,0.2-0.73,0.3-1.55,0.3-2.4m-32.9-9.31,8.7,0,0,3.54-1.5,0,0,5.91c0,1.1,0.1,1.99,0.2,2.69,0.1,0.69,0.3,1.24,0.5,1.62,0.2,0.4,0.5,0.67,0.9,0.82,0.3,0.13,0.7,0.21,1.1,0.21s0.8-0.13,1.2-0.18c0.3-0.12,0.6-0.36,0.8-0.73,0.3-0.38,0.5-0.92,0.6-1.62,0.1-0.71,0.2-1.65,0.2-2.83v-5.82h-1.5v-3.61h8.1v3.54h-1.5v6.65c0,3.25-0.6,5.64-2,7.15-1.3,1.51-3.2,2.27-5.8,2.27-2.8-0.12-4.9-0.88-6.3-2.37-1.5-1.49-2.2-3.79-2.2-6.91v-6.77h-1.5v-3.56zm-18.6,19.14,0-3.56,1.6,0,0-12.05-1.6,0,0-3.53,10.2,0c2.3,0,4,0.4,5.1,1.21,1.1,0.82,1.6,1.98,1.6,3.47,0,0.58,0,1.1-0.1,1.52-0.1,0.43-0.2,0.81-0.4,1.15s-0.5,0.63-0.9,0.89c-0.3,0.26-0.7,0.49-1.2,0.69,0.5,0.15,0.9,0.33,1.4,0.58,0.4,0.25,0.8,0.57,1.1,0.95s0.6,0.83,0.8,1.35c0.2,0.53,0.3,1.12,0.3,1.77,0,1.93-0.6,3.35-1.8,4.23-1.1,0.89-3,1.33-5.7,1.33h-10.4zm7.3-15.53,0,4.12,1.6,0c0.8,0,1.3-0.2,1.5-0.57,0.3-0.37,0.4-0.9,0.4-1.55,0-0.63-0.2-1.13-0.5-1.47-0.3-0.35-0.8-0.53-1.3-0.53h-1.7zm2.2,11.97c0.5,0,1.1-0.2,1.5-0.62,0.5-0.41,0.7-0.98,0.7-1.73,0-0.7-0.2-1.28-0.6-1.73-0.4-0.46-0.9-0.69-1.7-0.69h-2.1v4.77h2.2z"/>
	</g>
</svg>
