<?xml version="1.0" encoding="UTF-8" standalone="no"?>
<svg xmlns="http://www.w3.org/2000/svg" xmlns:xlink="http://www.w3.org/1999/xlink" xmlns:sketch="http://www.bohemiancoding.com/sketch/ns" width="189px" height="39px" viewBox="0 0 189 39" version="1.1">
  <!-- Generator: Sketch 3.5.1 (25234) - http://www.bohemiancoding.com/sketch -->
  <title>Group 3</title>
  <desc>Created with Sketch.</desc>
  <defs>
    <linearGradient x1="100%" y1="42.2357832%" x2="0%" y2="52.1389306%" id="linearGradient-1">
      <stop stop-color="#ED1D24" offset="0%"/>
      <stop stop-color="#EC5022" offset="100%"/>
    </linearGradient>
  </defs>
  <g id="Page-1" stroke="none" stroke-width="1" fill="none" fill-rule="evenodd" sketch:type="MSPage">
    <g id="Group-3" sketch:type="MSLayerGroup">
      <path d="M18.356027,39 L35.2136077,25.9768537 L18.356027,12.9541829 L18.356027,39 Z M0,39 L16.8566427,25.9768537 L0,12.9541829 L0,39 Z" id="Fill-1" fill="url(#linearGradient-1)" sketch:type="MSShapeGroup"/>
      <path d="M66.8639323,19.2500195 C66.8639323,11.3686902 60.3080241,4.82762927 52.2190117,4.82762927 L44.7645328,4.82762927 L44.7645328,33.6728854 L52.2190117,33.6728854 C60.3080241,33.6728854 66.8639323,27.1318244 66.8639323,19.2500195 L66.8639323,19.2500195 Z M40.05923,0.162373171 L52.2190117,0.162373171 C62.8986841,0.162373171 71.569235,8.74094634 71.569235,19.2500195 C71.569235,29.7590927 62.8986841,38.3376659 52.2190117,38.3376659 L40.05923,38.3376659 L40.05923,0.162373171 Z" id="Fill-3" fill="#292F3C" sketch:type="MSShapeGroup"/>
      <path d="M76.3067568,13.7812683 L80.8530744,13.7812683 L80.8530744,38.3374756 L76.3067568,38.3374756 L76.3067568,13.7812683 Z M75.5662333,6.75746341 C75.5662333,5.09568293 76.8878263,3.75493902 78.5799156,3.75493902 C80.2190099,3.75493902 81.540603,5.09568293 81.540603,6.75746341 C81.540603,8.41971951 80.2190099,9.81373171 78.5799156,9.81373171 C76.8878263,9.81373171 75.5662333,8.41971951 75.5662333,6.75746341 L75.5662333,6.75746341 Z" id="Fill-6" fill="#292F3C" sketch:type="MSShapeGroup"/>
      <path d="M86.933528,0.162468293 L110.725017,0.162468293 L110.725017,4.77350488 L91.6918258,4.77350488 L91.6918258,13.7273341 L108.292873,13.7273341 L108.292873,18.4996024 L91.6918258,18.4996024 L91.6918258,33.6197122 L110.248531,33.6197122 L110.248531,38.337761 L86.933528,38.337761 L86.933528,0.162468293 Z" id="Fill-8" fill="#292F3C" sketch:type="MSShapeGroup"/>
      <path d="M143.979731,38.3375707 L143.979731,7.88380244 L131.978466,24.504461 L120.029726,7.88380244 L120.029726,38.3375707 L115.323954,38.3375707 L115.323954,0.162278049 L120.294232,0.162278049 L131.978466,16.4623756 L143.662699,0.162278049 L148.685034,0.162278049 L148.685034,38.3375707 L143.979731,38.3375707 Z" id="Fill-9" fill="#292F3C" sketch:type="MSShapeGroup"/>
      <path d="M155.107516,38.3370951 L155.107516,34.3096317 L165.001174,22.5749122 C165.377298,22.0194 165.583181,21.4291683 165.583181,20.8042171 C165.583181,19.1376805 164.247988,17.7141805 162.604673,17.7141805 C161.337951,17.7141805 160.208171,18.6168878 159.797343,19.8667902 L159.557693,20.5959 L155.175988,19.6584732 L155.415169,18.7557659 C156.271062,15.4921317 159.249571,13.2700829 162.604673,13.2700829 C164.624581,13.2700829 166.472841,13.9991927 167.911211,15.4226927 C169.314876,16.8461927 170.102298,18.7557659 170.102298,20.8042171 C170.102298,22.4013146 169.588762,23.9636927 168.663928,25.2830341 L168.630162,25.3177537 L161.577601,33.7541195 L170.102298,33.7541195 L170.102298,38.3370951 L155.107516,38.3370951 Z" id="Fill-10" fill="#292F3C" sketch:type="MSShapeGroup"/>
      <path d="M173.970795,36.2191573 C173.662673,35.9414012 173.319847,35.5594866 173.012195,35.1081329 L172.49819,34.3790232 L176.264589,31.6709012 L176.743889,32.3652915 C177.531311,33.4763159 178.763798,34.2059012 180.098522,34.2059012 C182.289609,34.2059012 184.172574,32.330572 184.172574,30.1784378 C184.172574,27.9216695 182.289609,25.9773768 180.098522,25.9773768 C179.482748,25.9773768 178.866036,26.1856939 178.284028,26.4981695 L177.975907,26.6370476 L173.799616,25.4565841 L176.949304,13.582511 L188.417805,13.582511 L188.417805,18.2002061 L180.509351,18.1654866 L179.619222,21.4638402 L180.098522,21.4638402 C182.426552,21.4638402 184.617639,22.3665476 186.260954,23.9636451 C187.082611,24.7621939 187.73309,25.7343402 188.178155,26.8106451 C188.588984,27.8864744 188.828634,29.0326939 188.828634,30.1784378 C188.828634,32.4347305 187.904269,34.5873402 186.260954,36.2191573 C185.439296,37.0177061 184.480696,37.6426573 183.419388,38.094011 C182.392316,38.4759256 181.262537,38.6148037 180.098522,38.6148037 C177.702021,38.6148037 175.579874,37.8509744 173.970795,36.2191573" id="Fill-11" fill="#292F3C" sketch:type="MSShapeGroup"/>
    </g>
  </g>
</svg>
