<?xml version="1.0" encoding="UTF-8" standalone="no"?>
<!-- Generator: Adobe Illustrator 16.0.0, SVG Export Plug-In . SVG Version: 6.00 Build 0)  -->

<svg
   xmlns:dc="http://purl.org/dc/elements/1.1/"
   xmlns:cc="http://creativecommons.org/ns#"
   xmlns:rdf="http://www.w3.org/1999/02/22-rdf-syntax-ns#"
   xmlns:svg="http://www.w3.org/2000/svg"
   xmlns="http://www.w3.org/2000/svg"
   xmlns:sodipodi="http://sodipodi.sourceforge.net/DTD/sodipodi-0.dtd"
   xmlns:inkscape="http://www.inkscape.org/namespaces/inkscape"
   version="1.1"
   id="Laag_1"
   x="0px"
   y="0px"
   width="300"
   height="258.49185"
   viewBox="0 0 300.00001 258.49186"
   enable-background="new 0 0 1296 1296"
   xml:space="preserve"
   inkscape:version="0.48.2 r9819"
   sodipodi:docname="European Democratic Party Logo.svg"><metadata
   id="metadata3061"><rdf:RDF><cc:Work
       rdf:about=""><dc:format>image/svg+xml</dc:format><dc:type
         rdf:resource="http://purl.org/dc/dcmitype/StillImage" /><dc:title></dc:title></cc:Work></rdf:RDF></metadata><defs
   id="defs3059"><clipPath
   clipPathUnits="userSpaceOnUse"
   id="clipPath5291"><path
     inkscape:connector-curvature="0"
     d="m 273.916,38.9191 0,53.823 111.596,0 0,-53.823"
     id="path5293" /></clipPath><clipPath
   clipPathUnits="userSpaceOnUse"
   id="clipPath12438"><path
     inkscape:connector-curvature="0"
     d="m 36,639.4388 525.757,0 0,155.241 -525.757,0 0,-155.241 z"
     id="path12440" /></clipPath><clipPath
   clipPathUnits="userSpaceOnUse"
   id="clipPath12446"><path
     inkscape:connector-curvature="0"
     d="m -467.974,251.4368 1027.5037,0 0,529.4855 -1027.5037,0 0,-529.4855 z"
     id="path12448" /></clipPath>
</defs><sodipodi:namedview
   pagecolor="#ffffff"
   bordercolor="#666666"
   borderopacity="1"
   objecttolerance="10"
   gridtolerance="10"
   guidetolerance="10"
   inkscape:pageopacity="0"
   inkscape:pageshadow="2"
   inkscape:window-width="1240"
   inkscape:window-height="785"
   id="namedview3057"
   showgrid="false"
   fit-margin-top="5"
   fit-margin-left="5"
   fit-margin-right="5"
   fit-margin-bottom="5"
   inkscape:zoom="1"
   inkscape:cx="88.297508"
   inkscape:cy="160.81688"
   inkscape:window-x="33"
   inkscape:window-y="22"
   inkscape:window-maximized="0"
   inkscape:current-layer="g5287" />















<g
   transform="matrix(1.25,0,0,-1.25,-292.68739,204.26827)"
   id="g5287"><g
     id="g3549"><path
       id="path34"
       style="fill:#004aa8;fill-opacity:1;fill-rule:nonzero;stroke:none"
       d="m 283.84903,-19.060728 -4.22114,-7.292195 5.72124,-2.041813 -8.32976,-2.462677 -4.22114,-7.288024 -0.92923,5.762914 -8.32976,-2.462677 7.75472,6.0296 -0.9334,5.758747 5.72958,-2.033479 7.75889,6.029604"
       inkscape:connector-curvature="0" /><path
       id="path36"
       style="fill:#004a98;fill-opacity:1;fill-rule:nonzero;stroke:none"
       d="m 258.4597,5.1660163 -4.22113,-7.2921939 5.72124,-2.0376463 -8.33393,-2.4668444 -4.21698,-7.2838567 -0.92089,5.762914 -8.3381,-2.466843 7.75889,6.025432 -0.9334,5.767082 5.72541,-2.03764626 7.75889,6.02960256"
       inkscape:connector-curvature="0" /><path
       id="path38"
       style="fill:#004aa8;fill-opacity:1;fill-rule:nonzero;stroke:none"
       d="m 260.38067,45.339735 -4.2128,-7.292195 5.72958,-2.037646 -8.32977,-2.46268 -4.22946,-7.288019 -0.92924,5.762919 -8.32977,-2.466847 7.75889,6.033769 -0.92922,5.758743 5.72123,-2.037647 7.75056,6.029603"
       inkscape:connector-curvature="0" /><path
       id="path40"
       style="fill:#004a99;fill-opacity:1;fill-rule:nonzero;stroke:none"
       d="m 329.92317,-20.298321 -7.76305,-6.025433 -5.72125,2.037646 0.92924,-5.767081 -7.75889,-6.025433 8.33809,2.466844 0.9209,-5.767081 4.22113,7.288024 8.33394,2.466843 -5.72958,2.041814 4.22947,7.283857"
       inkscape:connector-curvature="0" /><path
       id="path42"
       style="fill:#004a99;fill-opacity:1;fill-rule:nonzero;stroke:none"
       d="m 352.94565,90.497142 c 3.01273,8.279764 -1.27092,15.017748 -9.55485,15.017748 0,0 -7.43386,0 -13.51347,0 -2.65436,-7.279684 -8.28392,-22.755798 -10.93412,-30.035494 6.08378,0 13.51765,0 13.51765,0 8.28392,0 17.47208,6.737986 20.48479,15.017746 z m -44.7157,-26.826923 c -3.47526,0 -5.27122,2.646018 -4.00446,5.90876 l 15.96365,43.861491 c 0.85006,2.32932 3.06689,3.88361 5.5504,3.88361 l 19.80559,0 c 7.42553,0 13.57597,-2.94605 17.32207,-8.29227 3.92945,-5.6129 4.5795,-13.242619 1.7793,-20.934843 -5.14204,-14.12184 -20.05978,-24.426748 -34.3233,-24.426748 l -22.09325,0 z m -37.27352,41.844671 c -1.39593,-3.8336 -2.88354,-7.91723 -5.75458,-15.809467 7.35887,0 22.13076,0 22.13076,0 4.35865,0 9.19233,3.546081 10.77994,7.904736 1.58762,4.358641 -0.66671,7.904731 -5.02536,7.904731 0,0 -14.77189,0 -22.13076,0 z m -9.68403,7.92558 c 0.8459,2.32932 3.06272,3.88361 5.54623,3.88361 l 28.54789,0 c 5.49206,0 10.25491,-2.30851 13.07177,-6.32963 1.77513,-2.52935 2.67519,-5.57539 2.67519,-8.8298 0,-2.212654 -0.41669,-4.52116 -1.25842,-6.825494 -3.66276,-10.063222 -14.52188,-17.942957 -24.72261,-17.942957 0,0 -18.36381,0 -24.41008,0 l -2.82104,-7.81722 c -1.26676,-3.262742 -5.11287,-5.90876 -8.59229,-5.90876 -3.47524,0 -5.26704,2.646018 -4.00029,5.90876 l 15.96365,43.861491 z m 164.12014,3.89611 c 3.26273,0 4.94618,-2.64603 3.7586,-5.90876 -1.19176,-3.26273 -4.79619,-5.9046 -8.05892,-5.9046 l -33.69825,-0.009 c -0.69172,-1.90847 -1.8168,-5.00035 -3.31274,-9.10065 l 33.69825,0 c 3.26274,0 4.9462,-2.641854 3.75861,-5.904596 -1.18759,-3.262732 -4.79618,-5.904583 -8.05892,-5.904583 l -33.69408,-0.0039 c -1.25843,-3.458588 -2.32517,-6.387965 -3.31274,-9.10483 l 33.69408,0 c 3.26275,0 4.9462,-2.646018 3.75861,-5.90875 -1.18758,-3.258576 -4.79618,-5.904594 -8.05474,-5.904594 l -40.11955,-0.01247 c -3.47525,0 -5.27121,2.646018 -4.00446,5.90876 l 15.96364,43.861653 c 0.85007,2.32933 3.0669,3.88361 5.55041,3.88361 l 42.1322,0.0125"
       inkscape:connector-curvature="0" /><path
       id="path44"
       style="fill:#004a99;fill-opacity:1;fill-rule:nonzero;stroke:none"
       d="m 268.65627,129.83332 2.80853,0 c 1.26676,0 2.296,0.46671 2.81271,1.87931 0.4792,1.3251 -0.26669,1.74596 -1.43344,1.74596 l -2.86687,0 -1.32093,-3.62527 z m -2.04598,-5.61706 -1.4126,0 3.80444,10.45491 4.70451,0 c 1.93763,0 2.64601,-1.25425 2.0293,-2.94187 -0.5292,-1.45844 -1.95847,-3.1044 -4.22947,-3.1044 l -3.2919,0 -1.60428,-4.40864"
       inkscape:connector-curvature="0" /><path
       id="path46"
       style="fill:#004a99;fill-opacity:1;fill-rule:nonzero;stroke:none"
       d="m 279.85291,128.09987 c -0.26252,-0.15834 -0.62505,-0.27502 -2.28767,-0.4792 -0.65838,-0.0875 -1.72929,-0.27502 -2.07931,-1.23759 -0.30419,-0.82923 -0.0625,-1.3251 0.90006,-1.3251 1.19175,0 2.63769,0.77089 3.00855,1.7918 l 0.45837,1.25009 z m -4.1753,1.4126 c 0.72088,1.82097 2.18765,2.53352 4.06695,2.53352 0.61255,0 2.76271,-0.17085 2.05016,-2.12515 l -1.59595,-4.37949 c -0.11668,-0.32085 0,-0.45419 0.25835,-0.45419 0.11667,0 0.28752,0.0292 0.44587,0.0583 l -0.3417,-0.92924 c -0.23751,-0.0583 -0.45837,-0.14584 -0.75006,-0.14584 -1.13757,0 -1.10007,0.5792 -0.92923,1.16258 -0.69171,-0.53754 -1.72095,-1.23759 -3.20439,-1.23759 -1.39593,0 -2.06265,0.88757 -1.58761,2.20016 0.23334,0.64171 0.96256,2.12516 3.18356,2.38767 l 2.20848,0.26252 c 0.31669,0.0292 0.7209,0.14584 0.99591,0.90423 0.29169,0.80006 -0.12917,1.23342 -1.33759,1.23342 -1.45844,0 -1.98348,-0.88757 -2.2835,-1.47094 l -1.17925,0"
       inkscape:connector-curvature="0" /><path
       id="path48"
       style="fill:#004a99;fill-opacity:1;fill-rule:nonzero;stroke:none"
       d="m 283.11147,124.21626 -1.28342,0 2.7752,7.61305 1.20842,0 -0.46254,-1.26676 0.0292,0 c 0.83323,0.88756 1.7208,1.48344 2.6792,1.48344 0.1625,0 0.22917,-0.0125 0.32085,-0.0417 l -0.48337,-1.32508 -0.47919,0 c -1.19593,0 -2.29184,-0.92924 -2.69187,-2.03765 l -1.61261,-4.42532"
       inkscape:connector-curvature="0" /><path
       id="path50"
       style="fill:#004a99;fill-opacity:1;fill-rule:nonzero;stroke:none"
       d="m 290.80786,130.76673 -1.80013,-4.95036 c -0.21668,-0.59587 0.29169,-0.59587 0.55421,-0.59587 l 0.45003,0 -0.36669,-1.00424 c -0.47921,-0.0458 -0.86674,-0.10418 -0.99591,-0.10418 -1.26676,0 -1.28759,0.71256 -0.95007,1.63345 l 1.82513,5.0212 -1.0334,0 0.38753,1.06258 1.0334,0 0.77505,2.12515 1.28344,0 -0.77507,-2.12515 1.22093,0 -0.38337,-1.06258 -1.22508,0"
       inkscape:connector-curvature="0" /><path
       id="path52"
       style="fill:#004a99;fill-opacity:1;fill-rule:nonzero;stroke:none"
       d="m 293.97059,133.21273 0.5292,1.45844 1.28342,0 -0.53336,-1.45844 -1.27926,0 z m -1.99598,-8.99647 -1.27926,0 2.77103,7.61305 1.28343,0 -2.7752,-7.61305"
       inkscape:connector-curvature="0" /><path
       id="path54"
       style="fill:#004a99;fill-opacity:1;fill-rule:nonzero;stroke:none"
       d="m 300.43772,126.02055 2.12515,0 c 1.7793,0 3.02521,1.7918 3.65026,3.50859 1.12509,3.08772 -0.25418,3.33357 -1.18758,3.33357 l -2.09598,0 -2.49185,-6.84216 z m 1.0084,8.65062 4.617,0 c 3.52109,0 3.15857,-3.00021 2.43768,-4.97952 -0.81673,-2.24599 -2.88354,-5.47539 -6.33379,-5.47539 l -4.52532,0 3.80443,10.45491"
       inkscape:connector-curvature="0" /><path
       id="path56"
       style="fill:#004a99;fill-opacity:1;fill-rule:nonzero;stroke:none"
       d="m 314.68874,133.00855 -1.47094,0 2.14182,2.12516 2.24183,0 -2.91271,-2.12516 z m -0.59171,-4.15029 c 0.33752,1.25426 -0.32502,1.63345 -0.97923,1.63345 -0.96257,0 -1.69596,-0.61255 -2.1835,-1.63345 l 3.16273,0 z m 1.14592,-2.371 c -1.22092,-1.86681 -2.98355,-2.47518 -4.30865,-2.47518 -2.18348,0 -3.47941,1.0459 -2.31683,4.2378 0.33752,0.92923 1.74596,3.91695 5.13788,3.91695 1.52927,0 3.37524,-0.72923 2.08765,-4.26697 l -0.13335,-0.3667 -5.31288,0 c -0.15418,-0.57921 -0.5167,-1.8918 1.12925,-1.8918 0.56671,0 1.25841,0.29169 1.61678,0.8459 l 2.10015,0"
       inkscape:connector-curvature="0" /><path
       id="path58"
       style="fill:#004a99;fill-opacity:1;fill-rule:nonzero;stroke:none"
       d="m 326.7021,124.21626 -2.03764,0 1.71262,4.70034 c 0.4167,1.15008 0.0458,1.52927 -0.55004,1.52927 -1.01674,0 -1.62511,-0.66672 -1.96263,-1.58761 l -1.6918,-4.642 -2.03348,0 1.69596,4.65866 c 0.23751,0.65422 0.57088,1.57095 -0.65422,1.57095 -0.9584,0 -1.50843,-0.66672 -1.81679,-1.51261 l -1.71679,-4.717 -2.03765,0 2.81687,7.74639 1.95431,0 -0.4167,-1.13758 0.0292,0 c 0.45003,0.50837 1.32092,1.34176 2.68769,1.34176 1.12092,0 1.48344,-0.40836 1.70429,-1.24176 0.40003,0.37919 1.27926,1.24176 2.52101,1.24176 1.51261,0 2.36685,-0.89173 1.74597,-2.59186 l -1.95015,-5.35871"
       inkscape:connector-curvature="0" /><path
       id="path60"
       style="fill:#004a99;fill-opacity:1;fill-rule:nonzero;stroke:none"
       d="m 334.11514,130.44587 c -1.57511,0 -2.36268,-1.36677 -2.72519,-2.3585 -0.35837,-0.99174 -0.56671,-2.3585 1.00424,-2.3585 1.5751,0 2.36266,1.36676 2.72518,2.3585 0.35837,0.99173 0.56671,2.3585 -1.00423,2.3585 z m -2.346,-6.43379 c -2.07932,0 -3.49192,1.27926 -2.47518,4.07529 1.01674,2.79604 3.36274,4.07946 5.44622,4.07946 2.07932,0 3.49192,-1.28342 2.47518,-4.07946 -1.01674,-2.79603 -3.36274,-4.07529 -5.44622,-4.07529"
       inkscape:connector-curvature="0" /><path
       id="path62"
       style="fill:#004a99;fill-opacity:1;fill-rule:nonzero;stroke:none"
       d="m 344.69507,127.04146 c -0.36253,-0.80422 -1.80013,-3.02938 -4.63784,-3.02938 -2.91271,0 -2.77103,2.22516 -2.17932,3.8586 0.91256,2.50436 2.65435,4.29615 5.27538,4.29615 1.22509,0 3.03355,-0.55421 2.34183,-2.97105 l -2.06681,0 c 0.0958,0.50837 0.0667,1.30843 -0.90006,1.25009 -1.27926,0 -2.08349,-1.27926 -2.43351,-2.24182 -0.30419,-0.8459 -0.88756,-2.52102 0.65838,-2.52102 1.0334,0 1.74179,0.99174 1.87513,1.35843 l 2.06682,0"
       inkscape:connector-curvature="0" /><path
       id="path64"
       style="fill:#004a99;fill-opacity:1;fill-rule:nonzero;stroke:none"
       d="m 347.66611,131.96265 1.95014,0 -0.48754,-1.34176 0.0292,0 c 0.70838,0.78755 1.4501,1.54594 2.68769,1.54594 0.13334,0 0.25835,-0.0166 0.38336,-0.0292 l -0.75006,-2.07098 c -0.16667,0.0292 -0.38336,0.0292 -0.57486,0.0292 -1.58762,0 -2.23767,-0.98756 -2.55019,-1.84596 l -1.46678,-4.03362 -2.03765,0 2.81688,7.74639"
       inkscape:connector-curvature="0" /><path
       id="path66"
       style="fill:#004a99;fill-opacity:1;fill-rule:nonzero;stroke:none"
       d="m 355.94588,127.98736 c -0.26253,-0.16251 -0.64589,-0.29168 -1.53345,-0.42503 -0.80839,-0.12917 -1.50011,-0.32085 -1.80846,-1.16259 -0.26252,-0.71671 0.21251,-0.93339 0.60421,-0.93339 0.90423,0 2.03347,0.58337 2.37934,1.52928 l 0.35836,0.99173 z m 1.17508,-2.25849 c -0.33336,-0.91674 -0.20418,-1.12092 0.0125,-1.20842 l -0.11251,-0.30419 -2.20015,0 c 0.0166,0.36253 0.0292,0.4792 0.14584,0.91673 -0.64172,-0.48337 -1.52928,-1.12091 -2.91272,-1.12091 -1.16674,0 -2.12098,0.65421 -1.5376,2.25432 0.55004,1.51678 1.79179,2.28767 3.15856,2.47518 l 1.9333,0.27919 c 0.33753,0.0417 0.77922,0.17501 0.93757,0.61254 0.31253,0.8584 -0.48753,0.90007 -1.01257,0.90007 -1.01674,0 -1.42093,-0.62505 -1.64179,-1.07508 l -1.96681,0 c 1.09591,2.37101 2.86271,2.70853 4.45033,2.70853 1.09174,0 2.96688,-0.33752 2.271,-2.24599 l -1.52511,-4.19197"
       inkscape:connector-curvature="0" /><path
       id="path68"
       style="fill:#004a99;fill-opacity:1;fill-rule:nonzero;stroke:none"
       d="m 363.26307,131.96265 1.26675,0 -0.53337,-1.45844 -1.26676,0 -1.52927,-4.20863 c -0.16668,-0.45004 -0.21251,-0.62505 0.61671,-0.62505 0.12918,0 0.28335,0.0125 0.43337,0.0292 l -0.56254,-1.54177 c -0.32503,-0.0166 -0.65005,-0.0292 -0.9709,-0.0292 l -0.26253,0 c -1.76262,0 -1.83763,0.67088 -1.47511,1.67512 l 1.71263,4.70034 -1.04591,0 0.5292,1.45844 1.05008,0 0.76255,2.09598 2.03765,0 -0.76255,-2.09598"
       inkscape:connector-curvature="0" /><path
       id="path70"
       style="fill:#004a99;fill-opacity:1;fill-rule:nonzero;stroke:none"
       d="m 369.10932,128.85826 c 0.33753,1.25426 -0.32503,1.63345 -0.97924,1.63345 -0.96256,0 -1.69596,-0.61255 -2.18348,-1.63345 l 3.16272,0 z m 1.14591,-2.371 c -1.21675,-1.86681 -2.98355,-2.47518 -4.30863,-2.47518 -2.1835,0 -3.47942,1.0459 -2.31684,4.2378 0.33753,0.92923 1.74596,3.91695 5.13787,3.91695 1.52928,0 3.37524,-0.72923 2.08765,-4.26697 l -0.13334,-0.3667 -5.31289,0 c -0.15417,-0.57921 -0.5167,-1.8918 1.12925,-1.8918 0.56671,0 1.25843,0.29169 1.61678,0.8459 l 2.10015,0"
       inkscape:connector-curvature="0" /><path
       id="path72"
       style="fill:#004a99;fill-opacity:1;fill-rule:nonzero;stroke:none"
       d="m 382.47278,124.21626 -7.71722,0 3.80444,10.45491 7.61721,0 -0.4542,-1.25425 -6.20461,0 -1.16674,-3.2044 5.72123,0 -0.4542,-1.25008 -5.72124,0 -1.27093,-3.49609 6.30462,0 -0.45836,-1.25009"
       inkscape:connector-curvature="0" /><path
       id="path74"
       style="fill:#004a99;fill-opacity:1;fill-rule:nonzero;stroke:none"
       d="m 388.89407,124.21626 0.40421,1.10424 -0.0166,0.0292 c -0.86256,-0.8874 -1.68762,-1.35409 -2.91271,-1.35409 -1.12091,0 -2.27933,0.53753 -1.61678,2.3585 l 1.99181,5.47539 1.28343,0 -1.8418,-5.05453 c -0.45421,-1.25009 0.0333,-1.67096 0.86256,-1.67096 1.61678,0 2.61685,1.42511 3.02105,2.53352 l 1.52511,4.19197 1.28343,0 -2.77521,-7.61305 -1.20842,0"
       inkscape:connector-curvature="0" /><path
       id="path76"
       style="fill:#2151a8;fill-opacity:1;fill-rule:nonzero;stroke:none"
       d="m 393.24856,124.21626 -1.27927,0 2.77104,7.61305 1.20842,0 -0.46253,-1.26676 0.0292,0 c 0.83339,0.88756 1.72096,1.48344 2.68353,1.48344 0.15835,0 0.22502,-0.0125 0.31669,-0.0417 l -0.48337,-1.32508 -0.4792,0 c -1.19158,0 -2.28749,-0.92924 -2.6917,-2.03765 l -1.61261,-4.42532"
       inkscape:connector-curvature="0" /><path
       id="path78"
       style="fill:#004a99;fill-opacity:1;fill-rule:nonzero;stroke:none"
       d="m 399.84069,125.11632 c 1.83347,0 2.90022,1.89597 3.27108,2.91271 0.37085,1.02091 0.68337,2.91271 -1.15426,2.91271 -1.83346,0 -2.9002,-1.8918 -3.27106,-2.91271 -0.37087,-1.01674 -0.68339,-2.91271 1.15424,-2.91271 z m 2.52102,6.92967 c 2.43351,0 2.79187,-2.05015 2.07515,-4.01696 -0.71672,-1.96681 -2.56685,-4.01695 -5.00036,-4.01695 -2.4335,0 -2.79187,2.05014 -2.07515,4.01695 0.71255,1.96681 2.56686,4.01696 5.00036,4.01696"
       inkscape:connector-curvature="0" /><path
       id="path80"
       style="fill:#004a99;fill-opacity:1;fill-rule:nonzero;stroke:none"
       d="m 407.7996,125.10382 c 1.39593,0 2.51268,1.26676 3.12522,2.94188 0.3542,0.97507 0.93757,2.8502 -1.0459,2.8502 -1.85013,0 -2.77937,-1.9918 -3.2294,-3.2294 -0.73755,-2.02514 0.33335,-2.56268 1.15008,-2.56268 z m -0.85839,6.72549 1.20842,0 -0.39169,-1.07508 0.0292,0 c 0.4667,0.43337 1.36259,1.29176 2.74603,1.29176 2.02098,0 2.57102,-1.65846 1.78763,-3.79611 -0.66255,-1.82096 -2.30433,-4.25447 -4.89619,-4.25447 -1.01674,0 -1.5126,0.4792 -1.65429,1.02091 l -0.025,0 -1.39177,-3.81697 -1.27926,0 3.86695,10.62996"
       inkscape:connector-curvature="0" /><path
       id="path82"
       style="fill:#004a99;fill-opacity:1;fill-rule:nonzero;stroke:none"
       d="m 418.71705,132.85021 -0.97924,0 2.04598,2.05432 1.57095,0 -2.63769,-2.05432 z m 0.26669,-4.22531 c 0.35836,1.17926 0.25835,2.271 -1.3001,2.271 -1.17925,0 -2.50851,-1.09174 -2.93771,-2.271 l 4.23781,0 z m 0.48754,-2.02097 c -0.17918,-0.36669 -0.92091,-1.44177 -2.11266,-2.08348 -0.43754,-0.23336 -1.03757,-0.52504 -2.25849,-0.52504 -2.14183,0 -2.82104,1.61678 -2.02098,3.81694 0.8584,2.35851 2.67935,4.23364 5.20037,4.23364 2.19599,0 2.63769,-1.74596 1.65845,-4.43783 l -5.5629,0 c -0.57504,-1.58761 -0.17084,-2.50434 1.30426,-2.50434 1.20842,0 2.25849,0.92924 2.50851,1.50011 l 1.28344,0"
       inkscape:connector-curvature="0" /><path
       id="path84"
       style="fill:#004a99;fill-opacity:1;fill-rule:nonzero;stroke:none"
       d="m 426.8468,128.6249 c 0.35419,1.17926 0.25835,2.271 -1.30009,2.271 -1.17926,0 -2.50851,-1.09174 -2.93771,-2.271 l 4.2378,0 z m 0.48754,-2.02097 c -0.17502,-0.36669 -0.9209,-1.44177 -2.11265,-2.08348 -0.43337,-0.23336 -1.03341,-0.52504 -2.2585,-0.52504 -2.14182,0 -2.82104,1.61678 -2.02098,3.81694 0.86256,2.35851 2.67936,4.23364 5.20037,4.23364 2.196,0 2.6377,-1.74596 1.65845,-4.43783 l -5.56289,0 c -0.57504,-1.58761 -0.17085,-2.50434 1.30425,-2.50434 1.20842,0 2.2585,0.92924 2.50852,1.50011 l 1.28343,0"
       inkscape:connector-curvature="0" /><path
       id="path86"
       style="fill:#004a99;fill-opacity:1;fill-rule:nonzero;stroke:none"
       d="m 434.06399,124.21626 -1.27926,0 1.70428,4.68784 c 0.48338,1.32509 0.35003,1.9918 -0.90423,1.9918 -0.72921,0 -2.17932,-0.46253 -2.93354,-2.52935 l -1.50844,-4.15029 -1.28343,0 2.77521,7.61305 1.20842,0 -0.3917,-1.07508 0.0292,0 c 0.42103,0.40836 1.4586,1.29176 2.7712,1.29176 1.17924,0 2.49184,-0.4792 1.70012,-2.6502 l -1.88764,-5.17953"
       inkscape:connector-curvature="0" /><path
       id="path88"
       style="fill:#f58113;fill-opacity:1;fill-rule:nonzero;stroke:none"
       d="m 443.26048,158.18537 -4.22113,-7.28803 5.72541,-2.03765 -8.32977,-2.47101 -4.2253,-7.28802 -0.92924,5.76708 -8.33393,-2.46684 7.75889,6.02959 -0.92923,5.76709 5.72541,-2.03765 7.75889,6.02544"
       inkscape:connector-curvature="0" /><path
       id="path90"
       style="fill:#f58113;fill-opacity:1;fill-rule:nonzero;stroke:none"
       d="m 397.19051,159.41462 -4.22114,-7.2922 5.72124,-2.03764 -8.33393,-2.46684 -4.22113,-7.28803 -0.92091,5.77125 -8.3381,-2.47101 7.75889,6.0296 -0.92922,5.76291 5.72541,-2.04181 7.75889,6.03377"
       inkscape:connector-curvature="0" /><path
       id="path92"
       style="fill:#f58113;fill-opacity:1;fill-rule:nonzero;stroke:none"
       d="m 468.65397,133.95029 -7.76306,-6.02544 -5.72541,2.03765 0.9334,-5.76707 -7.75889,-6.02546 8.3381,2.46685 0.91673,-5.76709 4.22114,7.28805 8.33394,2.46684 -5.72542,2.03764 4.22947,7.28803"
       inkscape:connector-curvature="0" /><path
       id="path94"
       style="fill:#f58113;fill-opacity:1;fill-rule:nonzero;stroke:none"
       d="m 466.72467,93.780716 -7.76306,-6.025437 -5.72541,2.037647 0.92924,-5.767075 -7.75473,-6.029603 8.33393,2.471013 0.92923,-5.767085 4.22114,7.283852 8.32559,2.471013 -5.72124,2.037646 4.22531,7.288029"
       inkscape:connector-curvature="0" /><path
       id="path96"
       style="fill:#f58113;fill-opacity:1;fill-rule:nonzero;stroke:none"
       d="m 389.03158,31.601246 c 3.01272,8.275595 -1.27509,15.01358 -9.55485,15.01358 0,0 -7.43804,0 -13.51764,0 -2.65019,-7.279696 -8.28392,-22.75164 -10.93412,-30.031326 6.08378,0 13.51764,0 13.51764,0 8.28394,0 17.47209,6.737985 20.48897,15.017746 z M 344.31587,4.7743133 c -3.47942,0 -5.27121,2.6460277 -4.00445,5.9045927 l 15.96365,43.861485 c 0.85005,2.333504 3.06688,3.887779 5.54623,3.887779 l 19.80559,0 c 7.42553,0 13.57597,-2.946043 17.32207,-8.296427 3.92945,-5.612901 4.5795,-13.238451 1.7793,-20.930672 C 395.58622,15.075055 380.66848,4.7743133 366.40496,4.7743133 l -22.08909,0 z M 423.4799,46.614826 c -1.39594,-3.82944 -2.88355,-7.913075 -5.75459,-15.805309 7.35887,0 22.13076,0 22.13076,0 4.35864,0 9.19233,3.546091 10.77994,7.904743 1.58761,4.354475 -0.66671,7.900566 -5.02536,7.900566 0,0 -14.7719,0 -22.13075,0 z m -9.68404,7.925565 c 0.8459,2.333504 3.0669,3.887779 5.54624,3.887779 l 28.54788,0 c 5.49206,0 10.25907,-2.308497 13.07594,-6.329618 1.77096,-2.529351 2.67102,-5.575404 2.67102,-8.83397 0,-2.208495 -0.41669,-4.516992 -1.25425,-6.825488 -3.66277,-10.059056 -14.52605,-17.942957 -24.72678,-17.942957 0,0 -18.36381,0 -24.41008,0 l -2.82105,-7.817231 c -1.26674,-3.258565 -5.11286,-5.9045927 -8.59228,-5.9045927 -3.47524,0 -5.26704,2.6460277 -4.00028,5.9045927 l 15.96364,43.861485 z m -67.36317,3.896111 c 3.26273,0 4.94619,-2.646018 3.7586,-5.90875 -1.18759,-3.258575 -4.79201,-5.904593 -8.05474,-5.904593 l -33.69826,-0.0087 c -0.69588,-1.908471 -1.82096,-5.000364 -3.31274,-9.100654 l 33.6941,0.0039 c 3.26273,0 4.94618,-2.646027 3.7586,-5.908759 -1.18759,-3.262896 -4.79202,-5.904758 -8.05475,-5.904758 l -33.69825,0 c -1.25843,-3.458578 -2.321,-6.387955 -3.31274,-9.10482 l 33.69825,0 c 3.25857,0 4.94203,-2.646028 3.75444,-5.90876 -1.18759,-3.2627317 -4.79201,-5.904593 -8.05475,-5.904593 l -40.11538,-0.01247 c -3.47941,0 -5.27121,2.6460276 -4.00446,5.904593 l 15.96365,43.861649 c 0.85006,2.333504 3.06689,3.887779 5.5504,3.887779 l 42.12803,0.0087"
       inkscape:connector-curvature="0" /><path
       id="path98"
       style="fill:#f58113;fill-opacity:1;fill-rule:nonzero;stroke:none"
       d="m 281.81555,-13.264478 -7.71722,0 3.80444,10.4590846 7.61721,0 -0.45837,-1.2542567 -6.20044,0 -1.16675,-3.2043975 5.72124,0 -0.4542,-1.2500895 -5.72124,0 -1.27509,-3.4960839 6.30878,0 -0.45836,-1.254257"
       inkscape:connector-curvature="0" /><path
       id="path100"
       style="fill:#f58113;fill-opacity:1;fill-rule:nonzero;stroke:none"
       d="m 287.96183,-13.264478 0.40002,1.108413 -0.0166,0.02916 c -0.86257,-0.887397 -1.68763,-1.354098 -2.90855,-1.354098 -1.12508,0 -2.2835,0.537539 -1.62095,2.358503 l 1.99598,5.4753936 1.27926,0 -1.83764,-5.0545296 c -0.45836,-1.250091 0.0292,-1.670954 0.86257,-1.670954 1.61678,0 2.61269,1.425102 3.01688,2.5335153 l 1.52511,4.1919683 1.28342,0 -2.77102,-7.6172146 -1.20842,0"
       inkscape:connector-curvature="0" /><path
       id="path102"
       style="fill:#f58113;fill-opacity:1;fill-rule:nonzero;stroke:none"
       d="m 292.03712,-13.264478 -1.27927,0 2.77104,7.6172132 1.20842,0 -0.46253,-1.270924 0.0292,0 c 0.83339,0.8917307 1.72096,1.4876072 2.68353,1.4876072 0.15835,0 0.22502,-0.012499 0.31669,-0.041673 l -0.4832,-1.3250951 -0.47921,0 c -1.19591,0 -2.29183,-0.9334007 -2.69185,-2.0376463 l -1.61262,-4.429485"
       inkscape:connector-curvature="0" /><path
       id="path104"
       style="fill:#f58113;fill-opacity:1;fill-rule:nonzero;stroke:none"
       d="m 298.35007,-12.360247 c 1.83763,0 2.90437,1.891803 3.27523,2.9127092 0.37086,1.01674 0.67922,2.9127097 -1.15425,2.9127097 -1.83346,0 -2.90437,-1.8959697 -3.27523,-2.9127097 -0.37086,-1.0209062 -0.67922,-2.9127092 1.15425,-2.9127092 z m 2.52518,6.9296654 c 2.42935,0 2.79187,-2.0501482 2.07515,-4.0169562 -0.71672,-1.9668082 -2.57101,-4.0211222 -5.00036,-4.0211222 -2.43351,0 -2.79186,2.054314 -2.07931,4.0211222 0.71671,1.966808 2.57101,4.0169562 5.00452,4.0169562"
       inkscape:connector-curvature="0" /><path
       id="path106"
       style="fill:#f58113;fill-opacity:1;fill-rule:nonzero;stroke:none"
       d="m 306.03395,-12.372748 c 1.4001,0 2.51269,1.266758 3.12523,2.9377111 0.35419,0.9792372 0.93756,2.8585396 -1.04591,2.8585396 -1.85013,0 -2.77937,-2.0001444 -3.2294,-3.237733 -0.73755,-2.0209787 0.33336,-2.5585177 1.15008,-2.5585177 z m -0.85839,6.7254832 1.20842,0 -0.39169,-1.0792437 0.0292,0 c 0.46687,0.4375317 1.3586,1.2959269 2.74204,1.2959269 2.02513,0 2.57101,-1.658453 1.79179,-3.8002731 -0.66255,-1.8167983 -2.30433,-4.2503053 -4.89618,-4.2503053 -1.01674,0 -1.51262,0.4792 -1.65012,1.020906 l -0.0292,0 -1.39176,-3.81694 -1.27926,0 3.86694,10.6299292"
       inkscape:connector-curvature="0" /><path
       id="path108"
       style="fill:#f58113;fill-opacity:1;fill-rule:nonzero;stroke:none"
       d="m 316.94307,-8.8516613 c 0.35419,1.1792511 0.25835,2.275164 -1.3001,2.275164 -1.17924,0 -2.50851,-1.0959129 -2.93771,-2.275164 l 4.23781,0 z m 0.48337,-2.0251457 c -0.17501,-0.362526 -0.91673,-1.437603 -2.10849,-2.079316 -0.43753,-0.23335 -1.03757,-0.525037 -2.26266,-0.525037 -2.13765,0 -2.81687,1.616782 -2.01681,3.81694 0.8584,2.3585032 2.67936,4.2336384 5.19621,4.2336384 2.20015,0 2.64185,-1.7459595 1.65845,-4.441986 l -5.55874,0 c -0.5792,-1.5834474 -0.17084,-2.5001804 1.3001,-2.5001804 1.20842,0 2.26266,0.929234 2.51268,1.495941 l 1.27926,0"
       inkscape:connector-curvature="0" /><path
       id="path110"
       style="fill:#f58113;fill-opacity:1;fill-rule:nonzero;stroke:none"
       d="m 323.7394,-9.3766986 c -0.26253,-0.1583448 -0.62505,-0.2750205 -2.2835,-0.4792018 -0.65839,-0.087503 -1.73347,-0.2750196 -2.08349,-1.2375886 -0.30002,-0.829226 -0.0583,-1.325095 0.90007,-1.325095 1.19592,0 2.64186,0.770889 3.01271,1.791795 l 0.45421,1.2500904 z m -4.17531,1.416768 c 0.72089,1.8167977 2.19182,2.529349 4.06696,2.529349 0.61255,0 2.7627,-0.1708458 2.05431,-2.1251529 l -1.59594,-4.3836485 c -0.11668,-0.31669 -0.004,-0.450033 0.25835,-0.450033 0.11668,0 0.28752,0.02917 0.4417,0.05834 l -0.33752,-0.9334 c -0.24169,-0.05834 -0.46253,-0.145844 -0.75423,-0.145844 -1.13341,0 -1.09591,0.583375 -0.92923,1.16675 -0.69172,-0.541705 -1.71679,-1.237588 -3.20023,-1.237588 -1.4001,0 -2.06681,0.887563 -1.59178,2.200157 0.23335,0.637547 0.96673,2.1251529 3.18773,2.3876725 l 2.20433,0.2583514 c 0.31669,0.03334 0.72504,0.1458439 1.00006,0.9042315 0.29169,0.8042251 -0.13334,1.2375895 -1.34176,1.2375895 -1.45426,0 -1.98348,-0.8875643 -2.28349,-1.4667726 l -1.17926,0"
       inkscape:connector-curvature="0" /><path
       id="path112"
       style="fill:#f58113;fill-opacity:1;fill-rule:nonzero;stroke:none"
       d="m 331.46912,-13.264478 -1.28343,0 1.70846,4.6878363 c 0.48336,1.325095 0.35002,2.0001444 -0.90423,2.0001444 -0.72923,0 -2.17933,-0.4708672 -2.92939,-2.5376826 l -1.5126,-4.1502981 -1.28342,0 2.77519,7.6172132 1.20842,0 -0.39169,-1.0792437 0.0292,0 c 0.4252,0.4083626 1.45861,1.2959269 2.7712,1.2959269 1.17926,0 2.48768,-0.4792018 1.70013,-2.6501911 l -1.88764,-5.1837053"
       inkscape:connector-curvature="0" /><path
       id="path114"
       style="fill:#f58113;fill-opacity:1;fill-rule:nonzero;stroke:none"
       d="m 339.34885,-11.456015 2.12515,0 c 1.77929,0 3.02522,1.791795 3.65443,3.5085853 1.12091,3.0877218 -0.25835,3.3335731 -1.19175,3.3335731 l -2.09599,0 -2.49184,-6.8421584 z m 1.00841,8.6506216 4.61699,0 c 3.52109,0 3.15856,-3.0002152 2.43767,-4.9836915 -0.81671,-2.2418271 -2.87937,-5.4753931 -6.33378,-5.4753931 l -4.52532,0 3.80444,10.4590846"
       inkscape:connector-curvature="0" /><path
       id="path116"
       style="fill:#f58113;fill-opacity:1;fill-rule:nonzero;stroke:none"
       d="m 352.72898,-8.6183109 c 0.34168,1.2542568 -0.32086,1.6292838 -0.97924,1.6292838 -0.9584,0 -1.69179,-0.6125448 -2.17933,-1.6292838 l 3.15857,0 z m 1.14591,-2.3710041 c -1.21675,-1.866801 -2.98355,-2.479345 -4.30864,-2.479345 -2.18349,0 -3.47525,1.050076 -2.31683,4.2378053 0.34168,0.9333998 1.75012,3.9169478 5.14203,3.9169478 1.52928,0 3.37525,-0.7250522 2.08766,-4.2628066 l -0.13335,-0.3666924 -5.31705,0 c -0.15418,-0.5833761 -0.51253,-1.8918031 1.13342,-1.8918031 0.56671,0 1.25425,0.291687 1.61678,0.845894 l 2.09598,0"
       inkscape:connector-curvature="0" /><path
       id="path118"
       style="fill:#f58113;fill-opacity:1;fill-rule:nonzero;stroke:none"
       d="m 365.0632,-13.264478 -2.04181,0 1.71262,4.7045045 c 0.42086,1.1500829 0.05,1.5292763 -0.55004,1.5292763 -1.01674,0 -1.62512,-0.6708812 -1.95848,-1.5876137 l -1.69178,-4.6461671 -2.03765,0 1.69595,4.6628344 c 0.23752,0.6542139 0.57087,1.5709464 -0.65004,1.5709464 -0.96257,0 -1.51262,-0.6708812 -1.82097,-1.5126081 l -1.71679,-4.7211727 -2.03765,0 2.82104,7.7505562 1.95014,0 -0.41253,-1.1375811 0.0292,0 c 0.44586,0.50837 1.31676,1.337596 2.6877,1.337596 1.11674,0 1.47927,-0.4041962 1.70011,-1.2334222 0.40004,0.3750271 1.28343,1.2334222 2.52102,1.2334222 1.51261,0 2.371,-0.8875643 1.75012,-2.5918527 l -1.95013,-5.3587184"
       inkscape:connector-curvature="0" /><path
       id="path120"
       style="fill:#f58113;fill-opacity:1;fill-rule:nonzero;stroke:none"
       d="m 372.19288,-7.0306972 c -1.57095,0 -2.36267,-1.3667651 -2.72103,-2.3585023 -0.36253,-0.9917385 -0.56671,-2.3585035 1.00424,-2.3585035 1.57511,0 2.36267,1.366765 2.72103,2.3585035 0.36252,0.9917372 0.57087,2.3585023 -1.00424,2.3585023 z m -2.34184,-6.4379628 c -2.08349,0 -3.49609,1.283425 -2.47518,4.0794605 1.01674,2.796034 3.36274,4.0752926 5.44206,4.0752926 2.08348,0 3.49609,-1.2792586 2.47935,-4.0752926 -1.01674,-2.7960355 -3.36274,-4.0794605 -5.44623,-4.0794605"
       inkscape:connector-curvature="0" /><path
       id="path122"
       style="fill:#f58113;fill-opacity:1;fill-rule:nonzero;stroke:none"
       d="m 382.50195,-10.439275 c -0.36669,-0.800058 -1.8043,-3.029385 -4.642,-3.029385 -2.91271,0 -2.77104,2.229327 -2.17932,3.8627783 0.91256,2.5001789 2.65852,4.2919748 5.27955,4.2919748 1.22092,0 3.02937,-0.5500401 2.33766,-2.971047 l -2.06681,0 c 0.1,0.5125372 0.0709,1.3125941 -0.8959,1.2542567 -1.28342,0 -2.08349,-1.2792586 -2.43352,-2.2418276 -0.30834,-0.8458942 -0.88755,-2.5210142 0.65422,-2.5210142 1.03341,0 1.74596,0.991738 1.8793,1.354264 l 2.06682,0"
       inkscape:connector-curvature="0" /><path
       id="path124"
       style="fill:#f58113;fill-opacity:1;fill-rule:nonzero;stroke:none"
       d="m 385.19381,-5.5139218 1.95431,0 -0.48754,-1.3417623 0.0292,0 c 0.70839,0.7875559 1.44593,1.5417772 2.68353,1.5417772 0.13334,0 0.25835,-0.012499 0.38336,-0.029164 l -0.75006,-2.0668145 c -0.16668,0.029164 -0.38336,0.029164 -0.57087,0.029164 -1.58762,0 -2.24183,-0.9917381 -2.55435,-1.8501323 l -1.46677,-4.0336233 -2.03765,0 2.81687,7.7505562"
       inkscape:connector-curvature="0" /><path
       id="path126"
       style="fill:#f58113;fill-opacity:1;fill-rule:nonzero;stroke:none"
       d="m 393.19855,-9.489207 c -0.26251,-0.1625121 -0.64588,-0.2916878 -1.53761,-0.4250307 -0.80422,-0.1291753 -1.50011,-0.3208563 -1.80846,-1.1625833 -0.25836,-0.716718 0.21668,-0.9334 0.60838,-0.9334 0.90423,0 2.03348,0.583375 2.37516,1.529276 l 0.36253,0.991738 z m 1.17508,-2.258496 c -0.33752,-0.9209 -0.20418,-1.120914 0.009,-1.20842 l -0.1125,-0.308355 -2.19599,0 c 0.0166,0.366692 0.0292,0.479201 0.14584,0.9209 -0.64171,-0.483369 -1.52928,-1.125082 -2.9127,-1.125082 -1.16676,0 -2.121,0.658381 -1.53762,2.258496 0.55004,1.5167758 1.7918,2.2876644 3.15439,2.4751774 l 1.93764,0.2791869 c 0.33753,0.041673 0.77923,0.1708458 0.93757,0.6083775 0.31252,0.8583951 -0.48753,0.9042315 -1.01257,0.9042315 -1.02091,0 -1.42094,-0.6250447 -1.64596,-1.0792446 l -1.96263,0 c 1.09591,2.3751705 2.86271,2.7085284 4.45032,2.7085284 1.09174,0 2.96271,-0.3333579 2.27099,-2.2418276 L 394.374,-11.747703"
       inkscape:connector-curvature="0" /><path
       id="path128"
       style="fill:#f58113;fill-opacity:1;fill-rule:nonzero;stroke:none"
       d="m 400.23655,-5.5139218 1.26676,0 -0.5292,-1.458438 -1.26676,0 -1.53344,-4.2086362 c -0.16252,-0.450032 -0.21251,-0.625044 0.61671,-0.625044 0.13334,0 0.28335,0.0125 0.43336,0.02916 l -0.56253,-1.545778 c -0.32503,-0.0125 -0.65006,-0.02917 -0.97091,-0.02917 l -0.26252,0 c -1.75845,0 -1.83763,0.675049 -1.47094,1.675121 l 1.71263,4.7045044 -1.05008,0 0.52921,1.4584381 1.05007,0 0.76255,2.0959836 2.03765,0 -0.76256,-2.0959836"
       inkscape:connector-curvature="0" /><path
       id="path130"
       style="fill:#f58113;fill-opacity:1;fill-rule:nonzero;stroke:none"
       d="m 404.72021,-4.5971893 -2.03764,0 0.68755,1.8918034 2.04181,0 -0.69172,-1.8918034 z m -0.33335,-0.9167325 -2.82104,-7.7505562 -2.03765,0 2.82104,7.7505562 2.03765,0"
       inkscape:connector-curvature="0" /><path
       id="path132"
       style="fill:#f58113;fill-opacity:1;fill-rule:nonzero;stroke:none"
       d="m 410.70814,-10.439275 c -0.36669,-0.800058 -1.80429,-3.029385 -4.642,-3.029385 -2.91271,0 -2.77103,2.229327 -2.17932,3.8627783 0.91256,2.5001789 2.65852,4.2919748 5.27955,4.2919748 1.22092,0 3.02938,-0.5500401 2.34183,-2.971047 l -2.07098,0 c 0.1,0.5125372 0.0709,1.3125941 -0.90006,1.2542567 -1.27926,0 -2.07932,-1.2792586 -2.42934,-2.2418276 -0.30836,-0.8458942 -0.88757,-2.5210142 0.65421,-2.5210142 1.0334,0 1.74595,0.991738 1.87929,1.354264 l 2.06682,0"
       inkscape:connector-curvature="0" /><path
       id="path134"
       style="fill:#f58113;fill-opacity:1;fill-rule:nonzero;stroke:none"
       d="m 417.90033,-7.643241 2.80853,0 c 1.26676,0 2.296,0.4666999 2.80854,1.8793015 0.48337,1.325095 -0.26669,1.7459585 -1.42927,1.7459585 l -2.87104,0 -1.31676,-3.62526 z m -2.04598,-5.621237 -1.4126,0 3.80443,10.4590846 4.70034,0 c 1.93765,0 2.65019,-1.2542567 2.03348,-2.9418779 -0.5292,-1.458438 -1.95848,-3.10439 -4.22947,-3.10439 l -3.2919,0 -1.60428,-4.4128167"
       inkscape:connector-curvature="0" /><path
       id="path136"
       style="fill:#f58113;fill-opacity:1;fill-rule:nonzero;stroke:none"
       d="m 428.81777,-9.3766986 c -0.26251,-0.1583448 -0.62503,-0.2750205 -2.28766,-0.4792018 -0.65838,-0.087503 -1.72929,-0.2750196 -2.07931,-1.2375886 -0.30003,-0.829226 -0.0625,-1.325095 0.90006,-1.325095 1.19592,0 2.64185,0.770889 3.01272,1.791795 l 0.45419,1.2500904 z m -4.17529,1.416768 c 0.72088,1.8167977 2.19182,2.529349 4.06696,2.529349 0.61254,0 2.76269,-0.1708458 2.05431,-2.1251529 l -1.59595,-4.3836485 c -0.12084,-0.31669 -0.004,-0.450033 0.25835,-0.450033 0.11252,0 0.28752,0.02917 0.4417,0.05834 l -0.34169,-0.9334 c -0.23751,-0.05834 -0.45837,-0.145844 -0.75005,-0.145844 -1.13758,0 -1.10009,0.583375 -0.92924,1.16675 -0.69171,-0.541705 -1.71679,-1.237588 -3.20439,-1.237588 -1.39594,0 -2.06265,0.887563 -1.58762,2.200157 0.23335,0.637547 0.96257,2.1251529 3.18357,2.3876725 l 2.20849,0.2583514 c 0.31669,0.03334 0.72505,0.1458439 1.00007,0.9042315 0.29169,0.8042251 -0.13335,1.2375895 -1.34177,1.2375895 -1.45427,0 -1.98347,-0.8875643 -2.28349,-1.4667726 l -1.17925,0"
       inkscape:connector-curvature="0" /><path
       id="path138"
       style="fill:#f58113;fill-opacity:1;fill-rule:nonzero;stroke:none"
       d="m 431.80132,-13.264478 -1.28342,0 2.7752,7.6172132 1.20842,0 -0.46254,-1.270924 0.0292,0 c 0.82939,0.8917307 1.72112,1.4876072 2.67952,1.4876072 0.15835,0 0.22918,-0.012499 0.32085,-0.041673 l -0.48336,-1.3250951 -0.4792,0 c -1.19593,0 -2.29184,-0.9334007 -2.69603,-2.0376463 l -1.60845,-4.429485"
       inkscape:connector-curvature="0" /><path
       id="path140"
       style="fill:#f58113;fill-opacity:1;fill-rule:nonzero;stroke:none"
       d="m 439.21853,-6.7098402 -1.80014,-4.9503558 c -0.21668,-0.595877 0.29169,-0.595877 0.55421,-0.595877 l 0.45003,0 -0.36252,-1.008405 c -0.48337,-0.04167 -0.86673,-0.100008 -1.00007,-0.100008 -1.26676,0 -1.28343,0.712552 -0.95007,1.629284 l 1.8293,5.0253618 -1.03342,0 0.38754,1.0625754 1.03341,0 0.77088,2.1251529 1.28343,0 -0.77506,-2.1251529 1.22509,0 -0.38753,-1.0625754 -1.22508,0"
       inkscape:connector-curvature="0" /><path
       id="path142"
       style="fill:#f58113;fill-opacity:1;fill-rule:nonzero;stroke:none"
       d="m 446.33571,-5.6472648 1.4126,0 c -1.79596,-2.4918452 -3.57526,-4.9795242 -5.45873,-7.4713692 -2.32934,-3.083556 -2.52519,-3.262735 -4.17114,-3.262735 -0.19168,0 -0.31251,0.05834 -0.49586,0.116675 l 0.42502,1.166751 c 0.13752,-0.05834 0.37503,-0.129176 0.7209,-0.129176 0.67087,0 0.81255,0.187513 1.99597,1.758459 l 0.0209,7.8213952 1.45844,0 -0.23335,-6.2046122 0.0292,0 4.29614,6.2046122"
       inkscape:connector-curvature="0" /></g></g></svg>