<?xml version="1.0" encoding="UTF-8" standalone="no"?>
<svg
   xmlns:dc="http://purl.org/dc/elements/1.1/"
   xmlns:cc="http://creativecommons.org/ns#"
   xmlns:rdf="http://www.w3.org/1999/02/22-rdf-syntax-ns#"
   xmlns:svg="http://www.w3.org/2000/svg"
   xmlns="http://www.w3.org/2000/svg"
   viewBox="0 0 612.79999 319.77332"
   height="319.77332"
   width="612.79999"
   xml:space="preserve"
   id="svg2"
   version="1.1"><metadata
     id="metadata8"><rdf:RDF><cc:Work
         rdf:about=""><dc:format>image/svg+xml</dc:format><dc:type
           rdf:resource="http://purl.org/dc/dcmitype/StillImage" /></cc:Work></rdf:RDF></metadata><defs
     id="defs6" /><g
     transform="matrix(1.3333333,0,0,-1.3333333,0,319.77333)"
     id="g10"><g
       transform="scale(0.1)"
       id="g12"><path
         id="path14"
         style="fill:#4fbc4f;fill-opacity:1;fill-rule:nonzero;stroke:none"
         d="M 4004.16,986.281 591.891,591.93 V 2398.34 H 4004.16 V 986.281" /><path
         id="path16"
         style="fill:#ffffff;fill-opacity:1;fill-rule:nonzero;stroke:none"
         d="m 2335.62,1672.39 c -2.33,2.32 -3.48,6.01 -3.48,11.06 v 225.93 c 0,5.05 1.15,8.7 3.48,10.96 2.32,2.25 6.01,3.38 11.06,3.38 h 133.34 c 3.82,0 6.59,-1.44 8.3,-4.3 1.7,-2.87 2.56,-7.52 2.56,-13.94 v -11.05 c 0,-6.43 -0.86,-11.06 -2.56,-13.93 -1.71,-2.87 -4.48,-4.3 -8.3,-4.3 h -91.76 v -52.85 h 81.93 c 3.83,0 6.59,-1.43 8.3,-4.3 1.7,-2.87 2.56,-7.51 2.56,-13.92 v -11.27 c 0,-6.42 -0.86,-11.06 -2.56,-13.93 -1.71,-2.87 -4.47,-4.3 -8.3,-4.3 h -81.93 v -58.99 h 91.97 c 3.82,0 6.59,-1.44 8.3,-4.3 1.7,-2.87 2.56,-7.45 2.56,-13.73 v -11.47 c 0,-6.42 -0.86,-11.06 -2.56,-13.93 -1.71,-2.86 -4.48,-4.3 -8.3,-4.3 h -133.55 c -5.05,0 -8.74,1.16 -11.06,3.48" /><path
         id="path18"
         style="fill:#ffffff;fill-opacity:1;fill-rule:nonzero;stroke:none"
         d="m 2537.09,1680.28 c -8.74,9.63 -13.11,24.54 -13.11,44.76 v 123.51 c 0,3.81 1.77,6.68 5.33,8.59 3.54,1.92 9.07,2.88 16.59,2.88 h 10.03 c 7.51,0 13.04,-0.96 16.59,-2.88 3.56,-1.91 5.32,-4.78 5.32,-8.59 v -115.32 c 0,-7.52 1.71,-13.18 5.13,-17 3.41,-3.83 9.01,-5.74 16.8,-5.74 6.69,0 12.52,2.15 17.51,6.46 4.98,4.3 8.84,9.18 11.57,14.64 v 116.96 c 0,3.81 1.78,6.68 5.32,8.59 3.56,1.92 9.08,2.88 16.59,2.88 h 10.04 c 7.51,0 13.04,-0.96 16.59,-2.88 3.55,-1.91 5.33,-4.78 5.33,-8.59 v -115.32 c 0,-11.47 0.31,-20.46 0.92,-26.93 0.62,-6.49 1.4,-12.54 2.36,-18.13 0.68,-3.69 1.02,-6.28 1.02,-7.79 0,-2.73 -2.53,-4.98 -7.57,-6.75 -5.06,-1.78 -10.83,-3.08 -17.32,-3.9 -6.48,-0.82 -11.71,-1.23 -15.66,-1.23 -4.38,0 -7.48,1.75 -9.33,5.23 -1.84,3.48 -3.31,8.43 -4.39,14.84 l -1.03,5.13 c -5.74,-7.79 -13.42,-14.38 -23.05,-19.77 -9.62,-5.39 -19.97,-8.09 -31.03,-8.09 -18.29,0 -31.82,4.82 -40.55,14.44" /><path
         id="path20"
         style="fill:#ffffff;fill-opacity:1;fill-rule:nonzero;stroke:none"
         d="m 2725.89,1679.77 v 115.52 c 0,17.48 -1.16,32.02 -3.48,43.63 -0.69,3.69 -1.02,6.28 -1.02,7.78 0,2.73 2.56,4.95 7.67,6.66 5.13,1.71 10.93,2.97 17.42,3.78 6.48,0.82 11.71,1.24 15.67,1.24 4.23,0 7.2,-1.58 8.91,-4.72 1.71,-3.14 3.24,-7.71 4.61,-13.72 l 1.23,-5.32 c 4.64,8.46 10,15.19 16.07,20.17 6.08,4.99 13.9,7.48 23.46,7.48 7.91,0 13.38,-2.02 16.38,-6.04 3,-4.03 4.51,-8.58 4.51,-13.62 0,-2.74 -0.48,-6.59 -1.44,-11.58 -0.96,-4.98 -2.32,-9.39 -4.09,-13.21 -1.78,-3.82 -3.76,-5.73 -5.95,-5.73 -1.5,0 -3.75,0.41 -6.76,1.22 -4.09,1.1 -7.57,1.64 -10.44,1.64 -6.69,0 -12.52,-1.88 -17.51,-5.63 -4.99,-3.76 -8.77,-7.96 -11.37,-12.59 v -116.96 c 0,-7.65 -7.38,-11.47 -22.12,-11.47 h -10.04 c -14.47,0 -21.71,3.82 -21.71,11.47" /><path
         id="path22"
         style="fill:#ffffff;fill-opacity:1;fill-rule:nonzero;stroke:none"
         d="m 2964.17,1722.57 c 5.39,9.29 8.1,23.22 8.1,41.79 0,18.44 -2.71,32.29 -8.1,41.58 -5.39,9.29 -13.83,13.93 -25.29,13.93 -22.67,0 -34,-18.51 -34,-55.51 0,-18.43 2.76,-32.33 8.3,-41.68 5.52,-9.35 14.09,-14.03 25.7,-14.03 11.46,0 19.9,4.64 25.29,13.92 z m -91.14,-31.33 c -15.1,16.93 -22.64,41.3 -22.64,73.12 0,31.68 7.54,55.92 22.64,72.71 15.09,16.8 37.03,25.2 65.85,25.2 28.81,0 50.69,-8.37 65.64,-25.09 14.95,-16.73 22.44,-41 22.44,-72.82 0,-31.82 -7.49,-56.19 -22.44,-73.12 -14.95,-16.94 -36.83,-25.4 -65.64,-25.4 -28.82,0 -50.76,8.46 -65.85,25.4" /><path
         id="path24"
         style="fill:#ffffff;fill-opacity:1;fill-rule:nonzero;stroke:none"
         d="m 3175.52,1763.95 c 0,36.18 -9.76,54.28 -29.29,54.28 -11.46,0 -21.5,-7.17 -30.1,-21.5 v -81.12 c 8.46,-4.64 17,-6.96 25.6,-6.96 22.53,0 33.79,18.43 33.79,55.3 z m -107.73,-167.24 c -3.56,1.98 -5.33,4.96 -5.33,8.91 v 189.67 c 0,10.92 -0.31,19.49 -0.92,25.71 -0.62,6.21 -1.4,12.18 -2.36,17.92 -0.68,3.69 -1.02,6.28 -1.02,7.78 0,2.73 2.53,4.95 7.57,6.66 5.05,1.71 10.82,2.97 17.32,3.78 6.48,0.82 11.7,1.24 15.66,1.24 4.38,0 7.42,-1.61 9.12,-4.82 1.7,-3.21 3.25,-7.81 4.6,-13.82 l 1.03,-4.71 c 4.24,8.05 10.68,14.61 19.35,19.66 8.68,5.05 18.47,7.58 29.4,7.58 13.24,0 24.99,-3.82 35.23,-11.47 10.24,-7.65 18.27,-18.88 24.07,-33.69 5.8,-14.82 8.71,-32.54 8.71,-53.16 0,-19.8 -3.01,-37.07 -9.02,-51.82 -6.01,-14.74 -14.74,-26.15 -26.22,-34.2 -11.47,-8.07 -25.26,-12.09 -41.37,-12.09 -13.79,0 -26.29,3.82 -37.48,11.47 v -71.69 c 0,-3.95 -1.74,-6.93 -5.23,-8.91 -3.48,-1.98 -8.97,-2.96 -16.48,-2.96 h -10.04 c -7.51,0 -13.04,0.98 -16.59,2.96" /><path
         id="path26"
         style="fill:#ffffff;fill-opacity:1;fill-rule:nonzero;stroke:none"
         d="m 3372.29,1782.8 c 0,11.19 -2.19,20.17 -6.57,26.93 -4.36,6.76 -10.91,10.14 -19.65,10.14 -18.03,0 -28.96,-12.36 -32.78,-37.07 z m -91.16,-91.25 c -15.7,17.13 -23.55,40.93 -23.55,71.38 0,34.27 7.85,59.4 23.55,75.37 15.71,15.98 37.35,23.97 64.94,23.97 18.29,0 33.28,-4.17 44.96,-12.5 11.67,-8.33 20.2,-19.52 25.59,-33.59 5.4,-14.06 8.1,-29.97 8.1,-47.72 0,-2.05 -1.2,-4.78 -3.59,-8.19 -2.39,-3.42 -5.08,-6.49 -8.09,-9.22 -3,-2.74 -5.32,-4.1 -6.96,-4.1 h -92.79 c 1.23,-13.93 5.36,-23.79 12.4,-29.59 7.03,-5.81 16.82,-8.71 29.39,-8.71 6.83,0 13.01,0.78 18.54,2.35 5.52,1.57 11.43,3.66 17.71,6.25 3.82,1.77 6.42,2.66 7.78,2.66 2.46,0 5.16,-1.73 8.1,-5.22 2.93,-3.48 5.46,-7.48 7.58,-11.98 2.11,-4.5 3.17,-7.99 3.17,-10.45 0,-5.6 -3.79,-10.37 -11.37,-14.33 -7.57,-3.97 -16.52,-6.98 -26.83,-9.02 -10.31,-2.05 -19.36,-3.07 -27.14,-3.07 -31.95,0 -55.78,8.57 -71.49,25.71" /><path
         id="path28"
         style="fill:#ffffff;fill-opacity:1;fill-rule:nonzero;stroke:none"
         d="m 3537.82,1715.1 c 6.01,4.3 10.51,9.8 13.52,16.49 v 20.07 c -34,0 -51.01,-8.94 -51.01,-26.83 0,-4.78 1.61,-8.67 4.82,-11.67 3.21,-3.01 7.68,-4.51 13.42,-4.51 6.82,0 13.24,2.15 19.25,6.45 z m -77.94,-34.62 c -8.67,9.77 -13,22.7 -13,38.82 0,12.15 2.53,23.11 7.58,32.88 5.04,9.75 15.29,17.98 30.72,24.68 15.43,6.69 37.48,10.03 66.16,10.03 v 12.09 c 0,7.1 -2.26,12.36 -6.76,15.77 -4.51,3.41 -11.68,5.12 -21.51,5.12 -8.19,0 -15.23,-0.85 -21.1,-2.56 -5.86,-1.71 -12.21,-4 -19.05,-6.86 -3.54,-1.64 -5.73,-2.46 -6.55,-2.46 -2.45,0 -5.16,1.84 -8.09,5.53 -2.94,3.68 -5.49,7.92 -7.68,12.7 -2.19,4.78 -3.27,8.4 -3.27,10.85 0,4.23 3.03,8.3 9.11,12.19 6.07,3.89 14.44,7.03 25.09,9.42 10.65,2.39 22.46,3.59 35.44,3.59 27.3,0 47.17,-5.43 59.59,-16.29 12.44,-10.85 18.65,-25.7 18.65,-44.55 v -68.2 c 0,-11.34 0.3,-20.15 0.92,-26.43 0.61,-6.28 1.47,-12.49 2.56,-18.63 0.68,-3.69 1.02,-6.28 1.02,-7.79 0,-2.73 -2.56,-4.98 -7.68,-6.75 -5.11,-1.78 -10.95,-3.08 -17.51,-3.9 -6.56,-0.82 -11.81,-1.23 -15.77,-1.23 -4.24,0 -7.27,1.81 -9.12,5.43 -1.83,3.62 -3.31,8.57 -4.4,14.85 -0.14,0.82 -0.28,1.64 -0.41,2.46 -0.14,0.82 -0.35,1.64 -0.62,2.46 -1.36,-2.6 -4.27,-6.08 -8.7,-10.45 -4.43,-4.37 -10.48,-8.36 -18.12,-11.98 -7.65,-3.62 -16.53,-5.43 -26.64,-5.43 -18.57,0 -32.18,4.88 -40.86,14.64" /><path
         id="path30"
         style="fill:#ffffff;fill-opacity:1;fill-rule:nonzero;stroke:none"
         d="m 3648.12,1679.77 v 115.52 c 0,17.48 -1.16,32.02 -3.48,43.63 -0.69,3.69 -1.02,6.28 -1.02,7.78 0,2.73 2.55,4.95 7.67,6.66 5.13,1.71 10.93,2.97 17.41,3.78 6.49,0.82 11.71,1.24 15.68,1.24 4.23,0 7.19,-1.58 8.9,-4.72 1.71,-3.14 3.25,-7.71 4.61,-13.72 l 1.23,-5.32 c 5.74,7.64 13.41,14.16 23.04,19.56 9.63,5.39 19.97,8.09 31.04,8.09 18.29,0 31.81,-4.78 40.55,-14.34 8.73,-9.56 13.11,-24.37 13.11,-44.45 v -123.71 c 0,-7.65 -7.38,-11.47 -22.12,-11.47 h -10.04 c -14.47,0 -21.71,3.82 -21.71,11.47 v 115.52 c 0,7.37 -1.74,12.98 -5.22,16.8 -3.49,3.82 -9.12,5.73 -16.9,5.73 -6.56,0 -12.36,-2.18 -17.41,-6.55 -5.06,-4.38 -8.88,-9.22 -11.48,-14.54 v -116.96 c 0,-7.65 -7.37,-11.47 -22.11,-11.47 h -10.04 c -14.48,0 -21.71,3.82 -21.71,11.47" /><path
         id="path32"
         style="fill:#ffffff;fill-opacity:1;fill-rule:nonzero;stroke:none"
         d="m 2350.01,1393.18 c -19.46,21.31 -29.19,54.41 -29.19,99.35 0,86.43 40.56,129.65 121.67,129.65 11.06,0 22.7,-1.1 34.92,-3.28 12.22,-2.19 22.43,-5.22 30.62,-9.12 8.19,-3.89 12.29,-8.22 12.29,-12.99 0,-3.42 -1.36,-7.9 -4.1,-13.42 -2.73,-5.53 -5.93,-10.42 -9.63,-14.65 -3.68,-4.23 -6.96,-6.35 -9.82,-6.35 -0.82,0 -2.8,0.68 -5.95,2.05 -6.82,2.72 -13.99,5.02 -21.5,6.86 -7.51,1.84 -16.8,2.76 -27.85,2.76 -21.45,0 -37.32,-6.79 -47.63,-20.37 -10.31,-13.6 -15.46,-34.11 -15.46,-61.55 0,-27.46 5.19,-48.14 15.57,-62.07 10.37,-13.93 25.94,-20.89 46.7,-20.89 10.5,0 20,0.89 28.46,2.66 v 46.09 h -32.15 c -3.82,0 -6.6,1.43 -8.3,4.3 -1.7,2.86 -2.55,7.5 -2.55,13.93 v 11.67 c 0,6.28 0.85,10.86 2.55,13.73 1.7,2.86 4.48,4.3 8.3,4.3 h 73.94 c 5.19,0 8.95,-1.13 11.26,-3.38 2.32,-2.26 3.49,-5.91 3.49,-10.96 v -101.39 c 0,-10.92 -9.15,-18.47 -27.45,-22.63 -18.3,-4.16 -37.48,-6.25 -57.55,-6.25 -40.97,0 -71.18,10.65 -90.64,31.95" /><path
         id="path34"
         style="fill:#ffffff;fill-opacity:1;fill-rule:nonzero;stroke:none"
         d="m 2569,1375.16 v 115.52 c 0,17.48 -1.17,32.02 -3.48,43.63 -0.69,3.69 -1.03,6.27 -1.03,7.79 0,2.72 2.56,4.94 7.68,6.65 5.13,1.71 10.93,2.96 17.41,3.79 6.49,0.82 11.71,1.23 15.68,1.23 4.22,0 7.19,-1.57 8.9,-4.71 1.71,-3.15 3.24,-7.72 4.61,-13.73 l 1.23,-5.32 c 4.64,8.46 10,15.18 16.08,20.17 6.07,4.98 13.89,7.48 23.45,7.48 7.91,0 13.38,-2.02 16.39,-6.04 3,-4.03 4.5,-8.58 4.5,-13.62 0,-2.74 -0.48,-6.6 -1.43,-11.58 -0.96,-4.99 -2.33,-9.39 -4.1,-13.21 -1.77,-3.82 -3.76,-5.73 -5.94,-5.73 -1.51,0 -3.75,0.41 -6.76,1.23 -4.09,1.08 -7.58,1.64 -10.44,1.64 -6.7,0 -12.53,-1.89 -17.52,-5.64 -4.98,-3.76 -8.77,-7.96 -11.37,-12.59 v -116.96 c 0,-7.65 -7.37,-11.47 -22.12,-11.47 h -10.03 c -14.48,0 -21.71,3.82 -21.71,11.47" /><path
         id="path36"
         style="fill:#ffffff;fill-opacity:1;fill-rule:nonzero;stroke:none"
         d="m 2808.63,1478.19 c 0,11.19 -2.18,20.18 -6.56,26.94 -4.36,6.75 -10.92,10.13 -19.66,10.13 -18.02,0 -28.95,-12.36 -32.77,-37.07 z m -91.15,-91.25 c -15.7,17.13 -23.55,40.93 -23.55,71.38 0,34.27 7.85,59.4 23.55,75.38 15.71,15.98 37.35,23.96 64.93,23.96 18.3,0 33.29,-4.17 44.97,-12.5 11.67,-8.33 20.2,-19.53 25.59,-33.59 5.4,-14.06 8.1,-29.97 8.1,-47.73 0,-2.04 -1.2,-4.77 -3.59,-8.19 -2.39,-3.41 -5.09,-6.48 -8.09,-9.21 -3,-2.73 -5.33,-4.1 -6.97,-4.1 h -92.78 c 1.23,-13.93 5.36,-23.79 12.39,-29.6 7.03,-5.8 16.83,-8.7 29.4,-8.7 6.82,0 13.01,0.78 18.53,2.35 5.53,1.57 11.44,3.66 17.72,6.25 3.82,1.77 6.41,2.67 7.78,2.67 2.46,0 5.16,-1.75 8.1,-5.22 2.93,-3.49 5.46,-7.48 7.57,-11.99 2.11,-4.51 3.18,-7.99 3.18,-10.45 0,-5.59 -3.79,-10.38 -11.37,-14.33 -7.58,-3.97 -16.52,-6.97 -26.83,-9.02 -10.32,-2.05 -19.36,-3.07 -27.14,-3.07 -31.96,0 -55.78,8.57 -71.49,25.71" /><path
         id="path38"
         style="fill:#ffffff;fill-opacity:1;fill-rule:nonzero;stroke:none"
         d="m 3002.54,1478.19 c 0,11.19 -2.19,20.18 -6.56,26.94 -4.37,6.75 -10.92,10.13 -19.66,10.13 -18.03,0 -28.95,-12.36 -32.77,-37.07 z m -91.15,-91.25 c -15.7,17.13 -23.56,40.93 -23.56,71.38 0,34.27 7.86,59.4 23.56,75.38 15.7,15.98 37.34,23.96 64.93,23.96 18.29,0 33.28,-4.17 44.96,-12.5 11.67,-8.33 20.21,-19.53 25.6,-33.59 5.4,-14.06 8.09,-29.97 8.09,-47.73 0,-2.04 -1.2,-4.77 -3.58,-8.19 -2.39,-3.41 -5.09,-6.48 -8.1,-9.21 -2.99,-2.73 -5.32,-4.1 -6.96,-4.1 h -92.78 c 1.23,-13.93 5.36,-23.79 12.39,-29.6 7.03,-5.8 16.83,-8.7 29.39,-8.7 6.83,0 13.01,0.78 18.54,2.35 5.53,1.57 11.43,3.66 17.71,6.25 3.82,1.77 6.42,2.67 7.79,2.67 2.46,0 5.15,-1.75 8.09,-5.22 2.93,-3.49 5.46,-7.48 7.58,-11.99 2.11,-4.51 3.18,-7.99 3.18,-10.45 0,-5.59 -3.79,-10.38 -11.37,-14.33 -7.58,-3.97 -16.53,-6.97 -26.84,-9.02 -10.31,-2.05 -19.35,-3.07 -27.14,-3.07 -31.95,0 -55.78,8.57 -71.48,25.71" /><path
         id="path40"
         style="fill:#ffffff;fill-opacity:1;fill-rule:nonzero;stroke:none"
         d="m 3087.86,1375.16 v 115.52 c 0,17.48 -1.16,32.02 -3.47,43.63 -0.7,3.69 -1.03,6.27 -1.03,7.79 0,2.72 2.56,4.94 7.68,6.65 5.12,1.71 10.93,2.96 17.41,3.79 6.48,0.82 11.71,1.23 15.67,1.23 4.23,0 7.2,-1.57 8.91,-4.71 1.71,-3.15 3.24,-7.72 4.61,-13.73 l 1.23,-5.32 c 5.73,7.64 13.41,14.17 23.04,19.56 9.63,5.39 19.97,8.09 31.03,8.09 18.29,0 31.82,-4.78 40.56,-14.34 8.73,-9.56 13.1,-24.38 13.1,-44.44 v -123.72 c 0,-7.65 -7.37,-11.47 -22.12,-11.47 h -10.03 c -14.48,0 -21.71,3.82 -21.71,11.47 v 115.52 c 0,7.37 -1.74,12.97 -5.23,16.8 -3.48,3.82 -9.11,5.73 -16.89,5.73 -6.57,0 -12.37,-2.19 -17.41,-6.55 -5.06,-4.38 -8.88,-9.22 -11.48,-14.54 v -116.96 c 0,-7.65 -7.37,-11.47 -22.12,-11.47 h -10.04 c -14.47,0 -21.71,3.82 -21.71,11.47" /><path
         id="path42"
         style="fill:#ffffff;fill-opacity:1;fill-rule:nonzero;stroke:none"
         d="m 3309.43,1364.3 c -9.29,2.05 -16.97,4.98 -23.04,8.81 -6.08,3.82 -9.11,8.2 -9.11,13.11 0,3.01 1.08,6.76 3.27,11.27 2.19,4.5 4.81,8.42 7.89,11.78 3.07,3.34 5.76,5.02 8.09,5.02 1.23,0 3.89,-0.96 7.98,-2.88 4.78,-2.18 9.36,-3.96 13.72,-5.32 4.38,-1.37 9.36,-2.05 14.96,-2.05 6.97,0 12.22,1.3 15.77,3.89 3.55,2.59 5.33,6.42 5.33,11.47 0,3.82 -1.07,6.99 -3.17,9.52 -2.12,2.53 -4.82,4.61 -8.1,6.25 -3.27,1.64 -7.92,3.62 -13.93,5.94 l -5.93,2.26 c -7.79,2.99 -14.62,6.41 -20.49,10.24 -5.87,3.82 -10.85,9.39 -14.95,16.69 -4.09,7.31 -6.15,16.55 -6.15,27.75 0,12.43 2.7,23.12 8.09,32.06 5.4,8.94 13.08,15.78 23.05,20.48 9.97,4.71 21.71,7.07 35.23,7.07 7.78,0 15.9,-0.75 24.38,-2.25 8.45,-1.51 15.59,-3.83 21.39,-6.96 5.8,-3.15 8.71,-7.11 8.71,-11.89 0,-2.74 -0.86,-6.42 -2.55,-11.06 -1.71,-4.64 -3.79,-8.73 -6.25,-12.29 -2.47,-3.55 -4.79,-5.32 -6.97,-5.32 -0.68,0 -2.6,0.61 -5.74,1.84 -4.23,1.77 -8.29,3.18 -12.19,4.2 -3.88,1.02 -8.36,1.53 -13.41,1.53 -12.84,0 -19.25,-4.23 -19.25,-12.7 0,-3.82 1.19,-7.1 3.58,-9.82 2.39,-2.74 5.36,-4.99 8.92,-6.76 3.54,-1.78 8.52,-3.9 14.95,-6.36 7.37,-3 11.94,-4.91 13.72,-5.73 9.55,-4.78 17.24,-11.09 23.04,-18.95 5.81,-7.85 8.71,-18.33 8.71,-31.44 0,-12.42 -2.81,-23.35 -8.4,-32.77 -5.61,-9.42 -13.8,-16.72 -24.58,-21.92 -10.79,-5.18 -23.62,-7.78 -38.51,-7.78 -9.42,0 -18.78,1.02 -28.06,3.07" /><path
         id="path44"
         style="fill:#fade04;fill-opacity:1;fill-rule:nonzero;stroke:none"
         d="m 1533.55,2182.88 v 0 c 0.03,-0.07 -6.64,-9.82 -16.88,-26.13 -10.25,-16.31 -24.08,-39.17 -38.36,-65.46 -14.3,-26.29 -29.05,-56 -41.13,-86.01 -12.08,-30.02 -21.49,-60.33 -25.11,-87.8 -3.62,-27.59 -0.98,-49.9 5.02,-67.85 6.01,-17.95 15.37,-31.54 25.19,-41.68 9.82,-10.15 20.1,-16.84 27.93,-20.99 7.82,-4.16 13.2,-5.78 13.22,-5.77 0.02,0 6.25,5.19 15.78,14.7 9.54,9.52 22.38,23.38 35.63,40.74 13.26,17.33 26.92,38.17 38.09,61.65 11.18,23.47 19.87,49.6 23.18,77.5 3.27,27.96 1,54.89 -4.25,79.56 -5.25,24.66 -13.48,47.06 -22.11,65.96 -8.63,18.89 -17.67,34.29 -24.56,44.96 -6.89,10.67 -11.62,16.62 -11.64,16.62" /><path
         id="path46"
         style="fill:#fade04;fill-opacity:1;fill-rule:nonzero;stroke:none"
         d="m 1063.39,1570.29 c -0.16,-0.02 -0.3,-0.04 -0.44,-0.06 -0.16,-0.02 -0.32,-0.04 -0.45,-0.07 -0.15,-0.02 -0.31,-0.04 -0.45,-0.06 -0.15,-0.02 -0.31,-0.04 -0.46,-0.06 -30.16,-5.06 -61.735,-12.21 -92.231,-20.12 -30.515,-7.91 -59.961,-16.57 -85.925,-24.65 -25.957,-8.07 -48.418,-15.55 -64.961,-21.09 -16.528,-5.54 -27.129,-9.14 -29.36,-9.45 -0.078,-0.02 -0.136,-0.02 -0.183,-0.03 -0.067,0 -0.114,0 -0.145,0.01 -0.035,0 -0.066,0.01 -0.09,0.02 -0.011,0.01 -0.019,0.03 -0.019,0.05 -0.098,-0.45 7.5,-6.99 20.91,-16.3 13.418,-9.29 32.648,-21.35 55.82,-32.79 23.172,-11.46 50.282,-22.31 79.442,-29.19 29.168,-6.9 60.392,-9.82 91.762,-5.42 0.14,0.02 0.28,0.04 0.4,0.05 0.14,0.02 0.28,0.04 0.41,0.06 0.14,0.02 0.28,0.04 0.4,0.06 0.15,0.02 0.29,0.04 0.41,0.06 0.23,0.03 0.45,0.06 0.69,0.09 0.23,0.03 0.45,0.06 0.68,0.09 0.23,0.03 0.45,0.06 0.67,0.09 0.23,0.04 0.46,0.07 0.67,0.1 15.41,2.16 30.02,5.57 43.82,9.89 13.79,4.33 26.75,9.55 38.83,15.35 12.09,5.79 23.3,12.14 33.59,18.71 10.3,6.57 19.68,13.36 28.1,20.01 8.42,6.64 15.88,13.14 22.35,19.17 6.46,6.03 11.94,11.57 16.36,16.3 4.41,4.71 7.78,8.6 10.08,11.32 2.29,2.71 3.51,4.25 3.6,4.26 h 0.01 c 0.02,0.3 -3.18,4.27 -9.87,9.77 -6.71,5.5 -16.94,12.55 -31.04,19 -14.08,6.46 -32.02,12.33 -54.16,15.51 -22.11,3.18 -48.41,3.66 -79.22,-0.68" /><path
         id="path48"
         style="fill:#fade04;fill-opacity:1;fill-rule:nonzero;stroke:none"
         d="m 1882.96,1769.84 c -0.41,-0.05 -0.81,-0.12 -1.22,-0.18 -0.41,-0.05 -0.81,-0.12 -1.22,-0.19 -0.41,-0.05 -0.81,-0.11 -1.22,-0.18 -0.41,-0.08 -0.81,-0.13 -1.22,-0.2 -31.06,-4.55 -58.85,-14.28 -83.06,-26.34 -24.22,-12.07 -44.87,-26.45 -61.67,-40.26 -16.8,-13.84 -29.75,-27.08 -38.54,-36.89 -8.79,-9.82 -13.44,-16.18 -13.64,-16.21 v 0.02 c -0.06,-0.26 3.25,-4.38 10.22,-10.18 6.97,-5.78 17.59,-13.21 32.16,-20.1 14.57,-6.91 33.09,-13.25 55.86,-16.85 22.76,-3.62 49.77,-4.47 81.31,-0.36 31,4.6 63.11,11.84 93.94,20.1 30.82,8.28 60.36,17.6 86.2,26.36 25.84,8.76 47.97,16.97 63.99,23.05 16.02,6.07 25.93,10 27.32,10.18 0.03,0.02 0.05,0.02 0.06,0.02 h 0.05 c 0.02,0 0.03,0 0.04,0 0.01,-0.02 0.01,-0.02 0.01,-0.03 -0.12,0.74 -8.07,7.69 -21.85,17.46 -13.78,9.78 -33.38,22.35 -56.82,34.29 -23.43,11.92 -50.7,23.22 -79.81,30.45 -29.1,7.23 -60.06,10.39 -90.89,6.04 m 249.37,-88.24 v 0 -0.01 0 0 0.01" /><path
         id="path50"
         style="fill:#fade04;fill-opacity:1;fill-rule:nonzero;stroke:none"
         d="m 920.637,1769.86 v 0 -0.02 c 0,-0.01 0,-0.02 0.011,-0.03 0,-0.02 0.008,-0.03 0.02,-0.04 0.008,-0.01 0.02,-0.02 0.02,-0.03 0,0.02 -0.012,0.04 -0.02,0.05 -0.012,0.03 -0.012,0.04 -0.02,0.05 0,0.01 0,0.02 -0.011,0.02 0,0 0,0 0,0 m 0.051,-0.12 c 0.5,-1.11 4.187,-10.04 10.988,-23.4 6.812,-13.36 16.719,-31.15 29.629,-49.98 12.922,-18.86 28.843,-38.77 47.665,-56.36 18.83,-17.59 40.56,-32.86 65.08,-42.41 8.04,-3.16 16.12,-5.61 24.18,-7.43 8.07,-1.81 16.12,-3.02 24.09,-3.7 7.97,-0.68 15.87,-0.82 23.64,-0.55 7.77,0.27 15.4,1 22.84,2.04 7.81,1.1 15.4,2.57 22.71,4.29 7.31,1.74 14.34,3.72 21.03,5.86 6.68,2.15 13.02,4.45 18.93,6.78 5.92,2.32 11.42,4.7 16.43,7.03 5.02,2.3 9.55,4.54 13.53,6.6 3.97,2.06 7.39,3.95 10.19,5.54 2.79,1.61 4.97,2.91 6.45,3.83 1.48,0.91 2.27,1.41 2.3,1.41 0.04,0.16 0.39,6.05 -0.69,15.27 -1.07,9.23 -3.56,21.76 -9.21,35.2 -5.64,13.45 -14.43,27.79 -28.1,40.62 -13.67,12.83 -32.2,24.14 -57.35,31.54 -24.92,6.35 -53.71,10.44 -82.92,13.03 -29.19,2.6 -58.82,3.73 -85.42,4.14 -26.614,0.43 -50.192,0.18 -67.332,0.02 -17.137,-0.16 -27.84,-0.21 -28.66,0.63" /><path
         id="path52"
         style="fill:#fade04;fill-opacity:1;fill-rule:nonzero;stroke:none"
         d="m 1192.11,2006.3 v 0 m 0,0 c 0.01,-0.01 -1.83,-9.29 -3.83,-24.45 -2.01,-15.16 -4.18,-36.21 -4.83,-59.76 -0.64,-23.56 0.25,-49.63 4.35,-74.83 4.11,-25.2 11.44,-49.53 23.7,-69.61 9.86,-16.21 22.21,-28.14 35.64,-36.84 13.44,-8.71 27.96,-14.19 42.18,-17.52 14.22,-3.32 28.13,-4.49 40.34,-4.57 12.21,-0.07 22.71,0.94 30.11,1.99 1.81,0.25 3.44,0.51 4.86,0.75 1.42,0.25 2.63,0.47 3.62,0.67 0.98,0.2 1.75,0.37 2.26,0.5 0.51,0.12 0.78,0.2 0.77,0.22 h 0.01 c 0.05,0 3.84,6.39 8.72,17.17 4.87,10.78 10.83,25.93 15.2,43.47 4.38,17.54 7.16,37.46 5.71,57.75 -1.46,20.29 -7.16,40.96 -19.77,60.01 -12.64,18.64 -30.81,34.42 -50.93,47.62 -20.12,13.2 -42.2,23.84 -62.69,32.2 -20.47,8.36 -39.37,14.44 -53.12,18.55 -13.75,4.1 -22.37,6.24 -22.3,6.68" /><path
         id="path54"
         style="fill:#fade04;fill-opacity:1;fill-rule:nonzero;stroke:none"
         d="m 1993.37,1998.28 c -14.25,-2.02 -29.75,-4.79 -45.96,-8.54 -16.21,-3.74 -33.14,-8.47 -50.25,-14.4 -17.11,-5.93 -34.41,-13.07 -51.34,-21.64 -16.94,-8.56 -33.52,-18.56 -49.21,-30.22 -28.56,-20.33 -51.19,-41.98 -69.08,-63.03 -17.89,-21.04 -31.04,-41.48 -40.62,-59.38 -9.58,-17.9 -15.59,-33.25 -19.2,-44.14 -3.62,-10.88 -4.83,-17.29 -4.82,-17.29 v 0 c -0.03,-0.04 1.5,-0.32 4.42,-0.64 2.92,-0.31 7.23,-0.66 12.78,-0.82 5.55,-0.16 12.33,-0.16 20.18,0.24 7.86,0.4 16.78,1.18 26.63,2.57 9.51,1.34 19.87,3.24 30.95,5.88 11.07,2.66 22.86,6.05 35.21,10.38 12.35,4.34 25.27,9.62 38.61,16.02 13.34,6.41 27.1,13.94 41.13,22.79 28.57,18.08 55.44,39.95 79.69,62.58 24.24,22.63 45.86,46.03 63.89,67.18 18.04,21.15 32.5,40.05 42.45,53.7 9.95,13.62 15.4,22 15.39,22.11 0.04,0.42 -2.02,0.84 -5.89,1.14 -3.87,0.29 -9.53,0.44 -16.68,0.34 -7.15,-0.11 -15.79,-0.47 -25.6,-1.24 -9.82,-0.76 -20.82,-1.92 -32.68,-3.59" /><path
         id="path56"
         style="fill:#fade04;fill-opacity:1;fill-rule:nonzero;stroke:none"
         d="m 1856.53,2200.91 c -0.69,-0.11 -10.81,-6.82 -26.76,-18.69 -15.95,-11.84 -37.72,-28.83 -61.72,-49.43 -24,-20.61 -50.22,-44.84 -75.06,-71.22 -24.84,-26.37 -48.3,-54.86 -66.78,-84 -18.62,-28.96 -30.19,-55.28 -37.07,-78.44 -6.88,-23.18 -9.06,-43.22 -8.91,-59.65 0.15,-16.42 2.63,-29.21 5.07,-37.93 2.45,-8.71 4.87,-13.32 4.88,-13.35 0.01,0.07 7.04,2.53 18.72,7.94 11.69,5.4 28.03,13.72 46.65,25.55 18.63,11.81 39.54,27.11 60.38,46.45 20.84,19.31 41.6,42.67 59.91,70.59 18.29,27.98 32.48,58.37 43.47,88.19 10.99,29.81 18.79,59.07 24.3,84.83 5.51,25.77 8.74,48.02 10.59,63.86 1.86,15.83 2.34,25.24 2.37,25.28 v 0 c 0,0.02 -0.01,0.02 -0.01,0.02 h -0.01 -0.02" /><path
         id="path58"
         style="fill:#fade04;fill-opacity:1;fill-rule:nonzero;stroke:none"
         d="m 1435.14,1394.21 v 0 c 0.01,-0.04 -6.3,-5.1 -16.03,-14.4 -9.72,-9.31 -22.84,-22.85 -36.41,-39.84 -13.57,-17.01 -27.6,-37.46 -39.15,-60.58 -11.54,-23.12 -20.6,-48.93 -24.23,-76.61 -3.65,-27.73 -1.42,-54.91 4,-80.07 5.43,-25.18 14.05,-48.35 23.11,-68.07 9.08,-19.71 18.62,-35.96 25.9,-47.29 7.26,-11.33 12.28,-17.741 12.33,-17.768 0.05,0 7.06,9.449 17.74,25.388 10.67,15.93 25.03,38.34 39.8,64.26 14.77,25.92 29.93,55.35 42.23,85.33 12.29,29.96 21.71,60.48 25.01,88.58 3.32,28.09 0.36,50.95 -5.96,69.44 -6.3,18.5 -15.97,32.63 -26.06,43.24 -10.08,10.62 -20.61,17.72 -28.62,22.16 -8.04,4.45 -13.55,6.24 -13.66,6.23" /><path
         id="path60"
         style="fill:#fade04;fill-opacity:1;fill-rule:nonzero;stroke:none"
         d="m 1187.64,1436.74 c -9.47,-1.33 -19.79,-3.18 -30.78,-5.72 -11,-2.55 -22.69,-5.78 -34.94,-9.87 -12.25,-4.09 -25.09,-9.04 -38.36,-15.01 -13.25,-5.97 -26.97,-12.97 -40.98,-21.15 -29.16,-17.13 -57.006,-37.44 -82.369,-58.3 -25.363,-20.86 -48.246,-42.25 -67.5,-61.5 -19.238,-19.27 -34.848,-36.39 -45.648,-48.71 -10.801,-12.32 -16.786,-19.83 -16.817,-19.87 -0.074,-0.49 2.867,-1.13 8.297,-1.67 5.437,-0.55 13.363,-1 23.262,-1.12 9.898,-0.11 21.781,0.11 35.113,0.91 13.328,0.8 28.105,2.18 43.828,4.37 13.547,1.89 27.797,4.4 42.395,7.66 14.617,3.27 29.579,7.31 44.579,12.26 14.99,4.96 30.03,10.83 44.73,17.78 14.73,6.95 29.13,14.97 42.89,24.23 29.46,18.95 52.88,39.48 71.42,59.63 18.54,20.14 32.19,39.89 42.19,57.27 9.99,17.38 16.32,32.41 20.14,43.1 3.82,10.69 5.18,17.04 5.22,17.1 -0.03,0.08 -1.66,0.4 -4.72,0.73 -3.05,0.34 -7.55,0.69 -13.32,0.86 -5.76,0.16 -12.81,0.14 -20.96,-0.29 -8.16,-0.43 -17.44,-1.25 -27.67,-2.69 m 66.67,1.39 v 0" /><path
         id="path62"
         style="fill:#fade04;fill-opacity:1;fill-rule:nonzero;stroke:none"
         d="m 1326.72,1389.86 c 0,-0.04 -7.1,-2.39 -18.96,-7.53 -11.85,-5.16 -28.46,-13.12 -47.46,-24.42 -19.01,-11.29 -40.44,-25.9 -61.92,-44.34 -21.5,-18.47 -43.07,-40.76 -62.35,-67.4 -19.32,-26.69 -34.6,-55.72 -46.64,-84.29 -12.05,-28.56 -20.86,-56.64 -27.26,-81.4 -6.4,-24.78 -10.38,-46.24 -12.76,-61.52 -2.39,-15.29 -3.17,-24.409 -3.17,-24.511 0,-0.008 0,-0.008 0.02,-0.008 l 0.01,-0.019 c 0.01,0 0.02,0 0.03,0 0.01,0 0.03,0 0.04,0 1.06,0.137 11.93,6.138 28.84,16.848 16.93,10.69 39.88,26.09 65.1,45 25.21,18.9 52.68,41.33 78.62,66.11 25.96,24.78 50.39,51.92 69.52,80.23 19.32,28.2 31.37,54.01 38.57,76.86 7.21,22.87 9.57,42.75 9.52,59.12 -0.05,16.35 -2.5,29.19 -4.94,37.93 -2.44,8.74 -4.84,13.36 -4.81,13.34" /><path
         id="path64"
         style="fill:#fade04;fill-opacity:1;fill-rule:nonzero;stroke:none"
         d="m 1749.39,1584.37 c -7.65,-1.07 -15.07,-2.5 -22.21,-4.18 -7.13,-1.68 -13.97,-3.62 -20.47,-5.69 -6.49,-2.07 -12.63,-4.29 -18.36,-6.55 -5.73,-2.27 -11.05,-4.56 -15.89,-6.79 -4.87,-2.23 -9.25,-4.41 -13.1,-6.38 -3.85,-2.01 -7.16,-3.82 -9.88,-5.35 -2.72,-1.53 -4.83,-2.79 -6.29,-3.68 -1.46,-0.87 -2.27,-1.37 -2.36,-1.38 v 0 c -0.03,-0.2 -0.29,-6.24 0.98,-15.73 1.26,-9.49 4.04,-22.44 10.1,-36.48 6.06,-14.02 15.39,-29.14 29.76,-42.95 14.36,-13.8 33.76,-26.32 59.94,-35.16 26.02,-7.78 55.95,-13.46 86.27,-17.64 30.32,-4.18 61.03,-6.88 88.6,-8.71 27.58,-1.82 52.01,-2.79 69.78,-3.5 17.77,-0.72 28.87,-1.2 29.78,-2.05 -0.57,1.22 -4.9,11.13 -12.66,25.95 -7.75,14.81 -18.93,34.55 -33.22,55.44 -14.28,20.89 -31.66,42.94 -51.81,62.39 -20.14,19.46 -43.06,36.32 -68.42,46.84 -8.64,3.62 -17.3,6.42 -25.92,8.53 -8.61,2.11 -17.19,3.51 -25.65,4.33 -8.47,0.82 -16.82,1.05 -25,0.8 -8.18,-0.24 -16.2,-0.97 -23.97,-2.06 m 266.65,-202.22 c 0.01,-0.03 0.02,-0.05 0.02,-0.06 0.01,-0.01 0.01,-0.03 0.02,-0.04 0,-0.01 0.01,-0.02 0.01,-0.03 h 0.01 v 0.03 c -0.01,0.01 -0.01,0.02 -0.02,0.03 0,0.01 -0.01,0.02 -0.02,0.03 0,0.01 -0.01,0.02 -0.02,0.04" /><path
         id="path66"
         style="fill:#fade04;fill-opacity:1;fill-rule:nonzero;stroke:none"
         d="m 1558.92,1453.39 c -1.22,-0.17 -2.3,-0.34 -3.24,-0.49 -0.94,-0.15 -1.75,-0.3 -2.4,-0.42 -0.65,-0.12 -1.15,-0.22 -1.49,-0.29 -0.34,-0.07 -0.51,-0.11 -0.52,-0.12 0.02,-0.03 -3.78,-6.41 -8.65,-17.22 -4.87,-10.8 -10.82,-26.03 -15.12,-43.77 -4.29,-17.75 -6.93,-38.02 -5.17,-58.88 1.76,-20.87 7.91,-42.34 21.19,-62.5 13.38,-19.66 32.65,-37.03 54.03,-52.06 21.39,-15.04 44.9,-27.73 66.74,-38.03 21.83,-10.31 41.99,-18.22 56.69,-23.69 14.69,-5.46 23.92,-8.48 23.87,-8.99 v -0.01 c 0.03,0.01 1.6,9.77 3.11,25.77 1.52,16 2.97,38.23 2.75,63.16 -0.21,24.93 -2.1,52.55 -7.26,79.35 -5.16,26.79 -13.6,52.76 -26.91,74.38 -11.22,18.28 -25.05,31.64 -39.89,41.34 -14.84,9.69 -30.69,15.73 -45.96,19.36 -15.26,3.63 -29.94,4.87 -42.43,4.97 -12.49,0.09 -22.81,-0.95 -29.34,-1.86" /></g></g></svg>