<?xml version="1.0" encoding="UTF-8"?>
<svg width="53px" height="47px" viewBox="0 0 53 47" version="1.1"
  xmlns="http://www.w3.org/2000/svg"
  xmlns:xlink="http://www.w3.org/1999/xlink">
  <title>EUROMAT Logo</title>
  <g stroke="none" stroke-width="1" fill="none" fill-rule="evenodd">
    <path d="M26.4686954,44.7104909 L28.7794217,44.7104909 L26.9099866,43.3522865 L27.6240081,41.1547075 L25.7546066,42.5128783 L23.8852051,41.1547411 L24.5992266,43.3522529 L22.7297579,44.7104573 L25.0405851,44.7104573 L25.7546066,46.9081372 L26.4686954,44.7104909 L26.4686954,44.7104909 Z M16.9273033,42.1539677 L19.2380968,42.1539005 L17.3686617,40.795696 L18.0826496,38.598117 L16.2132818,39.9562542 L14.343813,38.5980834 L15.0579018,40.7957297 L13.1883995,42.1539677 L15.499193,42.1537996 L16.2132145,44.351614 L16.9273033,42.1539677 L16.9273033,42.1539677 Z M35.2960323,44.3515131 L36.0100538,42.1539341 L38.3207801,42.1539005 L36.451345,40.7957297 L37.1654674,38.598117 L35.295965,39.9562878 L33.426698,38.5980498 L34.1406859,40.795696 L32.2712508,42.1539677 L34.5819435,42.1539005 L35.295965,44.3515804 L35.2960323,44.3515131 Z M9.94263618,35.1691997 L12.2532952,35.1690652 L10.3838937,33.810928 L11.0979153,31.613349 L9.22844654,32.9715535 L7.35911231,31.6133826 L8.07320108,33.8110289 L6.20369872,35.1691661 L8.51452589,35.1691661 L9.22864829,37.3668796 L9.94263618,35.1691997 L9.94263618,35.1691997 Z M42.9948218,35.1691661 L45.3055481,35.1691661 L43.4361466,33.8110289 L44.1502354,31.6133826 L42.280733,32.9715198 L40.4112307,31.6133826 L41.1253194,33.8108944 L39.2560188,35.1691997 L41.5667451,35.1691997 L42.2808339,37.366846 L42.9948218,35.1691661 L42.9948218,35.1691661 Z M42.9948554,13.5833894 L45.3054472,13.5833221 L43.4361802,12.2250841 L44.1502354,10.0273705 L42.2808003,11.3857767 L40.4113315,10.0274042 L41.1253531,12.2250841 L39.2560188,13.5833557 L41.5667115,13.5832885 L42.2809011,15.7810693 L42.9948554,13.5833894 L42.9948554,13.5833894 Z M8.68718897,13.5833894 L6.37659718,13.5833221 L8.24586416,12.2250841 L7.53184264,10.0273705 L9.40127774,11.3857767 L11.2707465,10.0274042 L10.5566913,12.2250841 L12.4260256,13.5833557 L10.1153329,13.5832885 L9.40114324,15.7810693 L8.68718897,13.5833894 L8.68718897,13.5833894 Z M36.0100538,6.59852051 L38.3207801,6.59862139 L36.4514122,5.24024882 L37.165501,3.04260256 L35.2959987,4.40094149 L33.426698,3.04263618 L34.1405851,5.24024882 L32.2712508,6.59855414 L34.5819435,6.59858776 L35.2958978,8.7962004 L36.0100538,6.59852051 Z M15.6720242,6.59852051 L13.3612979,6.59862139 L15.2306658,5.24024882 L14.516577,3.04260256 L16.3860794,4.40094149 L18.25538,3.04263618 L17.5415266,5.24024882 L19.4108272,6.59855414 L17.1001345,6.59858776 L16.3861802,8.7962004 L15.6720242,6.59852051 L15.6720242,6.59852051 Z M24.7508742,2.77659718 L23.6239744,0.759448554 L25.721419,1.72885003 L27.2917283,0.0335911231 L27.0176866,2.32811029 L29.1153329,3.29761264 L26.8485205,3.74616678 L26.5744788,6.04055145 L25.4475118,4.02330195 L23.1805649,4.47178884 L24.7508742,2.77659718 L24.7508742,2.77659718 Z" fill="#ffb703"></path>
    <g transform="translate(0.000000, 17.888366)" fill-rule="nonzero">
      <path d="M25.3700067,2.8104573 C25.2153329,2.8104573 25.1382986,2.88755884 25.1382986,3.04176194 L25.1382986,10.3458978 C25.1382986,10.4343309 25.1530599,10.4974109 25.1829186,10.5358104 C25.2124412,10.5745124 25.2808003,10.5938803 25.3876597,10.5938803 L26.3676866,10.5938803 C26.4742434,10.5938803 26.5425689,10.5745124 26.5724277,10.5358104 C26.6019502,10.4974109 26.6170477,10.4343309 26.6170477,10.3458978 L26.6170477,3.04176194 C26.6170477,2.88755884 26.5393746,2.8104573 26.3853396,2.8104573 L25.3700067,2.8104573 L25.3700067,2.8104573 Z M29.2359449,10.9903497 C29.2359449,11.2216543 29.2060861,11.4392401 29.1467384,11.6428379 C29.0870545,11.847041 28.9862811,12.0259583 28.843813,12.1801278 C28.7016476,12.3346335 28.5113315,12.4584398 28.2738736,12.5519166 C28.0360794,12.645696 27.7392401,12.6924344 27.3830195,12.6924344 L24.3899462,12.6924344 C24.0337592,12.6924344 23.7365837,12.645696 23.4994284,12.5519166 C23.2616342,12.4584398 23.071688,12.3346335 22.9295225,12.1801278 C22.8935104,12.1412576 22.2830868,11.5384667 22.2523537,11.4964358 C22.1612979,11.3717552 22.6706456,11.7955615 22.6262609,11.6428379 C22.5668796,11.4392401 22.5373571,11.2216543 22.5373571,10.9903497 L22.5373571,2.26482851 C22.5373571,1.79156019 22.6766308,1.41408877 22.9558171,1.13281775 C23.2347007,0.852118359 23.6775387,0.711600538 24.2830868,0.711600538 L27.4899126,0.711600538 C27.960659,0.711600538 27.7650975,0.228950908 28.038534,0.398419637 C28.1170477,0.447074647 28.7549092,1.07020847 28.8171486,1.13281775 C29.0960323,1.41408877 29.2359449,1.79156019 29.2359449,2.26482851 L29.2359449,10.9903497 L29.2359449,10.9903497 Z M17.3707801,2.8104573 L17.3707801,6.94179556 L18.6358104,6.94179556 C18.8020175,6.94179556 18.8854741,6.85874243 18.8854741,6.69354405 L18.8854741,3.05810356 C18.8854741,2.89290518 18.8020175,2.8104573 18.6358104,2.8104573 L17.3707801,2.8104573 L17.3707801,2.8104573 Z M21.4328178,7.81751849 C21.4328178,8.08184264 21.3349361,8.32444519 21.1388702,8.54472091 C20.9427707,8.76499664 20.6546066,8.87515131 20.2746469,8.87515131 L21.6288837,12.6924344 L18.9563887,12.6924344 L18.287458,12.020074 L17.7093477,8.87515131 L17.3707801,8.87515131 L17.3707801,12.6924344 L14.7878278,12.6924344 L14.1197714,11.9856086 L14.7878278,0.711600538 L19.6870881,0.711600538 C20.1140551,0.711600538 19.9110962,0.192837929 20.1757566,0.332447882 C20.2864492,0.390820444 20.9317081,1.05003362 21.0140215,1.13281775 C21.2932078,1.41408877 21.4328178,1.79156019 21.4328178,2.26482851 L21.4328178,7.81751849 L21.4328178,7.81751849 Z M9.05131137,12.6924344 C8.30295898,12.6924344 7.78019502,12.5492603 7.48335575,12.2625757 C7.33493611,12.1195696 6.75141224,11.6005044 6.6771688,11.363618 C6.60289173,11.126698 7.03796234,11.1719233 7.03796234,10.8415266 L7.03796234,0.711600538 L9.05131137,0.0273032952 L9.67484869,0.711600538 L9.67484869,10.3292535 C9.67484869,10.417653 9.68960995,10.483423 9.71913248,10.5274714 C9.74895763,10.5718561 9.81731675,10.5938803 9.92417619,10.5938803 L10.8329859,10.5938803 C10.9398453,10.5938803 11.0078682,10.5718561 11.037727,10.5274714 C11.0672495,10.483423 11.0823134,10.417653 11.0823134,10.3292535 L11.0823134,0.711600538 L13.0278077,0.0273032952 L13.7188971,0.711600538 L13.7188971,10.8415266 C13.7188971,11.5023537 13.5703093,11.9765299 13.2734701,12.2625757 C12.9762946,12.5492603 12.4538668,12.6924344 11.7058507,12.6924344 L9.05131137,12.6924344 L9.05131137,12.6924344 Z M0.677942165,0.711600538 L5.04546066,0.0273032952 L5.70201748,0.711600538 L6.14744452,2.94233356 L3.33278413,2.94233356 L3.33278413,5.78503699 L4.80817081,5.10198386 L5.47034297,5.78503699 L5.47034297,7.85057162 L3.33278413,7.85057162 L3.33278413,10.4617014 L5.47034297,9.79014795 L6.04024882,10.4617014 L5.59515804,12.6924344 L0.677942165,12.6924344 L0.0285474109,11.9856086 L0.677942165,0.711600538 L0.677942165,0.711600538 Z" fill="#023047"></path>
      <path d="M24.6920646,2.13251513 C24.5373907,2.13251513 24.4603564,2.20961668 24.4603564,2.36381977 L24.4603564,9.66798924 C24.4603564,9.7563887 24.4751177,9.81950235 24.5049765,9.85790182 C24.534499,9.8966039 24.6028581,9.91593813 24.7097176,9.91593813 L25.6897445,9.91593813 C25.7963013,9.91593813 25.8646604,9.8966039 25.8944855,9.85790182 C25.9240081,9.81950235 25.9391056,9.7563887 25.9391056,9.66798924 L25.9391056,2.36381977 C25.9391056,2.20961668 25.8614324,2.13251513 25.7073974,2.13251513 L24.6920646,2.13251513 L24.6920646,2.13251513 Z M28.5580027,10.3124412 C28.5580027,10.5437122 28.5281775,10.7612979 28.4687962,10.9649294 C28.4091123,11.1691325 28.3083389,11.3480161 28.1658709,11.5022192 C28.0237054,11.6566913 27.833423,11.7805313 27.5959314,11.8740081 C27.3581372,11.9677539 27.0612979,12.0144923 26.705111,12.0144923 L23.7120377,12.0144923 C23.3558171,12.0144923 23.0586416,11.9677539 22.8215198,11.8740081 C22.5837256,11.7805313 22.3937458,11.6566913 22.2515804,11.5022192 C22.1087761,11.3480161 22.0077001,11.1691325 21.9483188,10.9649294 C21.8889711,10.7612979 21.8594486,10.5437122 21.8594486,10.3124412 L21.8594486,1.58691997 C21.8594486,1.11361802 21.9987223,0.736180229 22.2779085,0.454875588 C22.5567586,0.174176194 22.9995965,0.0336919973 23.6051446,0.0336919973 L26.8119704,0.0336919973 C27.4178211,0.0336919973 27.8600538,0.174176194 28.1392401,0.454875588 C28.4180901,0.736180229 28.5580027,1.11361802 28.5580027,1.58691997 L28.5580027,10.3124412 L28.5580027,10.3124412 Z M16.6928716,2.13251513 L16.6928716,6.2638534 L17.9578682,6.2638534 C18.1241089,6.2638534 18.2075319,6.18080027 18.2075319,6.01560188 L18.2075319,2.38019502 C18.2075319,2.21499664 18.1241089,2.13251513 17.9578682,2.13251513 L16.6928716,2.13251513 Z M20.7548756,7.13960995 C20.7548756,7.4039341 20.6569939,7.64653665 20.460928,7.86677875 C20.2648621,8.08705447 19.976698,8.19720915 19.5967384,8.19720915 L20.9509415,12.0144923 L18.2784465,12.0144923 L17.0314055,8.19720915 L16.6928716,8.19720915 L16.6928716,12.0144923 L14.1098857,12.0144923 L14.1098857,0.0336919973 L19.0091459,0.0336919973 C19.614694,0.0336919973 20.0568931,0.174176194 20.336113,0.454875588 C20.6152993,0.736180229 20.7548756,1.11361802 20.7548756,1.58691997 L20.7548756,7.13960995 L20.7548756,7.13960995 Z M8.3733692,12.0144923 C7.62501681,12.0144923 7.10228648,11.8713181 6.80544721,11.5846671 C6.50860794,11.2985878 6.36002017,10.8244116 6.36002017,10.1635844 L6.36002017,0.0336919973 L8.99690652,0.0336919973 L8.99690652,9.65131137 C8.99690652,9.73971083 9.01166779,9.80551446 9.04119032,9.84956288 C9.07104909,9.89391392 9.13937458,9.91593813 9.24623403,9.91593813 L10.1550437,9.91593813 C10.2619032,9.91593813 10.3299597,9.89391392 10.3597848,9.84956288 C10.3893073,9.80551446 10.4044048,9.73971083 10.4044048,9.65131137 L10.4044048,0.0336919973 L13.0409549,0.0336919973 L13.0409549,10.1635844 C13.0409549,10.8244116 12.8923672,11.2985878 12.5955279,11.5846671 C12.298386,11.8713181 11.7759583,12.0144923 11.0279085,12.0144923 L8.3733692,12.0144923 Z M-1.13686838e-13,0.0336919973 L5.02410894,0.0336919973 L5.46950235,2.26439139 L2.65484196,2.26439139 L2.65484196,5.10712845 L4.79240081,5.10712845 L4.79240081,7.17262946 L2.65484196,7.17262946 L2.65484196,9.78375925 L5.36234028,9.78375925 L4.9172495,12.0144923 L-1.13686838e-13,12.0144923 L-1.13686838e-13,0.0336919973 Z" fill="white"></path>
      <path d="M52.2246133,0.252219233 L52.9020847,2.57306658 L51.0775723,2.57306658 L51.0775723,12.7167451 L48.2940148,12.7167451 L48.2940148,2.57306658 L46.4698386,2.57306658 L47.1845999,0.252219233 L52.2246133,0.252219233 L52.2246133,0.252219233 Z M42.6703766,9.19226631 L43.9305313,9.19226631 L43.3102555,4.77380632 L42.6703766,9.19226631 L42.6703766,9.19226631 Z M42.3695696,11.1694015 L42.1246806,12.7167451 L39.3793544,12.7167451 L41.8428043,0.252219233 L44.7578009,0.252219233 L47.2221923,12.7167451 L44.4759247,12.7167451 L44.2313719,11.1694015 L42.3695696,11.1694015 L42.3695696,11.1694015 Z M32.5334566,6.83671822 L32.5334566,12.7167451 L29.8813719,12.7167451 L29.8813719,0.252219233 L32.7590787,0.252219233 L34.2448554,5.51294553 L35.7309348,0.252219233 L38.6273033,0.252219233 L38.6273033,12.7167451 L35.9752186,12.7167451 L35.9752186,6.83671822 L34.2448554,11.822764 L32.5334566,6.83671822 L32.5334566,6.83671822 Z" fill="#023047"></path>
    </g>
  </g>
</svg>
