<?xml version="1.0" encoding="UTF-8"?>
<svg width="1317px" height="567px" viewBox="0 0 1317 567" version="1.1" xmlns="http://www.w3.org/2000/svg" xmlns:xlink="http://www.w3.org/1999/xlink">
    <!-- Generator: Sketch 46.2 (44496) - http://www.bohemiancoding.com/sketch -->
    <title>Euromat RUNDE 2</title>
    <desc>Created with Sketch.</desc>
    <defs>
        <linearGradient x1="79.6022473%" y1="19.5865396%" x2="14.5247952%" y2="80.1804476%" id="linearGradient-1">
            <stop stop-color="#FEE872" offset="0%"></stop>
            <stop stop-color="#F5A960" offset="100%"></stop>
        </linearGradient>
        <path d="M277.151,520.584 L286.018,492.063 L262.079,509.926 L237.694,492.68 L247.285,520.966 L223.348,538.83 L253.213,538.447 L262.804,566.734 L271.671,538.213 L301.538,537.831 L277.151,520.584 Z M402.993,499.002 L411.859,470.48 L387.922,488.343 L363.537,471.098 L373.128,499.384 L349.191,517.248 L379.056,516.866 L388.647,545.152 L397.514,516.631 L427.38,516.249 L402.993,499.002 Z M515.551,297.997 L491.614,315.86 L521.48,315.48 L531.071,343.765 L539.937,315.243 L569.803,314.862 L545.416,297.615 L554.282,269.093 L530.345,286.957 L505.96,269.712 L515.551,297.997 Z M532.702,143.251 L508.763,161.114 L484.378,143.868 L493.969,172.154 L470.032,190.018 L499.897,189.636 L509.489,217.922 L518.355,189.401 L548.221,189.02 L523.835,171.774 L532.702,143.251 Z M525.572,434.637 L501.186,417.39 L510.052,388.868 L486.114,406.732 L461.729,389.485 L471.32,417.771 L447.383,435.635 L477.249,435.254 L486.84,463.539 L495.706,435.018 L525.572,434.637 Z M75.765,378.161 L84.632,349.64 L60.694,367.503 L36.308,350.257 L45.898,378.543 L21.96,396.406 L51.827,396.025 L61.417,424.311 L70.284,395.79 L100.15,395.407 L75.765,378.161 Z M54.182,252.318 L63.048,223.795 L39.111,241.659 L14.726,224.414 L24.317,252.699 L0.378,270.564 L30.245,270.181 L39.836,298.469 L48.703,269.946 L78.568,269.564 L54.182,252.318 Z M205.471,22.409 L181.534,40.274 L157.149,23.027 L166.74,51.313 L142.802,69.176 L172.668,68.795 L182.26,97.081 L191.126,68.56 L220.991,68.178 L196.605,50.932 L205.471,22.409 Z M331.316,0.828 L307.377,18.692 L282.992,1.445 L292.583,29.732 L268.645,47.594 L298.511,47.213 L308.102,75.498 L316.968,46.978 L346.834,46.596 L322.448,29.351 L331.316,0.828 Z M74.476,150.407 L84.067,178.693 L92.934,150.171 L122.799,149.79 L98.413,132.544 L107.279,104.022 L83.342,121.886 L58.955,104.639 L68.548,132.925 L44.61,150.788 L74.476,150.407 Z M157.377,476.353 L166.244,447.831 L142.306,465.694 L117.92,448.448 L127.51,476.735 L103.574,494.599 L133.439,494.216 L143.03,522.503 L151.896,493.982 L181.764,493.6 L157.377,476.353 Z M442.222,73.581 L466.609,90.828 L436.743,91.209 L427.877,119.73 L418.285,91.444 L388.421,91.825 L412.357,73.963 L402.765,45.677 L427.151,62.923 L451.089,45.06 L442.222,73.581 Z" id="path-2"></path>
        <polygon id="path-4" points="35.9863248 59.7362954 35.9863248 0.730264615 0.00970940171 0.730264615 0.00970940171 59.7362954 35.9863248 59.7362954"></polygon>
        <polygon id="path-6" points="0.0513205282 0.904504615 0.0513205282 59.7358892 44.7779712 59.7358892 44.7779712 0.904504615 0.0513205282 0.904504615"></polygon>
        <path d="M51.0248753,30.1182979 C51.0248753,13.6502128 64.4503502,0.251003755 80.950717,0.251003755 C97.4510838,0.251003755 110.872676,13.6502128 110.872676,30.1182979 C110.872676,46.5902578 97.4510838,59.985592 80.950717,59.985592 C64.4503502,59.985592 51.0248753,46.5902578 51.0248753,30.1182979 Z M64.8191819,30.1182979 C64.8191819,38.9955645 72.0560487,46.214398 80.950717,46.214398 C89.8415028,46.214398 97.0783696,38.9955645 97.0783696,30.1182979 C97.0783696,21.2410313 89.8415028,14.0221977 80.950717,14.0221977 C72.0560487,14.0221977 64.8191819,21.2410313 64.8191819,30.1182979 Z M192.128247,17.5405557 C192.128247,29.4324506 202.641893,32.6601952 211.004667,35.3842103 C216.463376,37.1201402 220.935946,38.6894518 220.935946,42.3279299 C220.935946,45.2185632 217.294218,47.27998 212.988593,47.27998 C208.186016,47.27998 203.057314,45.3813066 197.757784,42.9866533 C197.012356,42.6534168 196.103865,42.9014068 195.773858,43.6492516 L191.215874,52.0731615 C190.885867,52.8171314 191.134343,53.7277196 191.879771,54.0570814 C198.918633,57.6878098 205.452779,59.6756045 213.489428,59.6756045 C226.150062,59.6756045 234.924375,51.8212966 234.924375,41.7467034 C234.924375,31.1722553 226.072413,27.2044155 218.035764,24.3990288 C211.579268,22.0818723 205.786668,20.5125607 205.452779,16.9593292 C205.37513,13.8207059 208.601437,12.7473742 212.080102,12.7473742 C216.715735,12.7473742 223.587652,15.2272741 227.225498,16.5447209 C228.05634,16.8779574 228.883299,16.5447209 229.213307,15.8046258 L232.940448,7.29159449 C233.270456,6.46625282 232.940448,5.64091114 232.19502,5.23017772 C222.508334,0.766357947 214.890988,0.270377972 211.253143,0.270377972 C200.157131,0.270377972 192.128247,6.7142428 192.128247,17.5405557 Z M166.53909,1.18096621 C165.716013,1.18096621 165.052116,1.84356446 165.052116,2.66503129 L165.052116,57.5289412 C165.052116,58.350408 165.716013,59.0130063 166.53909,59.0130063 L176.808142,59.0130063 C177.635101,59.0130063 178.298999,58.350408 178.298999,57.5289412 L178.298999,2.66503129 C178.298999,1.84356446 177.635101,1.18096621 176.808142,1.18096621 L166.53909,1.18096621 Z M123.952614,1.18096621 C123.129537,1.18096621 122.46564,1.84356446 122.46564,2.66503129 L122.46564,57.5289412 C122.46564,58.350408 123.129537,59.0130063 123.952614,59.0130063 L152.290538,59.0130063 C153.117498,59.0130063 153.777512,58.350408 153.777512,57.5289412 L153.777512,48.1944431 C153.777512,47.3613517 153.117498,46.7026283 152.290538,46.7026283 L135.790171,46.7026283 L135.790171,2.66503129 C135.790171,1.84356446 135.130157,1.18096621 134.303197,1.18096621 L123.952614,1.18096621 Z M1.91978376,1.18096621 L22.7801298,1.18096621 C38.841781,1.18096621 43.7258895,12.4141377 43.7258895,20.2645707 C43.7258895,31.8348536 33.5383689,39.6000401 23.7740343,39.6000401 L13.757341,39.6000401 L13.757341,57.5289412 C13.757341,58.350408 13.0973263,59.0130063 12.2664843,59.0130063 L1.91978376,59.0130063 C1.0928242,59.0130063 0.428927091,58.350408 0.428927091,57.5289412 L0.428927091,2.66503129 C0.428927091,1.84356446 1.0928242,1.18096621 1.91978376,1.18096621 Z M13.757341,13.4060976 L13.757341,27.2044155 L23.4401445,27.2044155 C29.155095,27.0377972 30.4790068,22.411234 30.4790068,20.2645707 C30.4790068,17.8660426 29.155095,13.4060976 23.1955508,13.4060976 L13.757341,13.4060976 Z M127.244922,98.9936421 C127.244922,82.5255569 140.666515,69.1224731 157.166882,69.1224731 C173.667249,69.1224731 187.092723,82.5255569 187.092723,98.9936421 C187.092723,115.461727 173.667249,128.857061 157.166882,128.857061 C140.666515,128.857061 127.244922,115.461727 127.244922,98.9936421 Z M141.039229,98.9936421 C141.039229,107.867034 148.272213,115.089742 157.166882,115.089742 C166.06155,115.089742 173.298417,107.867034 173.298417,98.9936421 C173.298417,90.1163755 166.06155,82.8936671 157.166882,82.8936671 C148.272213,82.8936671 141.039229,90.1163755 141.039229,98.9936421 Z M78.6561954,86.7530113 C78.6561954,80.3246458 82.3988668,69.1224731 98.4954599,69.1224731 C114.588171,69.1224731 118.416256,80.4990138 118.156132,86.7530113 C118.066836,89.7908886 116.587627,95.6961502 111.365746,98.9045207 C116.498331,101.771905 118.156132,107.154063 118.156132,110.974658 C118.156132,117.313902 114.588171,128.857061 98.4954599,128.857061 C82.3988668,128.857061 78.8309051,117.403024 78.8309051,111.06378 C78.8309051,107.064941 81.3544907,100.90394 85.2718719,98.8231489 C81.0982497,96.7384831 78.6561954,92.135169 78.6561954,86.7530113 Z M91.61966,86.7530113 C91.61966,90.8332215 95.0129119,92.9140125 98.4954599,92.9140125 C101.974125,92.9140125 105.278081,90.8332215 105.278081,86.7530113 C105.278081,82.7580476 101.974125,80.8477497 98.4954599,80.8477497 C95.0129119,80.8477497 91.61966,82.7580476 91.61966,86.7530113 Z M91.61966,111.06378 C91.61966,115.14399 95.0129119,117.139534 98.4954599,117.139534 C101.974125,117.139534 105.278081,114.880501 105.278081,111.06378 C105.278081,106.979695 101.974125,104.898904 98.4954599,104.898904 C95.0129119,104.898904 91.61966,106.979695 91.61966,111.06378 Z M55.6993321,70.0756846 C54.8723726,70.0756846 54.2084755,70.7382829 54.2084755,71.5597497 L54.2084755,126.42366 C54.2084755,127.249001 54.8723726,127.911599 55.6993321,127.911599 L65.9683839,127.911599 C66.7914611,127.911599 67.4553582,127.249001 67.4553582,126.42366 L67.4553582,71.5597497 C67.4553582,70.7382829 66.7914611,70.0756846 65.9683839,70.0756846 L55.6993321,70.0756846 Z" id="path-8"></path>
        <path d="M79.8145248,59.9441324 C63.6237651,59.7763743 50.5022314,46.4552471 50.5022314,30.0982857 C50.5022314,13.7451722 63.6237651,0.42024578 79.8145248,0.252439512 L79.8145248,14.0158538 C71.152442,14.1824733 64.1563223,21.3310544 64.1563223,30.0982857 C64.1563223,38.8655171 71.152442,46.0140982 79.8145248,46.1807176 L79.8145248,59.9441324 L79.8145248,59.9441324 Z M79.8145248,94.3830815 C78.5423582,92.2192259 77.852686,89.568331 77.852686,86.6953681 C77.852686,84.3137495 78.3618588,81.2764435 79.8145248,78.3969542 L79.8145248,94.3830815 Z M79.8145248,104.041475 C78.6708599,106.369796 78.0256198,108.958958 78.0256198,110.989983 C78.0256198,113.271717 78.483778,116.216539 79.8145248,119.050788 L79.8145248,104.041475 L79.8145248,104.041475 Z M1.89628099,1.18018151 L22.5445868,1.18018151 C38.4429752,1.18018151 43.277438,12.4058891 43.277438,20.2511059 C43.277438,31.8137008 33.1934711,39.5737277 23.5283884,39.5737277 L13.6135124,39.5737277 L13.6135124,57.490716 C13.6135124,58.311637 12.9602066,58.973795 12.1378099,58.973795 L1.89628099,58.973795 C1.07772727,58.973795 0.420578512,58.311637 0.420578512,57.490716 L0.420578512,2.6632605 C0.420578512,1.8423395 1.07772727,1.18018151 1.89628099,1.18018151 Z M13.6135124,13.3971899 L13.6135124,27.1863395 L23.1978926,27.1863395 C28.8547521,27.0198319 30.1652066,22.3963429 30.1652066,20.2511059 C30.1652066,17.8541714 28.8547521,13.3971899 22.9557851,13.3971899 L13.6135124,13.3971899 Z M55.1291736,70.0291227 C54.3106198,70.0291227 53.6534711,70.6912807 53.6534711,71.5122017 L53.6534711,126.339657 C53.6534711,127.16445 54.3106198,127.826608 55.1291736,127.826608 L65.293843,127.826608 C66.1085537,127.826608 66.7657025,127.16445 66.7657025,126.339657 L66.7657025,71.5122017 C66.7657025,70.6912807 66.1085537,70.0291227 65.293843,70.0291227 L55.1291736,70.0291227 Z" id="path-10"></path>
        <path d="M110.856524,0.603175723 C110.857849,0.718946767 110.858514,0.834873634 110.858514,0.950952717 C110.858514,17.4509527 97.4386198,30.8690896 80.9403408,30.8690896 C64.4420619,30.8690896 51.0182857,17.4509527 51.0182857,0.950952717 C51.0182857,0.834873634 51.0189504,0.718946767 51.0202762,0.603175723 L64.8145421,0.603175723 C64.8120828,0.718809364 64.8108469,0.834739172 64.8108469,0.950952717 C64.8108469,9.84333098 72.046798,17.0744531 80.9403408,17.0744531 C89.8300017,17.0744531 97.0659527,9.84333098 97.0659527,0.950952717 C97.0659527,0.834739172 97.0647169,0.718809364 97.0622576,0.603175723 L110.856524,0.603175723 L110.856524,0.603175723 Z M198.22706,0.603175723 C199.582371,1.59983092 201.086237,2.4349459 202.656879,3.16131132 L202.656879,0.603175723 L198.22706,0.603175723 L198.22706,0.603175723 Z M202.656879,15.9058654 C201.035402,15.2951809 199.392394,14.5925699 197.732628,13.8412138 C196.987294,13.50741 196.078918,13.7558222 195.748952,14.50494 L191.191546,22.9431898 C190.86158,23.6884263 191.110025,24.6005646 191.855359,24.9304869 C195.498298,26.812995 199.006029,28.2545753 202.656879,29.207321 L202.656879,15.9058654 L202.656879,15.9058654 Z M165.031098,0.603175723 L165.031098,28.4082569 C165.031098,29.2311221 165.694911,29.8948483 166.517884,29.8948483 L176.785637,29.8948483 C177.612492,29.8948483 178.276305,29.2311221 178.276305,28.4082569 L178.276305,0.603175723 L165.031098,0.603175723 L165.031098,0.603175723 Z M122.450011,0.603175723 L122.450011,28.4082569 C122.450011,29.2311221 123.113824,29.8948483 123.936797,29.8948483 L152.271135,29.8948483 C153.09799,29.8948483 153.757921,29.2311221 153.757921,28.4082569 L153.757921,19.0578687 C153.757921,18.2233592 153.09799,17.5635145 152.271135,17.5635145 L135.772856,17.5635145 L135.772856,0.603175723 L122.450011,0.603175723 L122.450011,0.603175723 Z M0.428739589,0.603175723 L0.428739589,28.4082569 C0.428739589,29.2311221 1.09255269,29.8948483 1.91940762,29.8948483 L12.264799,29.8948483 C13.0955359,29.8948483 13.755467,29.2311221 13.755467,28.4082569 L13.755467,10.4488356 L23.7708928,10.4488356 C30.5217323,10.4488356 37.4748813,6.7297967 41.1228245,0.603175723 L0.428739589,0.603175723 L0.428739589,0.603175723 Z M127.228689,69.9435427 C127.228689,53.4474241 140.648583,40.0215243 157.146862,40.0215243 C173.645141,40.0215243 187.068917,53.4474241 187.068917,69.9435427 C187.068917,86.4396613 173.645141,99.8577982 157.146862,99.8577982 C140.648583,99.8577982 127.228689,86.4396613 127.228689,69.9435427 Z M141.02125,69.9435427 C141.02125,78.8320395 148.253319,86.067043 157.146862,86.067043 C166.040405,86.067043 173.276356,78.8320395 173.276356,69.9435427 C173.276356,61.0511644 166.040405,53.8161609 157.146862,53.8161609 C148.253319,53.8161609 141.02125,61.0511644 141.02125,69.9435427 Z M78.6461096,57.6820748 C78.6461096,51.2427664 82.3883074,40.0215243 98.4828638,40.0215243 C114.573538,40.0215243 118.401139,51.4174312 118.141048,57.6820748 C118.051764,60.7251235 116.572741,66.6404375 111.351521,69.8542696 C116.483457,72.7265349 118.141048,78.1178546 118.141048,81.9449541 C118.141048,88.2949894 114.573538,99.8577982 98.4828638,99.8577982 C82.3883074,99.8577982 78.8207972,88.3842625 78.8207972,82.0342272 C78.8207972,78.0285815 81.3440634,71.8570924 85.2609489,69.7727594 C81.0878548,67.6845448 78.6461096,63.0733945 78.6461096,57.6820748 Z M91.6079339,57.6820748 C91.6079339,61.7692308 95.0007564,63.8535639 98.4828638,63.8535639 C101.961089,63.8535639 105.264627,61.7692308 105.264627,57.6820748 C105.264627,53.6803105 101.961089,51.7667608 98.4828638,51.7667608 C95.0007564,51.7667608 91.6079339,53.6803105 91.6079339,57.6820748 Z M91.6079339,82.0342272 C91.6079339,86.1213832 95.0007564,88.1203246 98.4828638,88.1203246 C101.961089,88.1203246 105.264627,85.8574453 105.264627,82.0342272 C105.264627,77.9431898 101.961089,75.8588567 98.4828638,75.8588567 C95.0007564,75.8588567 91.6079339,77.9431898 91.6079339,82.0342272 Z M55.6921511,40.9763585 C54.8652962,40.9763585 54.2014831,41.6400847 54.2014831,42.4629499 L54.2014831,97.4202541 C54.2014831,98.2470007 54.8652962,98.9107269 55.6921511,98.9107269 L65.9599035,98.9107269 C66.7828765,98.9107269 67.4466896,98.2470007 67.4466896,97.4202541 L67.4466896,42.4629499 C67.4466896,41.6400847 66.7828765,40.9763585 65.9599035,40.9763585 L55.6921511,40.9763585 Z" id="path-12"></path>
    </defs>
    <g id="Page-1" stroke="none" stroke-width="1" fill="none" fill-rule="evenodd">
        <g id="Artboard-Copy" transform="translate(-31.000000, -68.000000)">
            <g id="Group" transform="translate(1.000000, -1.000000)">
                <g id="Euromat-RUNDE-2" transform="translate(30.000000, 69.000000)">
                    <g id="Group-3">
                        <g id="Group-4">
                            <mask id="mask-3" fill="white">
                                <use xlink:href="#path-2"></use>
                            </mask>
                            <use id="Clip-3" fill="url(#linearGradient-1)" xlink:href="#path-2"></use>
                            <path d="M277.151,520.584 L286.018,492.063 L262.079,509.926 L237.694,492.68 L247.285,520.966 L223.348,538.83 L253.213,538.447 L262.804,566.734 L271.671,538.213 L301.538,537.831 L277.151,520.584 Z M402.993,499.002 L411.859,470.48 L387.922,488.343 L363.537,471.098 L373.128,499.384 L349.191,517.248 L379.056,516.866 L388.647,545.152 L397.514,516.631 L427.38,516.249 L402.993,499.002 Z M515.551,297.997 L491.614,315.86 L521.48,315.48 L531.071,343.765 L539.937,315.243 L569.803,314.862 L545.416,297.615 L554.282,269.093 L530.345,286.957 L505.96,269.712 L515.551,297.997 Z M532.702,143.251 L508.763,161.114 L484.378,143.868 L493.969,172.154 L470.032,190.018 L499.897,189.636 L509.489,217.922 L518.355,189.401 L548.221,189.02 L523.835,171.774 L532.702,143.251 Z M525.572,434.637 L501.186,417.39 L510.052,388.868 L486.114,406.732 L461.729,389.485 L471.32,417.771 L447.383,435.635 L477.249,435.254 L486.84,463.539 L495.706,435.018 L525.572,434.637 Z M75.765,378.161 L84.632,349.64 L60.694,367.503 L36.308,350.257 L45.898,378.543 L21.96,396.406 L51.827,396.025 L61.417,424.311 L70.284,395.79 L100.15,395.407 L75.765,378.161 Z M54.182,252.318 L63.048,223.795 L39.111,241.659 L14.726,224.414 L24.317,252.699 L0.378,270.564 L30.245,270.181 L39.836,298.469 L48.703,269.946 L78.568,269.564 L54.182,252.318 Z M205.471,22.409 L181.534,40.274 L157.149,23.027 L166.74,51.313 L142.802,69.176 L172.668,68.795 L182.26,97.081 L191.126,68.56 L220.991,68.178 L196.605,50.932 L205.471,22.409 Z M331.316,0.828 L307.377,18.692 L282.992,1.445 L292.583,29.732 L268.645,47.594 L298.511,47.213 L308.102,75.498 L316.968,46.978 L346.834,46.596 L322.448,29.351 L331.316,0.828 Z M74.476,150.407 L84.067,178.693 L92.934,150.171 L122.799,149.79 L98.413,132.544 L107.279,104.022 L83.342,121.886 L58.955,104.639 L68.548,132.925 L44.61,150.788 L74.476,150.407 Z M157.377,476.353 L166.244,447.831 L142.306,465.694 L117.92,448.448 L127.51,476.735 L103.574,494.599 L133.439,494.216 L143.03,522.503 L151.896,493.982 L181.764,493.6 L157.377,476.353 Z M442.222,73.581 L466.609,90.828 L436.743,91.209 L427.877,119.73 L418.285,91.444 L388.421,91.825 L412.357,73.963 L402.765,45.677 L427.151,62.923 L451.089,45.06 L442.222,73.581 Z" id="Fill-2" mask="url(#mask-3)"></path>
                        </g>
                        <g id="Group-12" transform="translate(125.000000, 161.000000)">
                            <path d="M31.8419,21.0031 L31.8429,21.0031 L304.8349,21.0031 C315.6369,21.0031 324.3339,29.0271 324.3339,38.9801 L324.3339,202.8921 C324.3339,212.8451 315.6369,220.8681 304.8349,220.8681 L77.2379,220.8681 L76.3249,220.8681 C61.3149,243.1701 43.9259,260.4521 20.8729,276.3191 C29.8369,258.1231 39.1149,239.8401 43.4199,220.8681 L31.8419,220.8681 C21.0389,220.8681 12.3419,212.8441 12.3419,202.8921 L12.3419,38.9801 C12.3419,29.0261 21.0389,21.0031 31.8419,21.0031 Z M31.213,71.072 L31.213,71.072 L17.261,71.072 L17.261,106.9415 L17.261,142.811 L44.571,142.811 L47.044,129.453 L32.005,129.453 L32.005,113.818 L43.878,113.818 L43.878,101.45 L32.005,101.45 L32.005,84.431 L47.638,84.431 L45.165,71.072 L31.213,71.072 Z M299.36,71.072 L272.843,71.072 L269.084,84.431 L278.68,84.431 L278.68,142.811 L293.325,142.811 L293.325,84.431 L302.923,84.431 L299.36,71.072 Z M247.512,133.905 L257.306,133.905 L258.594,142.811 L273.041,142.811 L260.077,71.072 L244.741,71.072 L231.779,142.811 L246.224,142.811 L247.512,133.905 Z M195.763,108.97 L204.767,137.665 L213.871,108.97 L213.871,142.811 L227.823,142.811 L227.823,71.072 L212.585,71.072 L204.767,101.351 L196.95,71.072 L181.811,71.072 L181.811,142.811 L195.763,142.811 L195.763,108.97 Z M175.875,132.619 L175.875,80.373 C175.875,77.539 175.099,75.278 173.549,73.596 C171.999,71.914 169.542,71.072 166.177,71.072 L148.367,71.072 C145.003,71.072 142.544,71.914 140.995,73.596 C139.444,75.278 138.67,77.539 138.67,80.373 L138.67,132.619 C138.67,134.004 138.834,135.307 139.165,136.526 C139.494,137.748 140.055,138.819 140.847,139.743 C141.638,140.668 142.693,141.41 144.013,141.97 C145.332,142.53 146.982,142.811 148.96,142.811 L165.584,142.811 C167.563,142.811 169.211,142.53 170.532,141.97 C171.851,141.41 172.906,140.668 173.698,139.743 C174.489,138.819 175.049,137.748 175.38,136.526 C175.709,135.307 175.875,134.004 175.875,132.619 Z M132.535,113.62 L132.535,80.373 C132.535,77.539 131.759,75.278 130.21,73.596 C128.66,71.914 126.203,71.072 122.839,71.072 L95.628,71.072 L95.628,142.811 L109.975,142.811 L109.975,119.953 L111.855,119.953 L118.781,142.811 L133.624,142.811 L126.104,119.953 C128.214,119.953 129.815,119.295 130.903,117.975 C131.992,116.656 132.535,115.204 132.535,113.62 Z M63.767,142.811 L78.51,142.811 C82.666,142.811 85.568,141.953 87.217,140.237 C88.866,138.524 89.691,135.686 89.691,131.729 L89.691,71.072 L75.047,71.072 L75.047,128.66 C75.047,129.19 74.964,129.585 74.799,129.848 C74.634,130.112 74.256,130.244 73.662,130.244 L68.615,130.244 C68.022,130.244 67.642,130.112 67.477,129.848 C67.312,129.585 67.23,129.19 67.23,128.66 L67.23,71.072 L52.585,71.072 L52.585,131.729 C52.585,135.686 53.41,138.524 55.059,140.237 C56.707,141.953 59.61,142.811 63.767,142.811 Z" id="Combined-Shape" fill="#000000" opacity="0.197803442"></path>
                            <path d="M19.5573,0.1388 L19.5583,0.1388 L292.5503,0.1388 C303.3523,0.1388 312.0493,8.1628 312.0493,18.1158 L312.0493,182.0278 C312.0493,191.9808 303.3523,200.0038 292.5503,200.0038 L64.9533,200.0038 L64.0403,200.0038 C49.0303,222.3058 31.6413,239.5878 8.5883,255.4548 C17.5523,237.2588 26.8303,218.9758 31.1353,200.0038 L19.5573,200.0038 C8.7543,200.0038 0.0573,191.9798 0.0573,182.0278 L0.0573,18.1158 C0.0573,8.1618 8.7543,0.1388 19.5573,0.1388 Z M31.213,71.072 L31.213,71.072 L17.261,71.072 L17.261,106.9415 L17.261,142.811 L44.571,142.811 L47.044,129.453 L32.005,129.453 L32.005,113.818 L43.878,113.818 L43.878,101.45 L32.005,101.45 L32.005,84.431 L47.638,84.431 L45.165,71.072 L31.213,71.072 Z M299.36,71.072 L272.843,71.072 L269.084,84.431 L278.68,84.431 L278.68,142.811 L293.325,142.811 L293.325,84.431 L302.923,84.431 L299.36,71.072 Z M247.512,133.905 L257.306,133.905 L258.594,142.811 L273.041,142.811 L260.077,71.072 L244.741,71.072 L231.779,142.811 L246.224,142.811 L247.512,133.905 Z M195.763,108.97 L204.767,137.665 L213.871,108.97 L213.871,142.811 L227.823,142.811 L227.823,71.072 L212.585,71.072 L204.767,101.351 L196.95,71.072 L181.811,71.072 L181.811,142.811 L195.763,142.811 L195.763,108.97 Z M175.875,132.619 L175.875,80.373 C175.875,77.539 175.099,75.278 173.549,73.596 C171.999,71.914 169.542,71.072 166.177,71.072 L148.367,71.072 C145.003,71.072 142.544,71.914 140.995,73.596 C139.444,75.278 138.67,77.539 138.67,80.373 L138.67,132.619 C138.67,134.004 138.834,135.307 139.165,136.526 C139.494,137.748 140.055,138.819 140.847,139.743 C141.638,140.668 142.693,141.41 144.013,141.97 C145.332,142.53 146.982,142.811 148.96,142.811 L165.584,142.811 C167.563,142.811 169.211,142.53 170.532,141.97 C171.851,141.41 172.906,140.668 173.698,139.743 C174.489,138.819 175.049,137.748 175.38,136.526 C175.709,135.307 175.875,134.004 175.875,132.619 Z M132.535,113.62 L132.535,80.373 C132.535,77.539 131.759,75.278 130.21,73.596 C128.66,71.914 126.203,71.072 122.839,71.072 L95.628,71.072 L95.628,142.811 L109.975,142.811 L109.975,119.953 L111.855,119.953 L118.781,142.811 L133.624,142.811 L126.104,119.953 C128.214,119.953 129.815,119.295 130.903,117.975 C131.992,116.656 132.535,115.204 132.535,113.62 Z M63.767,142.811 L78.51,142.811 C82.666,142.811 85.568,141.953 87.217,140.237 C88.866,138.524 89.691,135.686 89.691,131.729 L89.691,71.072 L75.047,71.072 L75.047,128.66 C75.047,129.19 74.964,129.585 74.799,129.848 C74.634,130.112 74.256,130.244 73.662,130.244 L68.615,130.244 C68.022,130.244 67.642,130.112 67.477,129.848 C67.312,129.585 67.23,129.19 67.23,128.66 L67.23,71.072 L52.585,71.072 L52.585,131.729 C52.585,135.686 53.41,138.524 55.059,140.237 C56.707,141.953 59.61,142.811 63.767,142.811 Z" id="Combined-Shape" fill="#FFFFFF"></path>
                            <g id="Group-11" transform="translate(17.000000, 71.000000)">
                                <path d="M282.36,0.072 L285.923,13.431 L276.325,13.431 L276.325,71.811 L261.68,71.811 L261.68,13.431 L252.084,13.431 L255.843,0.072 L282.36,0.072 Z M232.094,51.526 L238.724,51.526 L235.46,26.097 L232.094,51.526 Z M230.512,62.905 L229.224,71.811 L214.779,71.811 L227.741,0.072 L243.077,0.072 L256.041,71.811 L241.594,71.811 L240.306,62.905 L230.512,62.905 Z M178.763,37.97 L178.763,71.811 L164.811,71.811 L164.811,0.072 L179.95,0.072 L187.767,30.351 L195.585,0.072 L210.823,0.072 L210.823,71.811 L196.871,71.811 L196.871,37.97 L187.767,66.665 L178.763,37.97 Z M137.403,12.64 C136.545,12.64 136.117,13.102 136.117,14.025 L136.117,57.76 C136.117,58.289 136.198,58.667 136.364,58.898 C136.528,59.13 136.908,59.244 137.502,59.244 L142.944,59.244 C143.537,59.244 143.916,59.13 144.082,58.898 C144.246,58.667 144.329,58.289 144.329,57.76 L144.329,14.025 C144.329,13.102 143.899,12.64 143.043,12.64 L137.403,12.64 Z M158.875,61.619 C158.875,63.004 158.709,64.307 158.38,65.526 C158.049,66.748 157.489,67.819 156.698,68.743 C155.906,69.668 154.851,70.41 153.532,70.97 C152.211,71.53 150.563,71.811 148.584,71.811 L131.96,71.811 C129.982,71.811 128.332,71.53 127.013,70.97 C125.693,70.41 124.638,69.668 123.847,68.743 C123.055,67.819 122.494,66.748 122.165,65.526 C121.834,64.307 121.67,63.004 121.67,61.619 L121.67,9.373 C121.67,6.539 122.444,4.278 123.995,2.596 C125.544,0.914 128.003,0.072 131.367,0.072 L149.177,0.072 C152.542,0.072 154.999,0.914 156.549,2.596 C158.099,4.278 158.875,6.539 158.875,9.373 L158.875,61.619 Z M92.975,12.64 L92.975,37.376 L100.001,37.376 C100.923,37.376 101.386,36.881 101.386,35.892 L101.386,14.123 C101.386,13.134 100.923,12.64 100.001,12.64 L92.975,12.64 Z M115.535,42.62 C115.535,44.204 114.992,45.656 113.903,46.975 C112.815,48.295 111.214,48.953 109.104,48.953 L116.624,71.811 L101.781,71.811 L94.855,48.953 L92.975,48.953 L92.975,71.811 L78.628,71.811 L78.628,0.072 L105.839,0.072 C109.203,0.072 111.66,0.914 113.21,2.596 C114.759,4.278 115.535,6.539 115.535,9.373 L115.535,42.62 Z M46.767,71.811 C42.61,71.811 39.707,70.953 38.059,69.237 C36.41,67.524 35.585,64.686 35.585,60.729 L35.585,0.072 L50.23,0.072 L50.23,57.66 C50.23,58.19 50.312,58.585 50.477,58.848 C50.642,59.112 51.022,59.244 51.615,59.244 L56.662,59.244 C57.256,59.244 57.634,59.112 57.799,58.848 C57.964,58.585 58.047,58.19 58.047,57.66 L58.047,0.072 L72.691,0.072 L72.691,60.729 C72.691,64.686 71.866,67.524 70.217,69.237 C68.568,70.953 65.666,71.811 61.51,71.811 L46.767,71.811 Z M0.261,0.072 L28.165,0.072 L30.638,13.431 L15.005,13.431 L15.005,30.45 L26.878,30.45 L26.878,42.818 L15.005,42.818 L15.005,58.453 L30.044,58.453 L27.571,71.811 L0.261,71.811 L0.261,0.072 Z" id="Fill-9"></path>
                                <path d="M137.403,12.64 C136.545,12.64 136.117,13.102 136.117,14.025 L136.117,57.76 C136.117,58.289 136.198,58.667 136.364,58.898 C136.528,59.13 136.908,59.244 137.502,59.244 L142.944,59.244 C143.537,59.244 143.916,59.13 144.082,58.898 C144.246,58.667 144.329,58.289 144.329,57.76 L144.329,14.025 C144.329,13.102 143.899,12.64 143.043,12.64 L137.403,12.64 Z" id="Path" fill="#FFFFFF"></path>
                                <path d="M92.975,12.64 L92.975,37.376 L100.001,37.376 C100.923,37.376 101.386,36.881 101.386,35.892 L101.386,14.123 C101.386,13.134 100.923,12.64 100.001,12.64 L92.975,12.64 Z" id="Clip-10-Copy" fill="#FFFFFF"></path>
                                <polygon id="Clip-10-Copy" fill="#FFFFFF" points="232.094 51.526 238.724 51.526 235.46 26.097"></polygon>
                            </g>
                        </g>
                    </g>
                    <g id="Group-2" transform="translate(620.000000, 158.000000)">
                        <g id="Group-43">
                            <path d="M294.004159,21 C284.630871,21 277,28.6299376 277,37.993763 C277,47.3700624 284.630871,55 294.004159,55 C303.377446,55 311,47.3700624 311,37.993763 C311,28.6299376 303.377446,21 294.004159,21" id="Fill-13" fill-opacity="0.268993433" fill="#FFFFFF"></path>
                            <path d="M186.614401,11.450091 C184.781129,11.450091 183.295475,11.9270068 182.128472,12.8931725 C180.965606,13.8552268 180.373827,15.2407495 180.373827,17.0497405 C180.373827,18.8587315 180.915946,20.3059244 181.996046,21.4159871 C183.072007,22.5178271 184.491447,23.3688751 186.2254,23.9650199 C187.963491,24.5570533 189.896082,25.116196 192.031451,25.6630047 C194.16682,26.2015906 196.281497,26.8511829 198.396174,27.6035587 C200.502575,28.3723799 202.414475,29.3221002 204.156704,30.4486082 C205.894795,31.5792276 207.305959,33.1826515 208.386058,35.2465458 C209.466158,37.3145515 210,39.7854688 210,42.6716317 C210,47.7039159 207.934983,52.016715 203.813224,55.6018063 C199.687328,59.1992317 194.257863,61 187.508277,61 C180.762829,61 175.320949,59.3760194 171.190914,56.1650603 C167.065017,52.9417672 165,48.3493968 165,42.4126171 L180.551775,42.4126171 C180.949053,47.1612186 183.394795,49.549909 187.889001,49.549909 C190.003678,49.549909 191.650727,48.986655 192.84256,47.8889263 C194.038532,46.782975 194.634449,45.3892296 194.634449,43.6789108 C194.634449,41.9891487 194.096469,40.6118488 193.012231,39.5264541 C191.932132,38.4575049 190.520967,37.6105682 188.782877,36.985644 C187.048924,36.3689425 185.112194,35.7892431 182.980964,35.2465458 C180.841457,34.7079598 178.730918,34.0501449 176.612102,33.248433 C174.50984,32.4631664 172.585525,31.5093348 170.851573,30.4074948 C169.11762,29.3056548 167.714732,27.7227876 166.622218,25.6630047 C165.550395,23.594999 165,21.1487497 165,18.3201456 C165,12.7698322 167.081571,8.34602682 171.240574,5.00350475 C175.395439,1.66509402 180.696616,0 187.160658,0 C193.624701,0 198.84725,1.45541552 202.832444,4.36624655 C206.821777,7.27707758 208.903347,11.8735593 209.064742,18.1598032 L193.181902,18.1598032 C192.958433,16.001348 192.25492,14.3526993 191.092054,13.1891892 C189.920912,12.025679 188.426982,11.450091 186.614401,11.450091" id="Fill-15" fill="#FFFFFF"></path>
                            <polygon id="Fill-17" fill="#FFFFFF" points="260 1 260 12.0765419 239.079818 12.0765419 239.079818 24.9537445 257.525656 24.9537445 257.525656 36.0220264 239.079818 36.0220264 239.079818 49.9110683 260 49.9110683 260 61 225 61 225 1"></polygon>
                            <path d="M346,17.0558793 L346,22.839904 L336.898847,22.839904 L336.898847,60 L329.619588,60 L329.619588,22.839904 L324,22.839904 L324,17.0558793 L329.619588,17.0558793 L329.619588,13.4604045 C329.619588,8.75831334 330.888259,5.35207405 333.421441,3.20877614 C335.958782,1.07370586 339.935337,0 345.367744,0 L345.367744,5.79225231 C342.193988,5.79225231 339.997731,6.37641412 338.766497,7.55707919 C337.522783,8.72951663 336.898847,10.6959205 336.898847,13.4604045 L336.898847,17.0558793 L346,17.0558793 Z" id="Fill-19" fill="#FFFFFF"></path>
                            <polygon id="Fill-21" fill="#FFFFFF" points="392 1 392 12.0765419 371.087799 12.0765419 371.087799 24.9537445 389.533637 24.9537445 389.533637 36.0220264 371.087799 36.0220264 371.087799 49.9110683 392 49.9110683 392 61 357 61 357 1"></polygon>
                            <path d="M409,36.4610705 L409,1 L423.531817,1 L423.531817,36.4610705 C423.531817,40.0129195 424.405539,42.7567845 426.169469,44.6680566 C427.925157,46.5875316 430.513353,47.5472691 433.905209,47.5472691 C437.313551,47.5472691 439.926475,46.5875316 441.727498,44.6680566 C443.549126,42.7567845 444.451698,40.0129195 444.451698,36.4610705 L444.451698,1 L459,1 L459,36.4610705 C459,41.7068152 457.767722,46.2348076 455.290801,50.0450475 C452.834487,53.8552874 449.714639,56.6319639 445.947742,58.3873812 C442.176723,60.1304942 438.075997,61 433.657929,61 C426.738213,61 420.902407,58.8549457 416.142268,54.5771413 C411.378009,50.291134 409,44.2497095 409,36.4610705" id="Fill-23" fill="#FFFFFF"></path>
                            <path d="M487.327536,11.7383681 L487.327536,25.6958443 L496.213207,25.6958443 C498.385892,25.6958443 500.107796,25.0632335 501.370795,23.8020157 C502.621612,22.5247825 503.263265,20.8631782 503.263265,18.8051912 C503.263265,16.7351926 502.605368,15.0375535 501.322062,13.7202817 C500.038757,12.3909982 498.337159,11.7383681 496.213207,11.7383681 L487.327536,11.7383681 Z M487.327536,36.4342123 L487.327536,59 L473,59 L473,1 L496.213207,1 C503.031782,1 508.331509,2.73367389 512.132692,6.20102168 C515.933875,9.66436559 517.826344,13.860417 517.826344,18.7651526 C517.826344,22.124396 516.798888,25.3995582 514.723669,28.5866354 C512.664695,31.7817203 509.281805,34.0439045 504.587181,35.3611763 L519,59 L502.247992,59 L489.008828,36.4342123 L487.327536,36.4342123 Z" id="Fill-25" fill="#FFFFFF"></path>
                            <path d="M571.945467,42.926535 C574.807347,39.8142482 576.234176,35.6617915 576.234176,30.4527196 C576.234176,25.247759 574.807347,21.0994136 571.945467,17.9912381 C569.09181,14.8748399 565.271857,13.3166408 560.502056,13.3166408 C555.724031,13.3166408 551.904078,14.8748399 549.054533,17.9912381 C546.188541,21.0994136 544.761712,25.247759 544.761712,30.4527196 C544.761712,35.6617915 546.188541,39.8142482 549.054533,42.926535 C551.904078,46.0470446 555.724031,47.5929096 560.502056,47.5929096 C565.271857,47.5929096 569.09181,46.0470446 571.945467,42.926535 M538.869363,52.3456224 C532.944119,46.5732965 530,39.2756622 530,30.4527196 C530,21.6297769 532.944119,14.3526993 538.869363,8.60915279 C544.761712,2.8697176 552.010988,0 560.584294,0 C569.145265,0 576.365757,2.8697176 582.216987,8.60915279 C588.080553,14.3526993 591,21.6297769 591,30.4527196 C591,39.2756622 588.055881,46.5732965 582.175868,52.3456224 C576.299966,58.1097257 569.083586,61 560.543175,61 C552.002764,61 544.761712,58.1097257 538.869363,52.3456224" id="Fill-27" fill="#FFFFFF"></path>
                            <path d="M617.388587,25.6975492 L626.307065,25.6975492 C628.487772,25.6975492 630.211957,25.0648947 631.475543,23.7915775 C632.73913,22.5262686 633.366848,20.8645495 633.366848,18.8024163 C633.366848,16.7362789 632.722826,15.0385226 631.434783,13.7211598 C630.138587,12.3997929 628.430707,11.7351053 626.307065,11.7351053 L617.388587,11.7351053 L617.388587,25.6975492 Z M648,18.766379 C648,22.6744218 646.569293,26.4423196 643.70788,30.0780808 C642.195652,31.9520193 639.941576,33.4735934 636.949728,34.6628236 C633.9375,35.8480497 630.391304,36.4366586 626.307065,36.4366586 L617.388587,36.4366586 L617.388587,59 L603,59 L603,1 L626.307065,1 C633.142663,1 638.470109,2.73379358 642.285326,6.20138074 C646.084239,9.66496376 648,13.8613048 648,18.766379 L648,18.766379 Z" id="Fill-29" fill="#FFFFFF"></path>
                            <g id="Group-33" transform="translate(661.000000, 0.000000)">
                                <mask id="mask-5" fill="white">
                                    <use xlink:href="#path-4"></use>
                                </mask>
                                <g id="Clip-32"></g>
                                <polygon id="Fill-31" fill="#FFFFFF" mask="url(#mask-5)" points="35.9891966 0.730264615 35.9891966 11.6233108 14.4917607 11.6233108 14.4917607 24.2871877 33.4620171 24.2871877 33.4620171 35.1721108 14.4917607 35.1721108 14.4917607 48.8310646 35.9891966 48.8310646 35.9891966 59.7362954 0.00970940171 59.7362954 0.00970940171 0.730264615"></polygon>
                            </g>
                            <path d="M295.5,22.6884859 C286.30417,22.6884859 278.81777,30.0085222 278.81777,38.9920218 C278.81777,47.9874887 286.30417,55.3075249 295.5,55.3075249 C304.69583,55.3075249 312.174071,47.9874887 312.174071,38.9920218 C312.174071,30.0085222 304.69583,22.6884859 295.5,22.6884859 M295.5,61 C283.097461,61 273,51.1309157 273,38.9920218 C273,26.8730734 283.097461,17 295.5,17 C307.906618,17 318,26.8730734 318,38.9920218 C318,51.1309157 307.906618,61 295.5,61" id="Fill-34" fill="#FFFFFF"></path>
                            <path d="M57,36.4610705 L57,1 L71.5400593,1 L71.5400593,36.4610705 C71.5400593,40.0129195 72.4261457,42.7567845 74.1735905,44.6680566 C75.9375206,46.5875316 78.5257171,47.5472691 81.913452,47.5472691 C85.3259149,47.5472691 87.9264754,46.5875316 89.7439829,44.6680566 C91.5532476,42.7567845 92.451698,40.0129195 92.451698,36.4610705 L92.451698,1 L107,1 L107,36.4610705 C107,41.7068152 105.767722,46.2348076 103.303165,50.0450475 C100.834487,53.8552874 97.714639,56.6319639 93.9559842,58.3873812 C90.1849654,60.1304942 86.0883614,61 81.6579294,61 C74.7464557,61 68.9106495,58.8549457 64.1463897,54.5771413 C59.3821299,50.291134 57,44.2497095 57,36.4610705" id="Fill-36" fill="#FFFFFF"></path>
                            <polygon id="Fill-38" fill="#FFFFFF" points="123 1 137.249148 1 137.249148 48.2576281 155 48.2576281 155 59 123 59"></polygon>
                            <g id="Group-42">
                                <mask id="mask-7" fill="white">
                                    <use xlink:href="#path-6"></use>
                                </mask>
                                <g id="Clip-41"></g>
                                <path d="M14.3421969,25.9560738 L23.2071429,25.9560738 C25.3788115,25.9560738 27.0926471,25.3143508 28.3527011,24.0227815 C29.6006002,22.7393354 30.2245498,21.0537969 30.2245498,18.9621046 C30.2245498,16.8663508 29.592497,15.1442585 28.3040816,13.8080123 C27.0237695,12.4677046 25.3139856,11.7934892 23.2071429,11.7934892 L14.3421969,11.7934892 L14.3421969,25.9560738 Z M44.7779712,18.9255508 C44.7779712,22.8896123 43.3558523,26.71152 40.5116146,30.3993969 C39.0084634,32.3001969 36.7598139,33.8435815 33.7859244,35.0498585 C30.79988,36.2520738 27.27497,36.84912 23.2071429,36.84912 L14.3421969,36.84912 L14.3421969,59.7358892 L0.0480792317,59.7358892 L0.0480792317,0.904504615 L23.2071429,0.904504615 C30.0098139,0.904504615 35.2971789,2.66315077 39.0894958,6.18044308 C42.8737095,9.69367385 44.7779712,13.9501662 44.7779712,18.9255508 L44.7779712,18.9255508 Z" id="Fill-40" fill="#FFFFFF" mask="url(#mask-7)"></path>
                            </g>
                        </g>
                        <g id="Group-58" transform="translate(0.000000, 123.000000)">
                            <g id="Group-51">
                                <mask id="mask-9" fill="white">
                                    <use xlink:href="#path-8"></use>
                                </mask>
                                <g id="Clip-50"></g>
                                <path d="M80.6381806,29.7711119 L-41.4024145,-79.9024601 C19.2839933,-147.169744 123.123713,-152.5984 190.526741,-92.0345952 C257.929769,-31.4630408 263.369066,72.1735249 202.682658,139.444684 L80.6381806,29.7711119 Z" id="Fill-49" fill="#FFFFFF" mask="url(#mask-9)"></path>
                            </g>
                            <g id="Group-54">
                                <mask id="mask-11" fill="white">
                                    <use xlink:href="#path-10"></use>
                                </mask>
                                <g id="Clip-53"></g>
                                <path d="M79.8145248,29.7513304 L-28.9570455,151.476104 C-95.671095,90.944796 -101.058946,-12.619036 -40.9855579,-79.8493687 L79.8145248,29.7513304 Z" id="Fill-52" fill="#FFFFFF" mask="url(#mask-11)"></path>
                            </g>
                            <g id="Group-57" transform="translate(0.000000, 29.000000)">
                                <mask id="mask-13" fill="white">
                                    <use xlink:href="#path-12"></use>
                                </mask>
                                <g id="Clip-56"></g>
                                <path d="M80.627844,0.603175723 L202.656879,110.463444 C141.974268,177.845236 38.1476872,183.287015 -29.2468118,122.616231 L80.627844,0.603175723 Z" id="Fill-55" fill="#FFFFFF" mask="url(#mask-13)"></path>
                            </g>
                        </g>
                    </g>
                </g>
            </g>
        </g>
    </g>
</svg>