<?xml version="1.0" encoding="utf-8"?>
<!-- Generator: Adobe Illustrator 18.1.0, SVG Export Plug-In . SVG Version: 6.00 Build 0)  -->
<svg version="1.1" id="Logo_A" xmlns="http://www.w3.org/2000/svg" xmlns:xlink="http://www.w3.org/1999/xlink" x="0px" y="0px"
	 viewBox="0 0 498.7 140" enable-background="new 0 0 498.7 140" xml:space="preserve">
<path fill="#EA5290" d="M325.2,7.1c-34.9,0-63.3,28.4-63.3,63.3c0,11.8,3.3,22.8,8.9,32.3c0.6,1.1,0.8,2.4,0.6,3.7
	c-2.4,13-14.3,22.5-14.5,22.6c-0.4,0.3-0.6,0.6-0.8,0.8c0,0.1-0.1,0.1-0.1,0.2c0,0.1-0.1,0.1-0.1,0.2c0,0,0,0,0,0.1
	c0,0.1,0,0.1-0.1,0.2c0,0,0,0.1,0,0.1c0,0,0,0,0,0c0,0.1,0,0.2,0,0.2c0,0.5,0.2,0.9,0.6,1.2c0,0,0,0,0,0c0,0,0,0,0,0
	c0.1,0,0.1,0.1,0.2,0.1c0.2,0.1,0.4,0.1,0.6,0.1h0c0.1,0,0.3,0,0.5,0c0.2,0,0.3,0,0.5,0c0.2,0,16-1.2,25.2-2.2
	c4.1-0.4,8.8-1,13.1-1.6c2-0.2,3.9,0.1,5.7,0.8c7.1,2.8,14.9,4.3,23,4.3c34.9,0,63.3-28.4,63.3-63.3C388.4,35.5,360,7.1,325.2,7.1z"
	/>
<g>
	<path d="M74.9,7.2c-15.9,0-27.2,6.2-33.5,14.4c0,0,0,0,0,0c-0.1,0.2-0.3,0.3-0.6,0.3c-0.4,0-0.7-0.3-0.7-0.7c0,0,0,0,0,0L38.8,11
		c0-0.8-0.6-1.4-1.4-1.4c0,0-0.1,0-0.1,0c0,0,0,0,0,0H8.5c0,0,0,0,0,0C7.7,9.6,7,10.2,7,11l0,0v118.7l0,0c0,0.8,0.6,1.4,1.4,1.4l0,0
		h32.4l0,0c0.8,0,1.4-0.6,1.4-1.4c0,0,0-0.1,0-0.1V63.4c0.1-3.7,1-7.6,3-11.1c4.4-7.9,12.6-12.3,20.7-12c0.2,0,0.4,0,0.5,0
		c2.7,0.2,5.4,0.8,8,2.1c0.2,0.1,0.4,0.2,0.7,0.3c0.1,0,0.2,0.1,0.3,0.1c6.2,3.7,9.7,11,9.7,20.2v66.6c0,0,0,0.1,0,0.1
		c0,0.8,0.6,1.4,1.4,1.4H119c0,0,0,0,0,0c0.8,0,1.4-0.6,1.4-1.4l0,0V61.1C120.4,28.3,104.4,7.2,74.9,7.2z"/>
	<path d="M193.5,7.2c-36.2,0-61.1,27.1-61.1,63.5c0,36.4,24.5,62.8,62.6,62.8c22.1,0,37.9-6.8,50.5-20.6c0,0,0,0,0,0
		c0.3-0.3,0.4-0.6,0.4-1.1c0-0.5-0.3-1-0.7-1.2l-21.8-17.7c0,0,0,0,0,0c-0.2-0.2-0.5-0.3-0.9-0.3c-0.5,0-0.9,0.2-1.1,0.6
		c0,0,0,0,0,0c-5.4,6.6-14.4,11.3-25.7,11.3c-17.3,0-26.8-8.6-27.8-23.8c0-0.4,0.3-0.6,0.7-0.7c0,0,0,0,0,0v0h80.1l0,0
		c0.8,0,1.4-0.6,1.4-1.4h0v-9.9C250,35.5,231.6,7.2,193.5,7.2z M214.5,57.8h-46c0,0,0,0,0,0c-0.4,0-0.7-0.3-0.7-0.7c0,0,0,0,0,0
		c1-13.5,10.3-23.3,24.4-23.3c14.1,0,22.3,10,23,23.3C215.2,57.4,214.9,57.7,214.5,57.8z"/>
	<path d="M454.7,57.3c-17.3-4.1-21.8-6.5-21.8-12.7c0-6.5,5.5-9.6,15.8-9.6c11.5,0,20.8,4.2,27.7,9.3c0.2,0.2,0.5,0.3,0.9,0.3
		c0.5,0,1-0.3,1.2-0.8c0,0,0,0,0,0l11.8-22.2c0,0,0,0,0,0c0.2-0.2,0.3-0.5,0.3-0.9c0-0.5-0.3-1-0.7-1.2c-9.5-7.6-25-12.3-41.1-12.3
		c-32.1,0-51.1,15.6-51.1,39.8c0,18.9,12.5,28.5,39.1,35c16.3,3.8,20.6,7.2,20.6,13.7c0,7-6.5,10.3-17.3,10.3
		c-12.9,0-23.9-4.7-32-11.1c0,0,0,0,0,0c-0.2-0.2-0.6-0.4-0.9-0.4c-0.6,0-1.1,0.4-1.3,0.9L394,117.6c-0.2,0.2-0.3,0.5-0.3,0.9
		c0,0.5,0.3,1,0.7,1.2c10.4,8.4,27.6,13.8,45.5,13.8c32.8,0,53-16.1,53-40.3C492.8,75,480.3,63.5,454.7,57.3z"/>
</g>
</svg>
