<?xml version="1.0" encoding="utf-8"?>
<!-- Generator: Adobe Illustrator 13.0.0, SVG Export Plug-In . SVG Version: 6.00 Build 14948)  -->
<!DOCTYPE svg PUBLIC "-//W3C//DTD SVG 1.1//EN" "http://www.w3.org/Graphics/SVG/1.1/DTD/svg11.dtd">
<svg version="1.1" xmlns="http://www.w3.org/2000/svg" xmlns:xlink="http://www.w3.org/1999/xlink" x="0px" y="0px"
	 width="588.005px" height="256.078px" viewBox="0 0 588.005 256.078" enable-background="new 0 0 588.005 256.078"
	 xml:space="preserve">
<g id="Layer_3">
</g>
<g id="Layer_1">
	<g>
		<path fill="#005DAA" d="M588.005,128.037C588.005,57.323,530.682,0,459.97,0c-70.716,0-128.039,57.323-128.039,128.037
			c0,70.712,57.323,128.041,128.039,128.041C530.682,256.078,588.005,198.749,588.005,128.037z"/>
		<path fill="#FFFFFF" d="M522.849,72.102l-9.145,35.604h-0.32c-1.854-8.909-8.767-11.202-15.687-11.202
			c-20.404,0-28.868,18.567-35.516,44.356c-2.575,10.013-3.687,18.018-3.478,24.3c-0.927,0.369-1.907,0.584-2.982,0.584
			c-9.366,0-6.541-12.743-3.112-26.086c0.02-0.081,16.822-67.554,16.822-67.554h-24.857l-6.618,26.548h-19.134l-25.572,61.219
			h-0.299l6.091-61.219h-25.781l-0.966,83.015h29.473l30.592-60.563l-4.932,19.786c-7.969,30.995-2.145,42.96,14.582,42.96
			c7.952,0,14.93-4.133,18.706-8.796c2.738,6.058,8.165,8.759,16.054,8.759c11.04,0,17.809-6.594,21.101-12.275h0.302l-2.602,10.129
			h23.956l28.183-109.566H522.849z M505.665,140.698c-4.146,16.121-7.968,25.015-15.339,25.015c-9.363,0-6.394-12.744-2.956-26.086
			c3.868-15.037,6.882-25.015,15.945-25.015C511.76,114.612,509.466,125.969,505.665,140.698z"/>
		<path fill="#009DDC" d="M43.043,98.682C14.123,98.682,0,128.448,0,156.017c0,20.021,9.758,28.089,25.391,28.089
			c28.598,0,43.394-30.271,43.394-57C68.785,107.93,59.031,98.682,43.043,98.682z M27.414,173.188
			c-10.426,0-14.632-6.391-14.632-17.487c0-19.521,8.063-46.084,28.426-46.084c8.568,0,14.794,5.05,14.794,17.657
			C56.002,145.597,47.423,173.188,27.414,173.188z M127.489,98.682c-11.613,0-18.849,7.745-23.558,12.944
			c-0.506-2.683-1.518-6.212-2.352-8.407c-1.012-2.516-1.845-3.523-2.533-3.523c-0.657,0-1.177,0.321-1.672,0.508l-6.226,2.861
			c-0.836,0.322-2.529,0.825-2.529,2c0,1.184,0.682,1.692,0.847,2.365c1.682,3.701,1.682,6.717,1.682,9.433
			c0,3.523-0.34,7.381-0.999,9.902l-19.008,88.963c0,0.839,0,1.347,1.175,1.347c0.674,0,1.175-0.334,1.521-0.334l8.402-2.014
			c1.175-0.344,1.506-1.685,1.667-2.698l7.242-33.464c3.707,2.188,8.744,5.541,18.503,5.541c24.894,0,36.833-31.777,36.833-60.53
			C146.484,106.92,139.586,98.682,127.489,98.682z M109.147,172.847c-7.406,0-11.442-2.519-15.645-5.047l5.722-26.908
			c3.531-16.813,12.44-30.937,25.224-30.937c7.059,0,9.25,5.729,9.25,14.289C133.698,142.066,127.648,172.847,109.147,172.847z
			 M226.533,120.209c0-12.439-7.245-21.527-22.203-21.527c-25.058,0-42.547,26.068-42.547,54.654c0,18.672,8.243,30.77,27.235,30.77
			c16.315,0,31.121-9.907,31.121-11.932c0-0.325-0.162-0.511-0.332-0.852l-4.045-6.044c-0.33-0.492-0.835-1.016-1.508-1.016
			c-2.354,0-9.091,8.075-24.061,8.075c-10.921,0-15.628-6.562-15.628-18.504c0-1.337,0.164-2.686,0.164-4.191
			C189.537,149.468,226.533,149.468,226.533,120.209z M202.49,109.109c8.238,0,12.259,4.547,12.259,11.607
			c0,18.505-29.426,18.505-38.679,18.505C177.932,130.979,183.315,109.109,202.49,109.109z M291.445,98.682
			c-14.972,0-24.225,9.088-30.436,17.813h-0.347c0-1.5,0.509-4.18,0.509-7.551c0-5.214-1.863-10.261-3.202-10.261
			c-0.673,0-1.339,0.507-2.354,0.846l-6.049,2.518c-0.669,0.16-1.51,0.674-1.51,1.341c0.662,3.37,1.338,6.739,1.338,10.104
			c0,2.35-0.498,6.052-1.169,9.573l-11.947,56.5c-0.164,0.354-0.164,0.85-0.164,1.188c0,0.672,0.504,1.004,1.34,1.004h8.744
			c1.343,0,1.685-0.49,2.027-1.674l7.73-36.67c2.358-11.089,12.284-33.458,30.436-33.458c5.054,0,7.576,2.524,7.576,7.225
			c0,2.195-0.51,4.55-1.013,6.74l-11.772,55.645c-0.167,0.354-0.167,0.85-0.167,1.188c0,0.672,0.495,1.004,1.339,1.004h8.743
			c1.36,0,1.693-0.49,2.014-1.674l11.952-56.164c0.837-3.874,1.686-7.748,1.686-11.792
			C306.747,103.219,300.178,98.682,291.445,98.682z"/>
	</g>
</g>
<g id="Layer_2">
</g>
</svg>
