<?xml version="1.0" encoding="UTF-8" standalone="no"?>
<!-- Created with Inkscape (http://www.inkscape.org/) -->
<svg
   xmlns:svg="http://www.w3.org/2000/svg"
   xmlns="http://www.w3.org/2000/svg"
   version="1.0"
   width="602.36218"
   height="744.05902"
   id="svg4327">
  <defs
     id="defs4329" />
  <g
     transform="translate(-621.71456,-25.168913)"
     id="layer1">
    <g
       id="g4367">
      <path
         d="M 639.43106,42.889413 L 639.43106,609.81855 L 780.87788,609.81855 L 922.88428,751.50735 L 922.88428,609.81855 L 1206.3602,609.81855 L 1206.3602,42.889413"
         id="path15"
         style="fill:#ff0000;fill-opacity:1;fill-rule:nonzero;stroke:none" />
      <path
         d="M 1093.5533,84.317988 C 1071.9262,84.348296 1051.728,91.683355 1039.1071,103.97913 C 1029.3598,113.70396 1022.4556,126.34747 1022.4707,141.41093 C 1022.4478,156.98873 1028.0136,169.481 1036.8385,178.27558 C 1045.6558,187.0851 1057.6415,192.24255 1070.4893,194.34478 C 1082.6564,196.40158 1098.2417,197.03685 1110.0006,199.26007 C 1115.1882,200.19782 1119.9219,202.03532 1123.2341,204.93155 C 1126.5385,207.86542 1128.6787,211.64659 1128.7165,217.40882 C 1128.7091,221.34843 1127.8847,224.04824 1126.826,226.29415 C 1125.7751,228.54011 1124.4138,230.28687 1122.4779,232.34373 C 1116.7385,238.41612 1105.5391,241.07781 1093.5533,241.04 C 1083.5717,241.07043 1072.2739,238.9529 1065.763,232.34373 C 1060.961,227.54943 1057.2407,220.5546 1057.2558,212.68258 L 1057.2558,209.46874 L 1017.9335,209.46874 L 1017.9335,212.68258 C 1017.9561,230.51343 1026.4674,246.22371 1037.5947,256.35301 C 1052.9907,270.38817 1073.7561,275.6285 1093.1752,275.63606 C 1115.5815,275.62094 1137.3069,270.04019 1151.7806,255.59681 C 1161.0968,246.33321 1167.5019,233.47046 1167.4717,216.08547 C 1167.4943,200.0767 1161.4901,187.24409 1151.9696,178.08653 C 1142.4489,168.91385 1129.5483,163.41629 1115.6721,161.45017 C 1103.951,159.92247 1088.0784,158.65224 1076.917,156.91299 C 1072.0472,156.10367 1068.198,154.40997 1065.574,151.80865 C 1062.965,149.19209 1061.4376,145.60783 1061.4149,140.46568 C 1061.4603,134.62802 1063.1239,131.11151 1066.5192,127.42127 C 1072.8409,120.80448 1083.6925,118.51326 1093.3643,118.53594 C 1097.7879,118.53588 1102.7941,119.4585 1107.3539,120.99359 C 1111.914,122.50604 1115.9443,124.7292 1118.3188,127.23222 C 1122.13,131.21738 1125.1397,137.57701 1125.3136,142.92333 L 1125.5027,145.75907 L 1164.825,145.75907 L 1164.825,142.73428 C 1164.5451,126.85412 1156.7488,112.9552 1145.731,102.46674 L 1145.5419,102.46674 C 1132.6641,90.435629 1113.343,84.340673 1093.5533,84.317988 z M 689.36553,87.531829 L 689.36553,272.42222 L 727.74257,272.42222 L 727.74257,208.33445 L 762.33863,208.33445 C 783.43655,208.34183 800.18633,202.4361 811.49149,191.69809 C 822.80415,180.9677 828.52107,165.60926 828.50595,147.83861 C 828.52113,130.06778 822.81178,114.83814 811.49149,104.16818 C 800.17889,93.498291 783.42899,87.516705 762.33863,87.531829 L 689.36553,87.531829 z M 860.45531,87.531829 L 860.45531,272.42222 L 863.4801,272.42222 L 993.92424,272.42222 L 993.92424,236.69187 L 899.0214,236.69187 L 899.0214,193.96668 L 982.58127,193.96668 L 982.58127,158.61443 L 899.0214,158.61443 L 899.0214,123.07313 L 993.92424,123.07313 L 993.92424,87.531829 L 860.45531,87.531829 z M 727.74257,122.12788 L 761.20433,122.12788 C 771.51881,122.13545 778.47589,124.91069 782.94502,129.31176 C 787.39915,133.7204 789.54663,140.01196 789.56175,148.02766 C 789.54663,156.04354 787.39146,162.40298 782.94502,166.74356 C 778.49846,171.08402 771.52643,173.72327 761.20433,173.73839 L 727.74257,173.73839 L 727.74257,122.12788 z"
         id="path19"
         style="fill:#ffffff;fill-opacity:1;fill-rule:nonzero;stroke:none" />
    </g>
  </g>
</svg>
