<svg xmlns="http://www.w3.org/2000/svg" xml:space="preserve" viewBox="0 0 1793.875 636.9375">
  <path fill="#fff" d="M318.46125 620.146c-166.6 0-301.664375-135.0685-301.664375-301.68475 0-166.60625 135.064375-301.66375 301.664375-301.66375 166.61875 0 301.67625 135.0575 301.67625 301.66375 0 166.61625-135.0575 301.68475-301.67625 301.68475m0-620.151C142.585-.005-.000488 142.585-.000488 318.46125c0 175.88625 142.585488 318.477227 318.461738 318.477227 175.905 0 318.47625-142.590977 318.47625-318.477227C636.9375 142.585 494.36625-.005 318.46125-.005"/>
  <path fill="#ff8700" d="M318.2975 548.32475c-126.6975 0-229.352625-102.99975-229.352625-229.6885 0-126.71 102.655125-229.6975 229.352625-229.6975 126.68125 0 229.69625 103.01 229.69625 229.6975 0 126.68875-103.015 229.6885-229.69625 229.6885m.16375-531.52725c-166.59875 0-301.663875 135.0575-301.663875 301.66375 0 166.61625 135.065125 301.68475 301.663875 301.68475 166.62 0 301.67625-135.0685 301.67625-301.68475 0-166.60625-135.05625-301.66375-301.67625-301.66375"/>
  <path fill="#fff" d="M318.2975 531.059125c-117.17375 0-212.095375-95.256625-212.095375-212.422875 0-117.2 94.921625-212.44625 212.095375-212.44625 117.16375 0 212.44 95.2675 212.44 212.44625 0 117.16625-95.27625 212.422875-212.44 212.422875m0-442.120375c-126.6975 0-229.352625 102.9875-229.352625 229.6975 0 126.6875 102.655125 229.689 229.352625 229.689 126.68125 0 229.69625-103.0015 229.69625-229.689 0-126.68875-103.015-229.6975-229.69625-229.6975"/>
  <path d="M318.2975 106.19c-117.17375 0-212.095375 95.24625-212.095375 212.44625 0 117.16625 94.921625 212.422875 212.095375 212.422875 117.16375 0 212.44-95.256625 212.44-212.422875 0-117.17875-95.27625-212.44625-212.44-212.44625m.01 20.36c106.15625 0 192.0575 85.935 192.0575 192.08625C510.365 424.7775 424.46375 510.7 318.3075 510.7c-106.125 0-191.735-85.9225-191.735-192.06375 0-106.15125 85.61-192.08625 191.735-192.08625"/>
  <path fill="#fff" d="M318.3075 126.55c-106.125 0-191.73625 85.935-191.73625 192.085 0 106.1425 85.61125 192.065 191.73625 192.065 106.15625 0 192.0575-85.9225 192.0575-192.065 0-106.15-85.90125-192.085-192.0575-192.085"/>
  <path d="M328.47125 199.2625c77.82375 2.415 123.07125 37.82125 123.07125 89.75625 0 47.475-29.3525 73.45875-125.95375 90.6-71.9525 12.7825-90.9925 30.135-90.9925 59.76375 0 18.15375 6.06625 32.0575 16.685 44.51125-16.1625-10.14875-29.15375-31.10375-29.15375-54.8225 0-14.5725 4.305-28.39 14.06875-40.0725V219.27c-2.40125-.1525-4.82625-.22875-7.31-.22875-1.07625 0-2.125.04375-3.15.10875-1.3125.0875-1.71875-1.4375-.34125-2.0325 3.3325-1.39375 6.94625-2.76625 10.80125-4.06125v-35.67c0-.73625.5825-1.32875 1.3175-1.32875h19.3475c.72125 0 1.32375.5925 1.32375 1.32875v29.5725c23.11375-5.30375 49.53375-8.34625 70.28625-7.69625M258.185 371.45875c2.6225-1.4275 5.43125-2.76625 8.36875-4.04C301.5375 352.34 318.85 325.82875 318.85 293.2c0-32.35125-23.90625-60.5425-60.665-70.4025"/>
  <path fill="#ff8700" d="m700.73125 364.31-10.125 65.35375h12.82125c24.63875 0 35.325-15.63875 35.325-39.13875 0-14.2875-6.755-26.215-26.325-26.215zm-8.325-8.32375h22.5c24.85375 0 34.415 13.8375 34.415 32.055 0 33.63875-19.795 49.94625-48.25375 49.94625H679.695M781.81125 402.67c9.2275 0 16.8725-2.59125 16.8725-9.675 0-6.30375-4.83625-9.44375-11.47-9.44375-9.00125 0-14.62 7.3025-17.43375 18.2175 0 0 6.85625.90125 12.03125.90125m-3.145 36.89c-14.62375 0-20.47125-10.3475-20.47125-24.97375 0-24.74375 14.28-39.7025 31.48875-39.7025 11.36125 0 18.44875 6.97625 18.44875 16.19875 0 16.19875-14.62 19.46125-29.0175 19.46125-5.51 0-10.8-.90125-10.8-.90125-1.35375 13.26625 2.135 21.3725 12.7125 21.3725 6.52125 0 12.485-1.6925 18.3325-4.2725l2.1375 6.975c-5.84625 3.14-14.175 5.8425-22.83125 5.8425M853.33875 437.9875l.675-6.6425c-3.48875 4.6125-11.36125 8.215-18.90125 8.215-11.91875 0-19.795-7.645-17.43375-23.06375l6.19-40.04h9l-5.85125 38.36c-1.68875 11.355 2.58875 16.19875 10.46375 16.19875 7.08 0 13.8325-4.2725 17.765-9.565l6.975-44.99375h9.11l-9.55875 61.53125M911.245 436.6375c-3.14625 1.91125-8.2075 2.9225-11.585 2.9225-11.69625 0-15.295-7.085-13.27375-20.3625l5.29-34.7575h-10.125l1.015-6.1825 10.34625-1.80125 3.82625-17.42875h7.98375l-2.69625 17.42875H920.135l-1.24125 7.98375H900.785l-5.285 34.1975c-1.2375 7.65625-.33875 12.3775 6.1875 12.3775 2.25 0 5.9625-.68125 8.0975-1.35125M962.07875 387.5925c-4.16-2.4725-8.66125-4.1625-14.39875-4.1625-5.51 0-11.025 3.0425-11.025 8.435 0 10.23375 24.07375 12.8275 24.07375 27.3325 0 12.59625-11.24875 20.3625-24.8575 20.3625-6.7475 0-12.93375-2.25375-17.65625-6.41625l4.495-7.53125c4.3875 3.1525 9.5575 5.4025 14.8475 5.4025 6.865 0 13.04625-4.0525 13.04625-10.46625 0-10.12375-24.06875-12.70625-24.06875-27.21375 0-11.25625 9.78875-18.45 22.8325-18.45 6.18875 0 12.9375 2.47125 16.7575 5.40375M1019.3175 387.03125c-3.7075-2.2525-9.11-3.60125-14.17125-3.60125-10.46 0-21.59375 8.775-21.59375 28.465 0 11.015 5.17375 19.12 15.29375 19.12 4.7225 0 10.91375-1.5825 15.07375-3.71375l1.69 7.19625c-4.84 2.92875-12.825 5.0625-19.24125 5.0625-16.30625 0-22.8275-12.1475-22.8275-25.305 0-25.53125 15.63-39.37125 34.08-39.37125 5.85 0 11.47375 1.57375 15.63375 4.72375M1073.18375 437.9875h-8.99125l5.50625-36.45c1.69-9.8925.34-18.1075-9.67-18.1075-7.31125 0-14.7375 6.5225-17.775 12.37625l-6.52125 42.18125h-9l13.16-85.48375h9.10875l-4.835 31.15625c6.185-6.195 11.475-8.775 18.33625-8.775 14.84125 0 18.8975 10.12625 16.645 24.63375M1104.215 352.505h9.10875L1100.05 437.98875h-8.995M1158.53875 410.095l3.93375-17.89125c-2.70125-5.96125-9.67625-8.77375-16.1975-8.77375-11.69625 0-17.5425 15.0775-17.5425 29.805 0 8.66375 2.6975 17.78 10.9125 17.78 7.1975 0 15.63125-10.015 18.89375-20.92m0 15.5175c-4.84 8.105-11.92375 13.9475-21.25875 13.9475-13.38375 0-18.67625-10.68625-18.67625-23.8425 0-21.82125 10.5775-40.8325 30.26-40.8325 6.07625 0 13.16 2.13125 16.19625 7.085l1.79875-5.5125h7.0875l-6.29875 33.8575-1.1275 27.6725h-7.6425M1220.72125 437.9875l5.62875-36.45c1.5725-9.8925.22625-17.98625-10.125-17.98625-7.53625 0-14.7325 5.7325-18.10875 12.255L1191.59 437.9875h-8.995l9.44875-61.53125h7.19625l.10875 7.53375c4.055-4.8325 11.13625-9.105 19.465-9.105 15.185 0 19.2325 10.12625 16.8675 24.975l-5.8425 38.1275M1288.7625 408.1825l2.5875-15.97875c-2.7-5.9625-8.55-8.775-15.075-8.775-11.7 0-17.55 15.07875-17.55 29.805 0 8.66625 2.7 17.78125 10.9125 17.78125 7.65 0 16.3125-11.135 19.125-22.8325m-.225 17.09c-4.725 8.32375-11.7 14.2875-21.2625 14.2875-13.375 0-18.67125-10.68625-18.67125-23.84375 0-21.82125 10.57125-40.8325 30.25875-40.8325 5.4 0 11.5875 2.36125 14.2875 5.965l4.275-28.34375h9.2125l-8.9875 57.81-1.1375 27.6725h-7.6375"/>
  <path d="M727.96875 258.97125c6.5275 0 11.56625-4.37875 11.56625-11.40125v-2.39625c0-7.02125-5.03875-11.56625-11.56625-11.56625h-16.3575c-1.735 0-2.80875 1.075-2.80875 2.80875v19.74625c0 1.735 1.07375 2.80875 2.80875 2.80875zm-39.49 59.7325c-1.735 0-2.80875-1.075-2.80875-2.80875V215.35c0-1.735 1.07375-2.81 2.80875-2.81H727.555c22.6375 0 33.87375 12.475 33.87375 32.38625v2.56125c0 16.68875-11.23625 32.46875-33.955 32.46875h-15.8625c-1.735 0-2.80875 1.07375-2.80875 2.80875v33.13c0 1.73375-1.07375 2.80875-2.81 2.80875M780.43 315.89375V214.5225c0-1.73375 1.07375-2.80875 2.80875-2.80875h17.51375c1.735 0 2.81 1.075 2.81 2.80875v101.37125c0 1.73625-1.075 2.80875-2.81 2.80875h-17.51375c-1.735 0-2.80875-1.0725-2.80875-2.80875M887.2525 246.74375v-2.89125c0-5.86625-5.04-10.245-11.5675-10.245H855.94c-1.735 0-2.80875 1.075-2.80875 2.80875v17.84625c0 1.73375 1.07375 2.8075 2.80875 2.8075h19.745c6.3625 0 11.5675-4.46125 11.5675-10.32625M830 315.89375V215.35c0-1.735 1.07375-2.81 2.8075-2.81h42.63c21.15 0 33.79 12.64125 33.79 32.63375 0 11.48375-4.46125 20.07625-13.96125 25.85875-.82625.49625-1.24.9925-1.24 1.6525 0 .66125.16625 1.1575.41375 1.8175l16.1925 39.40875c.7425 1.735 1.07375 2.80875 1.07375 3.46875 0 .6625-.66125 1.3225-1.9825 1.3225H889.73c-.66 0-1.23875-.41375-1.65125-1.3225l-16.11-38.82875c-.33-.8275-.9925-1.15625-1.73625-1.15625H855.94c-1.735 0-2.80875 1.07375-2.80875 2.80875v35.69c0 1.735-1.07375 2.80875-2.8075 2.80875H832.8075c-1.73375 0-2.8075-1.07375-2.8075-2.80875M976.06375 280.78125c1.48625 0 1.9825-.66125 1.73625-1.735l-9.5025-35.68875-.4125-3.38875h-2.89l-.415 3.38875-9.58375 35.68875c-.24875 1.07375.165 1.735 1.65375 1.735zm-25.52875 21.0675c-1.32125 0-1.65125.165-1.9.99l-3.8825 14.62375c-.2475.825-.82625 1.24-1.65375 1.24h-20.405c-1.24 0-1.90125-.415-1.90125-1.24 0-.41125.165-1.15625.33-1.5675.08375-.25 30.2375-102.44625 30.2375-102.44625.33125-1.15625 1.405-1.735 2.64625-1.735h25.0325c1.2375 0 2.31125.57875 2.6425 1.735l30.32 103.1075c.16625.495.16625.6575.16625.90625 0 .825-.57875 1.24-1.8175 1.24h-20.49c-.9075 0-1.48625-.415-1.73375-1.24l-3.88375-14.62375c-.2475-.825-.66-.99-1.9-.99M1038.76875 315.89375V236.415c0-1.73375-1.07375-2.8075-2.80875-2.8075h-18.50625c-1.735 0-2.80875-1.07375-2.80875-2.80875v-15.45c0-1.735 1.07375-2.80875 2.80875-2.80875h65.76375c1.73375 0 2.8075 1.07375 2.8075 2.80875v15.45c0 1.735-1.07375 2.80875-2.8075 2.80875h-18.50875c-1.73375 0-2.80625 1.07375-2.80625 2.8075v79.47875c0 1.73625-1.075 2.80875-2.81 2.80875h-17.51625c-1.73375 0-2.8075-1.0725-2.8075-2.80875M1109.4875 318.7025c-1.735 0-2.80875-1.0725-2.80875-2.8075V215.35c0-1.73625 1.07375-2.81 2.80875-2.81h64.60625c1.73375 0 2.81 1.07375 2.81 2.81v15.44875c0 1.735-1.07625 2.80875-2.81 2.80875H1132.62c-1.735 0-2.80875 1.07375-2.80875 2.8075v15.45125c0 1.73375 1.07375 2.81 2.80875 2.81h34.0375c1.735 0 2.81 1.07375 2.81 2.80625v15.45c0 1.735-1.075 2.81125-2.81 2.81125H1132.62c-1.735 0-2.80875 1.07375-2.80875 2.8075v16.275c0 1.73625 1.07375 2.81 2.80875 2.81h41.47375c1.73375 0 2.81 1.07375 2.81 2.8075V315.895c0 1.735-1.07625 2.8075-2.81 2.8075M1200.03375 315.89375V214.5225c0-1.73375 1.07375-2.80875 2.81-2.80875h16.19c1.07625 0 1.90125.41375 2.3975 1.1575l32.96875 57.17c1.975 3.305 4.2125 7.9325 4.5375 9.005h.6625c-1.8125-7.93125-3.225-21.23125-3.225-30.56875v-33.955c0-1.73375 1.075-2.80875 2.8125-2.80875H1276.7c1.7375 0 2.8125 1.075 2.8125 2.80875v101.37125c0 1.73625-1.075 2.80875-2.8125 2.80875h-16.025c-1.075 0-1.8125-.33125-2.475-1.3225l-33.3825-55.0225c-1.9825-3.55125-3.46875-6.94-3.46875-7.27h-.66125c1.32125 4.71 2.4775 16.19375 2.4775 27.01625v33.79c0 1.73625-1.07375 2.80875-2.8075 2.80875h-17.51375c-1.73625 0-2.81-1.0725-2.81-2.80875M1348.25 258.97125c6.525 0 11.5625-4.37875 11.5625-11.40125v-2.39625c0-7.02125-5.0375-11.56625-11.5625-11.56625h-16.3625c-1.7375 0-2.8125 1.075-2.8125 2.80875v19.74625c0 1.735 1.075 2.80875 2.8125 2.80875zm-39.5 59.7325c-1.725 0-2.8-1.075-2.8-2.80875V215.35c0-1.735 1.075-2.81 2.8-2.81h39.0875c22.6375 0 33.875 12.475 33.875 32.38625v2.56125c0 16.68875-11.2375 32.46875-33.9625 32.46875h-15.8625c-1.7375 0-2.8125 1.07375-2.8125 2.80875v33.13c0 1.73375-1.075 2.80875-2.8 2.80875M1437.8 280.78125c1.4875 0 1.9875-.66125 1.7375-1.735l-9.5-35.68875-.4125-3.38875h-2.8875l-.4125 3.38875-9.5875 35.68875c-.25 1.07375.1625 1.735 1.65 1.735zm-25.525 21.0675c-1.325 0-1.65.165-1.9.99l-3.8875 14.62375c-.25.825-.825 1.24-1.65 1.24h-20.4c-1.25 0-1.9-.415-1.9-1.24 0-.41125.1625-1.15625.325-1.5675.0875-.25 30.2375-102.44625 30.2375-102.44625.325-1.15625 1.4-1.735 2.65-1.735h25.025c1.2375 0 2.3125.57875 2.65 1.735l30.3125 103.1075c.175.495.175.6575.175.90625 0 .825-.5875 1.24-1.825 1.24H1451.6c-.9125 0-1.4875-.415-1.7375-1.24l-3.875-14.62375c-.25-.825-.6625-.99-1.9125-.99M1547.675 246.74375v-2.89125c0-5.86625-5.0375-10.245-11.5625-10.245h-19.75c-1.725 0-2.8 1.075-2.8 2.80875v17.84625c0 1.73375 1.075 2.8075 2.8 2.8075h19.75c6.3625 0 11.5625-4.46125 11.5625-10.32625m-57.25 69.15V215.35c0-1.735 1.075-2.81 2.8125-2.81h42.625c21.15 0 33.7875 12.64125 33.7875 32.63375 0 11.48375-4.45 20.07625-13.95 25.85875-.8375.49625-1.25.9925-1.25 1.6525 0 .66125.175 1.1575.4125 1.8175l16.2 39.40875c.7375 1.735 1.075 2.80875 1.075 3.46875 0 .6625-.6625 1.3225-1.9875 1.3225h-19.9875c-.6625 0-1.2375-.41375-1.6625-1.3225l-16.1-38.82875c-.3375-.8275-1-1.15625-1.7375-1.15625h-14.3c-1.725 0-2.8 1.07375-2.8 2.80875v35.69c0 1.735-1.075 2.80875-2.8125 2.80875h-17.5125c-1.7375 0-2.8125-1.07375-2.8125-2.80875M1609.475 315.89375V236.415c0-1.73375-1.075-2.8075-2.8125-2.8075h-18.5c-1.7375 0-2.8125-1.07375-2.8125-2.80875v-15.45c0-1.735 1.075-2.80875 2.8125-2.80875h65.7625c1.7375 0 2.8125 1.07375 2.8125 2.80875v15.45c0 1.735-1.075 2.80875-2.8125 2.80875h-18.5125c-1.725 0-2.8 1.07375-2.8 2.8075v79.47875c0 1.73625-1.075 2.80875-2.8125 2.80875h-17.5125c-1.7375 0-2.8125-1.0725-2.8125-2.80875M1680.2 318.7025c-1.7375 0-2.8125-1.0725-2.8125-2.8075V215.35c0-1.73625 1.075-2.81 2.8125-2.81h64.6c1.7375 0 2.8125 1.07375 2.8125 2.81v15.44875c0 1.735-1.075 2.80875-2.8125 2.80875h-41.475c-1.7375 0-2.8125 1.07375-2.8125 2.8075v15.45125c0 1.73375 1.075 2.81 2.8125 2.81h34.0375c1.7375 0 2.8125 1.07375 2.8125 2.80625v15.45c0 1.735-1.075 2.81125-2.8125 2.81125h-34.0375c-1.7375 0-2.8125 1.07375-2.8125 2.8075v16.275c0 1.73625 1.075 2.81 2.8125 2.81h41.475c1.7375 0 2.8125 1.07375 2.8125 2.8075V315.895c0 1.735-1.075 2.8075-2.8125 2.8075M1770.7375 315.89375V214.5225c0-1.73375 1.075-2.80875 2.8125-2.80875h17.5125c1.7375 0 2.8125 1.075 2.8125 2.80875v101.37125c0 1.73625-1.075 2.80875-2.8125 2.80875H1773.55c-1.7375 0-2.8125-1.0725-2.8125-2.80875"/>
</svg>
