<?xml version="1.0" encoding="UTF-8"?>
<svg width="171px" height="15px" viewBox="0 0 171 15" version="1.1" xmlns="http://www.w3.org/2000/svg" xmlns:xlink="http://www.w3.org/1999/xlink">
    <!-- Generator: Sketch 46.2 (44496) - http://www.bohemiancoding.com/sketch -->
    <title>Group 43</title>
    <desc>Created with Sketch.</desc>
    <defs>
        <polygon id="path-1" points="9.33 14.7078 9.33 0.1798 0.5607 0.1798 0.5607 14.7078 9.33 14.7078"></polygon>
        <polygon id="path-3" points="0.346 0.2227 0.346 14.7077 11.3852 14.7077 11.3852 0.2227 0.346 0.2227"></polygon>
    </defs>
    <g id="Page-1" stroke="none" stroke-width="1" fill="none" fill-rule="evenodd">
        <g id="Artboard-Copy" transform="translate(-532.000000, -4.000000)">
            <g id="Group">
                <g id="Euromat-RUNDE-2" transform="translate(75.000000, 4.000000)">
                    <g id="Group-43" transform="translate(457.000000, 0.000000)">
                        <path d="M72.2067,5.2921 C69.9527,5.2921 68.1177,7.1271 68.1177,9.3791 C68.1177,11.6341 69.9527,13.4691 72.2067,13.4691 C74.4607,13.4691 76.2937,11.6341 76.2937,9.3791 C76.2937,7.1271 74.4607,5.2921 72.2067,5.2921" id="Fill-13" fill="#FEE872"></path>
                        <path d="M45.8644,2.8009 C45.4214,2.8009 45.0624,2.9169 44.7804,3.1519 C44.4994,3.3859 44.3564,3.7229 44.3564,4.1629 C44.3564,4.6029 44.4874,4.9549 44.7484,5.2249 C45.0084,5.4929 45.3514,5.6999 45.7704,5.8449 C46.1904,5.9889 46.6574,6.1249 47.1734,6.2579 C47.6894,6.3889 48.2004,6.5469 48.7114,6.7299 C49.2204,6.9169 49.6824,7.1479 50.1034,7.4219 C50.5234,7.6969 50.8644,8.0869 51.1254,8.5889 C51.3864,9.0919 51.5154,9.6929 51.5154,10.3949 C51.5154,11.6189 51.0164,12.6679 50.0204,13.5399 C49.0234,14.4149 47.7114,14.8529 46.0804,14.8529 C44.4504,14.8529 43.1354,14.4579 42.1374,13.6769 C41.1404,12.8929 40.6414,11.7759 40.6414,10.3319 L44.3994,10.3319 C44.4954,11.4869 45.0864,12.0679 46.1724,12.0679 C46.6834,12.0679 47.0814,11.9309 47.3694,11.6639 C47.6584,11.3949 47.8024,11.0559 47.8024,10.6399 C47.8024,10.2289 47.6724,9.8939 47.4104,9.6299 C47.1494,9.3699 46.8084,9.1639 46.3884,9.0119 C45.9694,8.8619 45.5014,8.7209 44.9864,8.5889 C44.4694,8.4579 43.9594,8.2979 43.4474,8.1029 C42.9394,7.9119 42.4744,7.6799 42.0554,7.4119 C41.6364,7.1439 41.2974,6.7589 41.0334,6.2579 C40.7744,5.7549 40.6414,5.1599 40.6414,4.4719 C40.6414,3.1219 41.1444,2.0459 42.1494,1.2329 C43.1534,0.4209 44.4344,0.0159 45.9964,0.0159 C47.5584,0.0159 48.8204,0.3699 49.7834,1.0779 C50.7474,1.7859 51.2504,2.9039 51.2894,4.4329 L47.4514,4.4329 C47.3974,3.9079 47.2274,3.5069 46.9464,3.2239 C46.6634,2.9409 46.3024,2.8009 45.8644,2.8009" id="Fill-15" fill="#164194"></path>
                        <polygon id="Fill-17" fill="#164194" points="63.8976 0.1798 63.8976 2.8618 58.6556 2.8618 58.6556 5.9798 63.2776 5.9798 63.2776 8.6598 58.6556 8.6598 58.6556 12.0228 63.8976 12.0228 63.8976 14.7078 55.1276 14.7078 55.1276 0.1798"></polygon>
                        <path d="M84.483,4.2667 L84.483,5.6727 L82.295,5.6727 L82.295,14.7057 L80.545,14.7057 L80.545,5.6727 L79.194,5.6727 L79.194,4.2667 L80.545,4.2667 L80.545,3.3927 C80.545,2.2497 80.85,1.4217 81.459,0.9007 C82.069,0.3817 83.025,0.1207 84.331,0.1207 L84.331,1.5287 C83.568,1.5287 83.04,1.6707 82.744,1.9577 C82.445,2.2427 82.295,2.7207 82.295,3.3927 L82.295,4.2667 L84.483,4.2667 Z" id="Fill-19" fill="#164194"></path>
                        <polygon id="Fill-21" fill="#164194" points="96.1105 0.1798 96.1105 2.8618 90.8705 2.8618 90.8705 5.9798 95.4925 5.9798 95.4925 8.6598 90.8705 8.6598 90.8705 12.0228 96.1105 12.0228 96.1105 14.7078 87.3405 14.7078 87.3405 0.1798"></polygon>
                        <path d="M99.9093,8.8673 L99.9093,0.2213 L103.4353,0.2213 L103.4353,8.8673 C103.4353,9.7333 103.6473,10.4023 104.0753,10.8683 C104.5013,11.3363 105.1293,11.5703 105.9523,11.5703 C106.7793,11.5703 107.4133,11.3363 107.8503,10.8683 C108.2923,10.4023 108.5113,9.7333 108.5113,8.8673 L108.5113,0.2213 L112.0413,0.2213 L112.0413,8.8673 C112.0413,10.1463 111.7423,11.2503 111.1413,12.1793 C110.5453,13.1083 109.7883,13.7853 108.8743,14.2133 C107.9593,14.6383 106.9643,14.8503 105.8923,14.8503 C104.2133,14.8503 102.7973,14.3273 101.6423,13.2843 C100.4863,12.2393 99.9093,10.7663 99.9093,8.8673" id="Fill-23" fill="#164194"></path>
                        <path d="M119.4069,2.9044 L119.4069,6.3904 L121.5949,6.3904 C122.1299,6.3904 122.5539,6.2324 122.8649,5.9174 C123.1729,5.5984 123.3309,5.1834 123.3309,4.6694 C123.3309,4.1524 123.1689,3.7284 122.8529,3.3994 C122.5369,3.0674 122.1179,2.9044 121.5949,2.9044 L119.4069,2.9044 Z M119.4069,9.0724 L119.4069,14.7084 L115.8789,14.7084 L115.8789,0.2224 L121.5949,0.2224 C123.2739,0.2224 124.5789,0.6554 125.5149,1.5214 C126.4509,2.3864 126.9169,3.4344 126.9169,4.6594 C126.9169,5.4984 126.6639,6.3164 126.1529,7.1124 C125.6459,7.9104 124.8129,8.4754 123.6569,8.8044 L127.2059,14.7084 L123.0809,14.7084 L119.8209,9.0724 L119.4069,9.0724 Z" id="Fill-25" fill="#164194"></path>
                        <path d="M139.8439,10.4562 C140.5399,9.6992 140.8869,8.6892 140.8869,7.4222 C140.8869,6.1562 140.5399,5.1472 139.8439,4.3912 C139.1499,3.6332 138.2209,3.2542 137.0609,3.2542 C135.8989,3.2542 134.9699,3.6332 134.2769,4.3912 C133.5799,5.1472 133.2329,6.1562 133.2329,7.4222 C133.2329,8.6892 133.5799,9.6992 134.2769,10.4562 C134.9699,11.2152 135.8989,11.5912 137.0609,11.5912 C138.2209,11.5912 139.1499,11.2152 139.8439,10.4562 M131.7999,12.7472 C130.3589,11.3432 129.6429,9.5682 129.6429,7.4222 C129.6429,5.2762 130.3589,3.5062 131.7999,2.1092 C133.2329,0.7132 134.9959,0.0152 137.0809,0.0152 C139.1629,0.0152 140.9189,0.7132 142.3419,2.1092 C143.7679,3.5062 144.4779,5.2762 144.4779,7.4222 C144.4779,9.5682 143.7619,11.3432 142.3319,12.7472 C140.9029,14.1492 139.1479,14.8522 137.0709,14.8522 C134.9939,14.8522 133.2329,14.1492 131.7999,12.7472" id="Fill-27" fill="#164194"></path>
                        <path d="M151.1017,6.3907 L153.2897,6.3907 C153.8247,6.3907 154.2477,6.2327 154.5577,5.9147 C154.8677,5.5987 155.0217,5.1837 155.0217,4.6687 C155.0217,4.1527 154.8637,3.7287 154.5477,3.3997 C154.2297,3.0697 153.8107,2.9037 153.2897,2.9037 L151.1017,2.9037 L151.1017,6.3907 Z M158.6117,4.6597 C158.6117,5.6357 158.2607,6.5767 157.5587,7.4847 C157.1877,7.9527 156.6347,8.3327 155.9007,8.6297 C155.1617,8.9257 154.2917,9.0727 153.2897,9.0727 L151.1017,9.0727 L151.1017,14.7077 L147.5717,14.7077 L147.5717,0.2227 L153.2897,0.2227 C154.9667,0.2227 156.2737,0.6557 157.2097,1.5217 C158.1417,2.3867 158.6117,3.4347 158.6117,4.6597 L158.6117,4.6597 Z" id="Fill-29" fill="#164194"></path>
                        <g id="Group-33" transform="translate(161.000000, 0.000000)">
                            <mask id="mask-2" fill="white">
                                <use xlink:href="#path-1"></use>
                            </mask>
                            <g id="Clip-32"></g>
                            <polygon id="Fill-31" fill="#164194" mask="url(#mask-2)" points="9.3307 0.1798 9.3307 2.8618 4.0907 2.8618 4.0907 5.9798 8.7147 5.9798 8.7147 8.6598 4.0907 8.6598 4.0907 12.0228 9.3307 12.0228 9.3307 14.7078 0.5607 14.7078 0.5607 0.1798"></polygon>
                        </g>
                        <path d="M72.2067,5.2921 C69.9527,5.2921 68.1177,7.1271 68.1177,9.3791 C68.1177,11.6341 69.9527,13.4691 72.2067,13.4691 C74.4607,13.4691 76.2937,11.6341 76.2937,9.3791 C76.2937,7.1271 74.4607,5.2921 72.2067,5.2921 M72.2067,14.8961 C69.1667,14.8961 66.6917,12.4221 66.6917,9.3791 C66.6917,6.3411 69.1667,3.8661 72.2067,3.8661 C75.2477,3.8661 77.7217,6.3411 77.7217,9.3791 C77.7217,12.4221 75.2477,14.8961 72.2067,14.8961" id="Fill-34" fill="#164194"></path>
                        <path d="M14.2721,8.8673 L14.2721,0.2213 L17.8001,0.2213 L17.8001,8.8673 C17.8001,9.7333 18.0151,10.4023 18.4391,10.8683 C18.8671,11.3363 19.4951,11.5703 20.3171,11.5703 C21.1451,11.5703 21.7761,11.3363 22.2171,10.8683 C22.6561,10.4023 22.8741,9.7333 22.8741,8.8673 L22.8741,0.2213 L26.4041,0.2213 L26.4041,8.8673 C26.4041,10.1463 26.1051,11.2503 25.5071,12.1793 C24.9081,13.1083 24.1511,13.7853 23.2391,14.2133 C22.3241,14.6383 21.3301,14.8503 20.2551,14.8503 C18.5781,14.8503 17.1621,14.3273 16.0061,13.2843 C14.8501,12.2393 14.2721,10.7663 14.2721,8.8673" id="Fill-36" fill="#164194"></path>
                        <polygon id="Fill-38" fill="#164194" points="30.2433 0.2208 33.7713 0.2208 33.7713 12.0238 38.1663 12.0238 38.1663 14.7068 30.2433 14.7068"></polygon>
                        <g id="Group-42">
                            <mask id="mask-4" fill="white">
                                <use xlink:href="#path-3"></use>
                            </mask>
                            <g id="Clip-41"></g>
                            <path d="M3.8732,6.3907 L6.0612,6.3907 C6.5972,6.3907 7.0202,6.2327 7.3312,5.9147 C7.6392,5.5987 7.7932,5.1837 7.7932,4.6687 C7.7932,4.1527 7.6372,3.7287 7.3192,3.3997 C7.0032,3.0697 6.5812,2.9037 6.0612,2.9037 L3.8732,2.9037 L3.8732,6.3907 Z M11.3852,4.6597 C11.3852,5.6357 11.0342,6.5767 10.3322,7.4847 C9.9612,7.9527 9.4062,8.3327 8.6722,8.6297 C7.9352,8.9257 7.0652,9.0727 6.0612,9.0727 L3.8732,9.0727 L3.8732,14.7077 L0.3452,14.7077 L0.3452,0.2227 L6.0612,0.2227 C7.7402,0.2227 9.0452,0.6557 9.9812,1.5217 C10.9152,2.3867 11.3852,3.4347 11.3852,4.6597 L11.3852,4.6597 Z" id="Fill-40" fill="#164194" mask="url(#mask-4)"></path>
                        </g>
                    </g>
                </g>
            </g>
        </g>
    </g>
</svg>