<?xml version="1.0" encoding="UTF-8"?>
<svg width="61px" height="34px" viewBox="0 0 61 34" version="1.1" xmlns="http://www.w3.org/2000/svg" xmlns:xlink="http://www.w3.org/1999/xlink">
    <!-- Generator: Sketch 46.2 (44496) - http://www.bohemiancoding.com/sketch -->
    <title>Group 58</title>
    <desc>Created with Sketch.</desc>
    <defs>
        <path d="M13.378,8.245 C13.378,3.995 16.836,0.537 21.086,0.537 C25.336,0.537 28.793,3.995 28.793,8.245 C28.793,12.496 25.336,15.953 21.086,15.953 C16.836,15.953 13.378,12.496 13.378,8.245 Z M16.931,8.245 C16.931,10.536 18.795,12.399 21.086,12.399 C23.376,12.399 25.24,10.536 25.24,8.245 C25.24,5.954 23.376,4.091 21.086,4.091 C18.795,4.091 16.931,5.954 16.931,8.245 Z M49.722,4.999 C49.722,8.068 52.43,8.901 54.584,9.604 C55.99,10.052 57.142,10.457 57.142,11.396 C57.142,12.142 56.204,12.674 55.095,12.674 C53.858,12.674 52.537,12.184 51.172,11.566 C50.98,11.48 50.746,11.544 50.661,11.737 L49.487,13.911 C49.402,14.103 49.466,14.338 49.658,14.423 C51.471,15.36 53.154,15.873 55.224,15.873 C58.485,15.873 60.745,13.846 60.745,11.246 C60.745,8.517 58.465,7.493 56.395,6.769 C54.732,6.171 53.24,5.766 53.154,4.849 C53.134,4.039 53.965,3.762 54.861,3.762 C56.055,3.762 57.825,4.402 58.762,4.742 C58.976,4.828 59.189,4.742 59.274,4.551 L60.234,2.354 C60.319,2.141 60.234,1.928 60.042,1.822 C57.547,0.67 55.585,0.542 54.648,0.542 C51.79,0.542 49.722,2.205 49.722,4.999 Z M43.131,0.777 C42.919,0.777 42.748,0.948 42.748,1.16 L42.748,15.319 C42.748,15.531 42.919,15.702 43.131,15.702 L45.776,15.702 C45.989,15.702 46.16,15.531 46.16,15.319 L46.16,1.16 C46.16,0.948 45.989,0.777 45.776,0.777 L43.131,0.777 Z M32.162,0.777 C31.95,0.777 31.779,0.948 31.779,1.16 L31.779,15.319 C31.779,15.531 31.95,15.702 32.162,15.702 L39.461,15.702 C39.674,15.702 39.844,15.531 39.844,15.319 L39.844,12.91 C39.844,12.695 39.674,12.525 39.461,12.525 L35.211,12.525 L35.211,1.16 C35.211,0.948 35.041,0.777 34.828,0.777 L32.162,0.777 Z M0.73,0.777 L6.103,0.777 C10.24,0.777 11.498,3.676 11.498,5.702 C11.498,8.688 8.874,10.692 6.359,10.692 L3.779,10.692 L3.779,15.319 C3.779,15.531 3.609,15.702 3.395,15.702 L0.73,15.702 C0.517,15.702 0.346,15.531 0.346,15.319 L0.346,1.16 C0.346,0.948 0.517,0.777 0.73,0.777 Z M3.779,3.932 L3.779,7.493 L6.273,7.493 C7.745,7.45 8.086,6.256 8.086,5.702 C8.086,5.083 7.745,3.932 6.21,3.932 L3.779,3.932 Z M33.01,26.02 C33.01,21.77 36.467,18.311 40.717,18.311 C44.967,18.311 48.425,21.77 48.425,26.02 C48.425,30.27 44.967,33.727 40.717,33.727 C36.467,33.727 33.01,30.27 33.01,26.02 Z M36.563,26.02 C36.563,28.31 38.426,30.174 40.717,30.174 C43.008,30.174 44.872,28.31 44.872,26.02 C44.872,23.729 43.008,21.865 40.717,21.865 C38.426,21.865 36.563,23.729 36.563,26.02 Z M20.495,22.861 C20.495,21.202 21.459,18.311 25.605,18.311 C29.75,18.311 30.736,21.247 30.669,22.861 C30.646,23.645 30.265,25.169 28.92,25.997 C30.242,26.737 30.669,28.126 30.669,29.112 C30.669,30.748 29.75,33.727 25.605,33.727 C21.459,33.727 20.54,30.771 20.54,29.135 C20.54,28.103 21.19,26.513 22.199,25.976 C21.124,25.438 20.495,24.25 20.495,22.861 Z M23.834,22.861 C23.834,23.914 24.708,24.451 25.605,24.451 C26.501,24.451 27.352,23.914 27.352,22.861 C27.352,21.83 26.501,21.337 25.605,21.337 C24.708,21.337 23.834,21.83 23.834,22.861 Z M23.834,29.135 C23.834,30.188 24.708,30.703 25.605,30.703 C26.501,30.703 27.352,30.12 27.352,29.135 C27.352,28.081 26.501,27.544 25.605,27.544 C24.708,27.544 23.834,28.081 23.834,29.135 Z M14.582,18.557 C14.369,18.557 14.198,18.728 14.198,18.94 L14.198,33.099 C14.198,33.312 14.369,33.483 14.582,33.483 L17.227,33.483 C17.439,33.483 17.61,33.312 17.61,33.099 L17.61,18.94 C17.61,18.728 17.439,18.557 17.227,18.557 L14.582,18.557 Z" id="path-1"></path>
        <path d="M21.0055,15.9525863 C16.7924206,15.9092633 13.378,12.4691285 13.378,8.245 C13.378,4.0218652 16.7924206,0.580749236 21.0055,0.53741385 L21.0055,4.0917678 C18.7514956,4.13479669 16.931,5.98089295 16.931,8.245 C16.931,10.5091071 18.7514956,12.3552033 21.0055,12.3982322 L21.0055,15.9525863 L21.0055,15.9525863 Z M21.0055,24.8463253 C20.6744631,24.2875171 20.495,23.6029327 20.495,22.861 C20.495,22.2459553 20.6274944,21.4615815 21.0055,20.7179634 L21.0055,24.8463253 Z M21.0055,27.3405719 C20.7079012,27.9418527 20.54,28.6104947 20.54,29.135 C20.54,29.7242498 20.6592196,30.48474 21.0055,31.2166749 L21.0055,27.3405719 L21.0055,27.3405719 Z M0.73,0.777 L6.103,0.777 C10.24,0.777 11.498,3.676 11.498,5.702 C11.498,8.688 8.874,10.692 6.359,10.692 L3.779,10.692 L3.779,15.319 C3.779,15.531 3.609,15.702 3.395,15.702 L0.73,15.702 C0.517,15.702 0.346,15.531 0.346,15.319 L0.346,1.16 C0.346,0.948 0.517,0.777 0.73,0.777 Z M3.779,3.932 L3.779,7.493 L6.273,7.493 C7.745,7.45 8.086,6.256 8.086,5.702 C8.086,5.083 7.745,3.932 6.21,3.932 L3.779,3.932 Z M14.582,18.557 C14.369,18.557 14.198,18.728 14.198,18.94 L14.198,33.099 C14.198,33.312 14.369,33.483 14.582,33.483 L17.227,33.483 C17.439,33.483 17.61,33.312 17.61,33.099 L17.61,18.94 C17.61,18.728 17.439,18.557 17.227,18.557 L14.582,18.557 Z" id="path-3"></path>
        <path d="M28.7924874,0.1554 C28.7928288,0.185226831 28.793,0.215093807 28.793,0.245 C28.793,4.496 25.336,7.953 21.086,7.953 C16.836,7.953 13.378,4.496 13.378,0.245 C13.378,0.215093807 13.3781712,0.185226831 13.3785127,0.1554 L16.9319519,0.1554 C16.9313184,0.185191431 16.931,0.215059165 16.931,0.245 C16.931,2.536 18.795,4.399 21.086,4.399 C23.376,4.399 25.24,2.536 25.24,0.245 C25.24,0.215059165 25.2396816,0.185191431 25.2390481,0.1554 L28.7924874,0.1554 L28.7924874,0.1554 Z M51.2993669,0.1554 C51.6484986,0.41217462 52.0358984,0.627330606 52.4405,0.814468753 L52.4405,0.1554 L51.2993669,0.1554 L51.2993669,0.1554 Z M52.4405,4.09792931 C52.0228032,3.94059478 51.5995601,3.75957666 51.172,3.566 C50.98,3.48 50.746,3.544 50.661,3.737 L49.487,5.911 C49.402,6.103 49.466,6.338 49.658,6.423 C50.5964307,6.90800254 51.5000316,7.27940603 52.4405,7.52486797 L52.4405,4.09792931 L52.4405,4.09792931 Z M42.748,0.1554 L42.748,7.319 C42.748,7.531 42.919,7.702 43.131,7.702 L45.776,7.702 C45.989,7.702 46.16,7.531 46.16,7.319 L46.16,0.1554 L42.748,0.1554 L42.748,0.1554 Z M31.779,0.1554 L31.779,7.319 C31.779,7.531 31.95,7.702 32.162,7.702 L39.461,7.702 C39.674,7.702 39.844,7.531 39.844,7.319 L39.844,4.91 C39.844,4.695 39.674,4.525 39.461,4.525 L35.211,4.525 L35.211,0.1554 L31.779,0.1554 L31.779,0.1554 Z M0.346,0.1554 L0.346,7.319 C0.346,7.531 0.517,7.702 0.73,7.702 L3.395,7.702 C3.609,7.702 3.779,7.531 3.779,7.319 L3.779,2.692 L6.359,2.692 C8.09803399,2.692 9.88918344,1.73384035 10.8289032,0.1554 L0.346,0.1554 L0.346,0.1554 Z M33.01,18.02 C33.01,13.77 36.467,10.311 40.717,10.311 C44.967,10.311 48.425,13.77 48.425,18.02 C48.425,22.27 44.967,25.727 40.717,25.727 C36.467,25.727 33.01,22.27 33.01,18.02 Z M36.563,18.02 C36.563,20.31 38.426,22.174 40.717,22.174 C43.008,22.174 44.872,20.31 44.872,18.02 C44.872,15.729 43.008,13.865 40.717,13.865 C38.426,13.865 36.563,15.729 36.563,18.02 Z M20.495,14.861 C20.495,13.202 21.459,10.311 25.605,10.311 C29.75,10.311 30.736,13.247 30.669,14.861 C30.646,15.645 30.265,17.169 28.92,17.997 C30.242,18.737 30.669,20.126 30.669,21.112 C30.669,22.748 29.75,25.727 25.605,25.727 C21.459,25.727 20.54,22.771 20.54,21.135 C20.54,20.103 21.19,18.513 22.199,17.976 C21.124,17.438 20.495,16.25 20.495,14.861 Z M23.834,14.861 C23.834,15.914 24.708,16.451 25.605,16.451 C26.501,16.451 27.352,15.914 27.352,14.861 C27.352,13.83 26.501,13.337 25.605,13.337 C24.708,13.337 23.834,13.83 23.834,14.861 Z M23.834,21.135 C23.834,22.188 24.708,22.703 25.605,22.703 C26.501,22.703 27.352,22.12 27.352,21.135 C27.352,20.081 26.501,19.544 25.605,19.544 C24.708,19.544 23.834,20.081 23.834,21.135 Z M14.582,10.557 C14.369,10.557 14.198,10.728 14.198,10.94 L14.198,25.099 C14.198,25.312 14.369,25.483 14.582,25.483 L17.227,25.483 C17.439,25.483 17.61,25.312 17.61,25.099 L17.61,10.94 C17.61,10.728 17.439,10.557 17.227,10.557 L14.582,10.557 Z" id="path-5"></path>
    </defs>
    <g id="Page-1" stroke="none" stroke-width="1" fill="none" fill-rule="evenodd">
        <g id="Artboard-Copy" transform="translate(-622.000000, -85.000000)">
            <g id="Group-58" transform="translate(622.000000, 85.000000)">
                <g id="Group-51">
                    <mask id="mask-2" fill="white">
                        <use xlink:href="#path-1"></use>
                    </mask>
                    <g id="Clip-50"></g>
                    <path d="M21.0055,8.1554 L-10.4285,-20.1486 C5.2025,-37.5086 31.9485,-38.9096 49.3095,-23.2796 C66.6705,-7.6476 68.0715,19.0984 52.4405,36.4594 L21.0055,8.1554 Z" id="Fill-49" fill="#FFFFFF" mask="url(#mask-2)"></path>
                </g>
                <g id="Group-54">
                    <mask id="mask-4" fill="white">
                        <use xlink:href="#path-3"></use>
                    </mask>
                    <g id="Clip-53"></g>
                    <path d="M21.0055,8.1554 L-7.2985,39.5904 C-24.6585,23.9584 -26.0605,-2.7866 -10.4285,-20.1486 L21.0055,8.1554 Z" id="Fill-52" fill="#FFFFFF" mask="url(#mask-4)"></path>
                </g>
                <g id="Group-57" transform="translate(0.000000, 8.000000)">
                    <mask id="mask-6" fill="white">
                        <use xlink:href="#path-5"></use>
                    </mask>
                    <g id="Clip-56"></g>
                    <path d="M21.0055,0.1554 L52.4405,28.4594 C36.8085,45.8194 10.0625,47.2214 -7.2985,31.5904 L21.0055,0.1554 Z" id="Fill-55" fill="#FFFFFF" mask="url(#mask-6)"></path>
                </g>
            </g>
        </g>
    </g>
</svg>