<?xml version="1.0" encoding="UTF-8"?>
<svg width="480px" height="265px" viewBox="0 0 480 265" version="1.1" xmlns="http://www.w3.org/2000/svg" xmlns:xlink="http://www.w3.org/1999/xlink">
    <!-- Generator: Sketch 46.2 (44496) - http://www.bohemiancoding.com/sketch -->
    <title>Group</title>
    <desc>Created with Sketch.</desc>
    <defs>
        <path d="M475.535,15.346 C476.211,13.656 475.535,11.966 474.014,11.121 C454.238,1.993 438.688,0.979 431.251,0.979 C408.601,0.979 392.206,14.162 392.206,36.305 C392.206,60.645 413.672,67.237 430.744,72.814 C441.899,76.365 451.027,79.576 451.027,87.013 C451.027,92.929 443.589,97.154 434.8,97.154 C424.997,97.154 414.517,93.267 403.7,88.365 C402.178,87.689 400.319,88.196 399.643,89.718 L390.347,106.958 C389.671,108.479 390.177,110.337 391.699,111.015 C406.066,118.451 419.419,122.508 435.814,122.508 C461.676,122.508 479.592,106.45 479.592,85.829 C479.592,64.194 461.506,56.082 445.11,50.335 C431.927,45.602 420.096,42.391 419.419,35.121 C419.25,28.699 425.841,26.503 432.941,26.503 C442.406,26.503 456.435,31.572 463.872,34.277 C465.563,34.953 467.253,34.277 467.929,32.756 L475.535,15.346 Z M381.926,202.947 C381.926,169.256 354.515,141.845 320.823,141.845 C287.13,141.845 259.721,169.256 259.721,202.947 C259.721,236.64 287.13,264.05 320.823,264.05 C354.515,264.05 381.926,236.64 381.926,202.947 L381.926,202.947 Z M353.755,202.947 C353.755,221.108 338.981,235.879 320.823,235.879 C302.666,235.879 287.892,221.108 287.892,202.947 C287.892,184.789 302.666,170.016 320.823,170.016 C338.981,170.016 353.755,184.789 353.755,202.947 L353.755,202.947 Z M363.965,118.113 L363.965,5.88 C363.965,4.19 362.613,2.839 360.922,2.839 L339.963,2.839 C338.273,2.839 336.921,4.19 336.921,5.88 L336.921,118.113 C336.921,119.803 338.273,121.156 339.963,121.156 L360.922,121.156 C362.613,121.156 363.965,119.803 363.965,118.113 L363.965,118.113 Z M313.904,118.113 L313.904,99.014 C313.904,97.324 312.551,95.971 310.861,95.971 L277.177,95.971 L277.177,5.88 C277.177,4.19 275.824,2.839 274.134,2.839 L253.007,2.839 C251.316,2.839 249.964,4.19 249.964,5.88 L249.964,118.113 C249.964,119.803 251.316,121.156 253.007,121.156 L310.861,121.156 C312.551,121.156 313.904,119.803 313.904,118.113 L313.904,118.113 Z M227.308,202.77 C237.964,196.198 240.985,184.119 241.162,177.904 C241.696,165.115 233.88,141.845 201.018,141.845 C168.16,141.845 160.522,164.76 160.522,177.904 C160.522,188.917 165.495,198.329 174.021,202.593 C166.026,206.855 160.877,219.468 160.877,227.637 C160.877,240.604 168.16,264.05 201.018,264.05 C233.88,264.05 241.162,240.427 241.162,227.46 C241.162,219.645 237.787,208.633 227.308,202.77 L227.308,202.77 Z M214.875,177.904 C214.875,186.252 208.124,190.514 201.018,190.514 C193.914,190.514 186.988,186.252 186.988,177.904 C186.988,169.732 193.914,165.824 201.018,165.824 C208.124,165.824 214.875,169.732 214.875,177.904 L214.875,177.904 Z M214.875,227.637 C214.875,235.453 208.124,240.07 201.018,240.07 C193.914,240.07 186.988,235.986 186.988,227.637 C186.988,219.288 193.914,215.027 201.018,215.027 C208.124,215.027 214.875,219.288 214.875,227.637 L214.875,227.637 Z M226.302,62.046 C226.302,28.353 198.892,0.943 165.199,0.943 C131.507,0.943 104.098,28.353 104.098,62.046 C104.098,95.737 131.507,123.148 165.199,123.148 C198.892,123.148 226.302,95.737 226.302,62.046 L226.302,62.046 Z M198.132,62.046 C198.132,80.204 183.358,94.977 165.199,94.977 C147.041,94.977 132.268,80.204 132.268,62.046 C132.268,43.888 147.041,29.114 165.199,29.114 C183.358,29.114 198.132,43.888 198.132,62.046 L198.132,62.046 Z M89.191,41.883 C89.191,25.825 79.221,2.839 46.428,2.839 L3.834,2.839 C2.145,2.839 0.792,4.19 0.792,5.88 L0.792,118.113 C0.792,119.803 2.145,121.156 3.834,121.156 L24.961,121.156 C26.652,121.156 28.004,119.803 28.004,118.113 L28.004,81.434 L48.456,81.434 C68.401,81.434 89.191,65.546 89.191,41.883 L89.191,41.883 Z M62.146,41.883 C62.146,46.278 59.443,55.744 47.78,56.082 L28.004,56.082 L28.004,27.854 L47.272,27.854 C59.443,27.854 62.146,36.981 62.146,41.883 L62.146,41.883 Z M110.6,146.832 L110.6,259.064 C110.6,260.755 111.953,262.107 113.645,262.107 L134.604,262.107 C136.292,262.107 137.645,260.755 137.645,259.064 L137.645,146.832 C137.645,145.141 136.292,143.789 134.604,143.789 L113.645,143.789 C111.953,143.789 110.6,145.141 110.6,146.832 L110.6,146.832 Z" id="path-1"></path>
    </defs>
    <g id="Page-1" stroke="none" stroke-width="1" fill="none" fill-rule="evenodd">
        <g id="Polis3" transform="translate(-171.000000, -274.000000)">
            <g id="Group-6">
                <g id="Group" transform="translate(171.000000, 274.000000)">
                    <mask id="mask-2" fill="white">
                        <use xlink:href="#path-1"></use>
                    </mask>
                    <use id="Fill-1" fill="#FFFFFF" xlink:href="#path-1"></use>
                    <path d="M164.564,61.333 L-84.622,-163.036 C39.293,-300.658 251.31,-311.769 388.933,-187.854 C526.555,-63.938 537.666,148.079 413.751,285.702 L164.564,61.333" id="Fill-2" fill="#0AB8AE" mask="url(#mask-2)"></path>
                    <path d="M164.564,61.333 L-59.805,310.519 C-197.427,186.604 -208.538,-25.413 -84.622,-163.036 L164.564,61.333" id="Fill-4" fill="#E4007D" mask="url(#mask-2)"></path>
                    <path d="M164.564,61.333 L413.751,285.702 C289.835,423.323 77.818,434.435 -59.805,310.519 L164.564,61.333" id="Fill-5" fill="#1E1450" mask="url(#mask-2)"></path>
                </g>
            </g>
        </g>
    </g>
</svg>