<?xml version="1.0" encoding="UTF-8"?>
<svg width="7825px" height="3260px" viewBox="0 0 7825 3260" version="1.1" xmlns="http://www.w3.org/2000/svg" xmlns:xlink="http://www.w3.org/1999/xlink">
    <!-- Generator: Sketch 53.2 (72643) - https://sketchapp.com -->
    <title>Volt_Logo_RGB</title>
    <desc>Created with Sketch.</desc>
    <defs>
        <polygon id="path-1" points="0 0.1952 3241.3645 0.1952 3241.3645 3195.4512 0 3195.4512"></polygon>
        <polygon id="path-3" points="0.4581 0.1245 2473.5571 0.1245 2473.5571 2490 0.4581 2490"></polygon>
    </defs>
    <g id="Volt_Logo_RGB" stroke="none" stroke-width="1" fill="none" fill-rule="evenodd">
        <path d="M6902.3916,2194.726 L6902.3916,1341.735 L7534.0316,1341.735 L7534.0316,770.001 L6902.3916,770.001 L6902.3916,-0.001 L6215.3886,108.811 L6215.3886,2203.947 C6215.3886,2360.713 6229.9426,2503.647 6259.1926,2632.748 C6288.3676,2761.849 6339.8786,2871.787 6413.6506,2962.417 C6487.4236,3053.12 6585.7616,3123.794 6708.7406,3174.513 C6831.6456,3225.231 6986.8986,3250.59 7174.4256,3250.59 C7321.9706,3250.59 7446.4606,3238.27 7547.8986,3213.705 C7649.3336,3189.137 7741.5506,3159.96 7824.5426,3126.1 L7727.7166,2591.251 C7663.1676,2615.89 7591.6996,2635.053 7513.3176,2648.886 C7434.9336,2662.718 7358.8586,2669.634 7285.0836,2669.634 C7131.3436,2669.634 7029.1886,2626.624 6978.4686,2540.533 C6927.7516,2454.513 6902.3916,2339.246 6902.3916,2194.726" id="Fill-1" fill="#582C83"></path>
        <g id="Group-5" transform="translate(0.000000, -0.190000)">
            <mask id="mask-2" fill="white">
                <use xlink:href="#path-1"></use>
            </mask>
            <g id="Clip-4"></g>
            <path d="M1963.8955,3195.4512 C2090.5475,2928.2432 2215.3975,2650.1572 2338.3035,2361.1912 C2461.2095,2072.2262 2577.9185,1786.3592 2688.5775,1503.5172 C2799.2355,1220.7492 2901.1045,950.4432 2994.2565,692.6002 C3087.4075,434.8312 3169.7535,204.0062 3241.3645,0.1952 L2475.6175,0.1952 C2415.5335,186.2112 2348.8945,385.8432 2275.6975,599.0902 C2202.5025,812.4092 2128.0095,1025.0082 2052.0765,1236.8142 C1976.1425,1448.6932 1902.5145,1651.6382 1831.3365,1845.6502 C1760.1575,2039.7342 1694.5265,2206.8762 1634.5145,2347.0702 C1570.8285,2205.9382 1504.1885,2038.3672 1434.5945,1844.2822 C1365.0005,1650.1972 1292.2375,1447.2532 1216.3035,1235.3742 C1140.3705,1023.5662 1065.7335,810.9692 992.5385,597.6482 C919.3425,384.4002 852.8465,185.2012 793.0505,0.1952 L-0.0005,0.1952 C67.8645,202.9962 148.5525,433.5342 241.9205,691.8812 C335.2885,950.2262 437.5895,1220.6782 548.9685,1503.1582 C660.2755,1785.7112 777.7775,2071.2902 901.5475,2359.8942 C1025.2455,2648.5712 1150.6725,2927.0912 1277.9005,3195.4512 L1963.8955,3195.4512 Z" id="Fill-3" fill="#582C83" mask="url(#mask-2)"></path>
        </g>
        <polygon id="Fill-6" fill="#582C83" points="5988.5283 0.0014 5301.5383 108.8104 5301.5383 3195.2474 5988.5403 3195.2474 5988.5403 0.0014"></polygon>
        <g id="Group-10" transform="translate(2636.000000, 769.810000)">
            <mask id="mask-4" fill="white">
                <use xlink:href="#path-3"></use>
            </mask>
            <g id="Clip-9"></g>
            <path d="M1850.2051,1245.0625 C1850.2051,1585.4375 1574.2751,1861.3675 1233.9001,1861.3675 C893.5221,1861.3675 617.5931,1585.4375 617.5931,1245.0625 C617.5931,904.6875 893.5221,628.7575 1233.9001,628.7575 C1574.2751,628.7575 1850.2051,904.6875 1850.2051,1245.0625 M2473.5571,1245.0625 C2473.5571,557.5075 1916.1821,0.1245 1228.6231,0.1245 C945.1751,0.1245 683.8611,94.8675 474.5931,254.3905 C416.3431,409.9215 355.1751,569.6095 291.0331,733.5155 C198.4451,970.1715 101.6031,1208.9535 0.4581,1449.8825 C98.1371,2039.9925 610.8271,2490.0005 1228.6231,2490.0005 C1916.1821,2490.0005 2473.5571,1932.6175 2473.5571,1245.0625" id="Fill-8" fill="#582C83" mask="url(#mask-4)"></path>
        </g>
    </g>
</svg>