<?xml version="1.0" encoding="UTF-8"?>
<svg width="32px" height="32px" viewBox="0 0 32 32" version="1.1" xmlns="http://www.w3.org/2000/svg" xmlns:xlink="http://www.w3.org/1999/xlink">
    <!-- Generator: Sketch 46.2 (44496) - http://www.bohemiancoding.com/sketch -->
    <title>Artboard Copy 8</title>
    <desc>Created with Sketch.</desc>
    <defs>
        <path d="M15.5593544,28.4622646 L16.0571509,26.9029153 L14.713207,27.879552 L13.3442246,26.936649 L13.8826667,28.4831499 L12.5388351,29.4598413 L14.2154667,29.4389012 L14.7539088,30.9854568 L15.2517053,29.4261076 L16.9284491,29.4052222 L15.5593544,28.4622646 Z M22.6241684,27.2822963 L23.1219088,25.7228924 L21.7780772,26.6995291 L20.4090947,25.7566808 L20.9475368,27.3031817 L19.6037053,28.279873 L21.2803368,28.2589877 L21.8187789,29.8054885 L22.3165754,28.2461393 L23.9932632,28.225254 L22.6241684,27.2822963 Z M28.943214,16.2926049 L27.5993825,17.2692416 L29.2760702,17.2484656 L29.8145123,18.7949118 L30.3122526,17.2355079 L31.9889404,17.2146772 L30.6198456,16.2717196 L31.117586,14.7123157 L29.7737544,15.6890071 L28.4047719,14.7461587 L28.943214,16.2926049 Z M29.9060772,7.83206526 L28.5621333,8.80870194 L27.1931509,7.86579894 L27.731593,9.41229982 L26.3877614,10.3889912 L28.064393,10.3681058 L28.6028912,11.9146067 L29.1006316,10.3552575 L30.7773193,10.3344268 L29.4082807,9.39152381 L29.9060772,7.83206526 Z M29.5057965,23.7632222 L28.1367579,22.8202646 L28.6344982,21.2608607 L27.2906105,22.237552 L25.9216281,21.2945944 L26.4600702,22.8410952 L25.1162386,23.8177866 L26.7929263,23.7969559 L27.3313684,25.3434021 L27.8291088,23.7840529 L29.5057965,23.7632222 Z M4.25347368,20.6754691 L4.75127018,19.1161199 L3.40738246,20.0927566 L2.03834386,19.1498536 L2.57672982,20.6963545 L1.23284211,21.6729912 L2.90958596,21.6521605 L3.44797193,23.1986614 L3.94576842,21.6393122 L5.62245614,21.6183721 L4.25347368,20.6754691 Z M3.04179649,13.795164 L3.53953684,12.2357055 L2.19570526,13.2123968 L0.826722807,12.2695485 L1.36516491,13.8159947 L0.0212210526,14.7927407 L1.69796491,14.7718007 L2.23640702,16.3184109 L2.73420351,14.7589524 L4.41083509,14.738067 L3.04179649,13.795164 Z M11.535214,1.22518342 L10.1913825,2.20192945 L8.8224,1.25897178 L9.36084211,2.80547266 L8.01695439,3.78210935 L9.69364211,3.76127866 L10.2321404,5.30777954 L10.7298807,3.74843034 L12.4065123,3.72754497 L11.0374737,2.78464198 L11.535214,1.22518342 Z M18.6001965,0.0452698413 L17.2562526,1.0219612 L15.8872702,0.0790035273 L16.4257123,1.62555908 L15.0818246,2.60214109 L16.7585123,2.58131041 L17.2969544,4.12775661 L17.7946947,2.56846208 L19.4713825,2.54757672 L18.1023439,1.6047284 L18.6001965,0.0452698413 Z M4.18110877,8.22331041 L4.71955088,9.76981129 L5.21734737,8.21040741 L6.89397895,8.18957672 L5.52494035,7.24667372 L6.0226807,5.68726984 L4.67884912,6.6639612 L3.30975439,5.72100353 L3.84830877,7.26750441 L2.50442105,8.24414109 L4.18110877,8.22331041 Z M8.8352,26.0439912 L9.33299649,24.4845873 L7.98910877,25.461224 L6.62007018,24.518321 L7.15845614,26.0648765 L5.8146807,27.0415679 L7.49131228,27.0206279 L8.02975439,28.5671834 L8.52749474,27.0078342 L10.2042947,26.9869489 L8.8352,26.0439912 Z M24.8264982,4.02294709 L26.195593,4.96590476 L24.5189053,4.98673545 L24.0211649,6.54608466 L23.4826667,4.99958377 L21.8060912,5.02041446 L23.1498667,4.04383245 L22.6113684,2.49733157 L23.980407,3.44023457 L25.3242947,2.46359788 L24.8264982,4.02294709 Z" id="path-1"></path>
    </defs>
    <g id="Page-1" stroke="none" stroke-width="1" fill="none" fill-rule="evenodd">
        <g id="Artboard-Copy-8">
            <rect id="Rectangle" fill="#40A6EE" x="0" y="0" width="192" height="192"></rect>
            <g id="Euromat-RUNDE-2-Copy" transform="translate(0.000000, 1.000000)">
                <g id="Group-4">
                    <mask id="mask-2" fill="white">
                        <use xlink:href="#path-1"></use>
                    </mask>
                    <use id="Clip-3" fill="#FEE872" xlink:href="#path-1"></use>
                </g>
            </g>
        </g>
    </g>
</svg>