<?xml version="1.0" encoding="UTF-8"?>
<svg width="133px" height="132px" viewBox="0 0 133 132" version="1.1" xmlns="http://www.w3.org/2000/svg" xmlns:xlink="http://www.w3.org/1999/xlink">
    <!-- Generator: Sketch 46.2 (44496) - http://www.bohemiancoding.com/sketch -->
    <title>Euromat RUNDE 2 Copy</title>
    <desc>Created with Sketch.</desc>
    <defs>
        <path d="M64.6685667,121.194159 L66.7375333,114.554349 L61.1517667,118.712931 L55.4619333,114.697989 L57.6998333,121.28309 L52.1145333,125.441905 L59.0830333,125.352741 L61.3209333,131.938074 L63.3899,125.298265 L70.3588667,125.209333 L64.6685667,121.194159 Z M94.0317,116.169778 L96.1004333,109.529735 L90.5151333,113.688317 L84.8253,109.673608 L87.0632,116.258709 L81.4779,120.417524 L88.4464,120.328593 L90.6843,126.913693 L92.7532667,120.273884 L99.722,120.184952 L94.0317,116.169778 Z M120.295233,69.374963 L114.709933,73.533545 L121.678667,73.4450794 L123.916567,80.0299471 L125.9853,73.3899048 L132.954033,73.3012063 L127.263733,69.2860317 L129.332467,62.6459894 L123.747167,66.8048042 L118.057333,62.7900952 L120.295233,69.374963 Z M124.297133,33.3494392 L118.711367,37.5080212 L113.021533,33.4930794 L115.259433,40.0781799 L109.674133,44.2369947 L116.642633,44.1480635 L118.880767,50.733164 L120.9495,44.0933545 L127.918233,44.0046561 L122.228167,39.9897143 L124.297133,33.3494392 Z M122.633467,101.185333 L116.9434,97.1701587 L119.012133,90.5301164 L113.4266,94.6889312 L107.736767,90.6737566 L109.974667,97.2588571 L104.389367,101.417672 L111.3581,101.328974 L113.596,107.913841 L115.664733,101.274032 L122.633467,101.185333 Z M17.6785,88.0374815 L19.7474667,81.397672 L14.1619333,85.556254 L8.47186667,81.5413122 L10.7095333,88.1264127 L5.124,92.2849947 L12.0929667,92.1962963 L14.3306333,98.7813968 L16.3996,92.1415873 L23.3683333,92.0524233 L17.6785,88.0374815 Z M12.6424667,58.7406984 L14.7112,52.1004233 L9.1259,56.2592381 L3.43606667,52.2445291 L5.67396667,58.8293968 L0.0882,62.9884444 L7.05716667,62.8992804 L9.29506667,69.4848466 L11.3640333,62.8445714 L18.3325333,62.7556402 L12.6424667,58.7406984 Z M47.9432333,5.21691005 L42.3579333,9.37595767 L36.6681,5.36078307 L38.906,11.9458836 L33.3204667,16.1044656 L40.2892,16.0157672 L42.5273333,22.6008677 L44.5960667,15.9610582 L51.5645667,15.872127 L45.8745,11.8571852 L47.9432333,5.21691005 Z M77.3070667,0.192761905 L71.7213,4.35157672 L66.0314667,0.336402116 L68.2693667,6.92173545 L62.6838333,11.0800847 L69.6525667,10.9913862 L71.8904667,17.576254 L73.9592,10.9366772 L80.9279333,10.847746 L75.2378667,6.83303704 L77.3070667,0.192761905 Z M17.3777333,35.0153862 L19.6156333,41.6004868 L21.6846,34.9604444 L28.6531,34.871746 L22.9630333,30.8568042 L25.0317667,24.2167619 L19.4464667,28.3755767 L13.7561667,24.3604021 L15.9945333,30.9455026 L10.409,35.1040847 L17.3777333,35.0153862 Z M36.7213,110.896995 L38.7902667,104.256952 L33.2047333,108.415534 L27.5146667,104.400593 L29.7523333,110.985926 L24.1672667,115.144741 L31.1357667,115.055577 L33.3736667,121.64091 L35.4424,115.001101 L42.4116,114.912169 L36.7213,110.896995 Z M103.185133,17.1299683 L108.875433,21.1451429 L101.9067,21.2338413 L99.8379667,27.8736508 L97.5998333,21.2885503 L90.6315667,21.3772487 L96.2166333,17.2188995 L93.9785,10.6337989 L99.6685667,14.6487407 L105.2541,10.4901587 L103.185133,17.1299683 Z" id="path-1"></path>
    </defs>
    <g id="Page-1" stroke="none" stroke-width="1" fill="none" fill-rule="evenodd">
        <g id="Artboard-Copy-6" transform="translate(-6.000000, -6.000000)">
            <g id="Euromat-RUNDE-2-Copy" transform="translate(6.000000, 6.000000)">
                <g id="Group-4">
                    <mask id="mask-2" fill="white">
                        <use xlink:href="#path-1"></use>
                    </mask>
                    <use id="Clip-3" fill="#FEE872" xlink:href="#path-1"></use>
                </g>
                <g id="Group-12" transform="translate(29.000000, 37.000000)" fill="#FFFFFF">
                    <path d="M4.56128722,0.0319890625 C2.0417377,0.0319890625 0.0133638978,1.88103984 0.0133638978,4.17512578 L0.0133638978,41.9517195 C0.0133638978,44.2453445 2.0417377,46.0946258 4.56128722,46.0946258 L7.26158754,46.0946258 C6.25754601,50.4670789 4.09366741,54.6807391 2.00302204,58.8743484 C7.37960032,55.2175008 11.4351818,51.2345398 14.9359166,46.0946258 L15.1488527,46.0946258 L68.2305812,46.0946258 C70.7498974,46.0946258 72.7782712,44.245575 72.7782712,41.9517195 L72.7782712,4.17512578 C72.7782712,1.88127031 70.7498974,0.0319890625 68.2305812,0.0319890625 L4.56152045,0.0319890625 L4.56128722,0.0319890625 Z" id="Combined-Shape"></path>
                </g>
            </g>
        </g>
    </g>
</svg>